<?xml version="1.0" standalone="no"?>
<!DOCTYPE svg PUBLIC "-//W3C//DTD SVG 1.1//EN" "http://www.w3.org/Graphics/SVG/1.1/DTD/svg11.dtd" >
<svg xmlns="http://www.w3.org/2000/svg" xmlns:xlink="http://www.w3.org/1999/xlink" version="1.1">
<metadata></metadata>
<defs>
<font id="al-fatemi_lsd1424_ver1regular" horiz-adv-x="647" >
<font-face units-per-em="2048" ascent="1638" descent="-410" />
<missing-glyph horiz-adv-x="189" />
<glyph horiz-adv-x="0" />
<glyph unicode="&#xd;" horiz-adv-x="393" />
<glyph horiz-adv-x="0" />
<glyph unicode=" "  horiz-adv-x="189" />
<glyph unicode="&#x09;" horiz-adv-x="189" />
<glyph unicode="&#xa0;" horiz-adv-x="189" />
<glyph unicode="!" horiz-adv-x="502" d="M219 1224h44l2 -1l6 -1q5 -2 12 -4l2 -1q5 -3 11 -6q5 -2 10 -8l9 -7l1 -2l9 -9q3 -4 6 -11q4 -4 7 -11q4 -5 6 -12q3 -5 5 -13q1 -4 4 -11v-3q3 -6 4 -13q2 -6 3 -14l1 -2q1 -5 2 -12l1 -2q0 -7 1 -16l2 -16v-6l1 -6v-104l-1 -2v-6q-1 -7 -1 -17l-2 -16v-12v-3l-1 -1 l-1 -17q-2 -7 -2 -16q-2 -7 -3 -15l-2 -15q0 -7 -3 -15l-2 -17l-11 -61q-2 -6 -3 -15l-4 -14q0 -7 -3 -14l-3 -16l-3 -14q-2 -7 -3 -15l-2 -7q-1 -3 -2 -7q-1 -5 -3 -12l-1 -2q-1 -7 -4 -15q-1 -6 -3 -11v-3q-3 -6 -3 -14q-3 -6 -4 -15q-3 -6 -4 -14l-4 -10l-1 -3 q-1 -6 -3 -14l-6 -21q-1 -3 -2 -7l-5 -14q-1 -6 -4 -13q-1 -5 -3 -11v-3q-2 -6 -5 -13q-1 -5 -4 -12v-3q-3 -6 -5 -13q-2 -6 -5 -13l-3 -14q-2 -6 -5 -13q-2 -4 -4 -11l-1 -2q0 -10 -7 -11l-2 15l-4 14l-3 15q-1 5 -4 11q-1 6 -2 10l-2 8l-3 15q-2 6 -3 14q-1 5 -3 12v3 q-2 6 -4 15l-2 6l-1 8l-4 14l-3 15l-3 15l-1 6l-2 8q-1 7 -3 15l-4 14l-3 16q-2 6 -3 15l-1 6l-1 8l-4 14q0 7 -3 16q-1 7 -3 15l-3 15q-1 7 -3 15q-1 7 -2 15l-2 7l-1 8q-1 7 -3 15q0 5 -2 12v3q-2 6 -3 16l-2 7v7l-1 1l-2 16l-3 15l-1 16q-1 6 -2 16q-2 7 -2 16 q-2 7 -2 16q-2 7 -2 17q-1 7 -2 15l-1 7v9h-1v11l-1 1v12l-1 5v105l1 2v5l1 14l1 2l2 17q2 6 3 14l7 28q2 6 5 14q2 5 6 12l6 12q4 4 5 9l2 1q3 5 9 10q3 3 6 8h2v1l11 8q4 3 11 5q6 4 14 6q5 1 13 4zM243 250q2 -3 6 -5q0 -1 2 -2q3 -4 8 -9q3 -3 7 -8q3 -3 8 -7q2 -3 7 -6 q0 -1 2 -2q3 -4 7 -8l8 -8q3 -3 7 -8q3 -3 8 -7q2 -3 7 -6q0 -1 2 -2q3 -4 7 -8l8 -8l8 -8l7 -7q2 -3 7 -6q0 -1 2 -2q3 -4 7 -7q-2 -4 -6 -10q-4 -3 -9 -8q-3 -3 -8 -7q-3 -3 -7 -8q-3 -2 -6 -6q-1 0 -2 -2q-4 -3 -8 -8l-8 -8q-3 -3 -8 -7q-3 -3 -7 -8q-3 -2 -6 -6 q-1 0 -2 -2q-4 -3 -8 -8l-8 -8q-3 -3 -8 -7q-3 -3 -7 -8q-3 -2 -6 -6q-1 0 -2 -2q-4 -4 -8 -7q-4 2 -9 8q-3 3 -8 7q-2 3 -6 6q0 1 -2 2q-3 4 -8 8q-3 3 -7 8l-8 8q-2 3 -7 5q0 1 -2 2q-3 4 -7 8q-3 4 -8 8q-3 3 -7 8l-8 8q-3 3 -8 7q-2 3 -6 6q0 1 -2 2q-3 4 -8 8 q-3 3 -7 8q-4 3 -7 8q3 3 8 7q3 3 7 8q3 2 6 7q1 0 2 1q4 3 8 8l8 8q3 3 8 7q3 2 5 7q1 0 2 2q4 3 8 7q4 3 8 8l8 8q3 3 8 7q3 3 7 8q3 2 6 7q1 0 2 1q4 3 8 8l8 8q4 3 7 8z" />
<glyph unicode="&#x22;" horiz-adv-x="544" d="M171 635q3 32 10 81t16 98.5t17 91t12 57.5l-8 9l-123 -24l36 -318zM403 635q3 32 10 81t16 98.5t17 91t12 57.5l-8 9l-123 -24l36 -318z" />
<glyph unicode="#" d="M600 499l19 62l-132 -3l47 203l-62 -4l-46 -200l-147 -3l47 207l-62 -4l-47 -204l-126 -2l-19 -61l131 2l-45 -199l-127 -2l-18 -61l131 2l-46 -203l62 4l46 200l147 2l-48 -206l62 4l47 203l127 3l18 62l-131 -3l45 198zM265 493l147 2l-45 -198l-147 -3z" />
<glyph unicode="$" d="M352 890l-55 -6v-82q-49 -6 -90 -21.5t-72 -41.5t-48.5 -62.5t-17.5 -83.5q0 -52 19.5 -88.5t51 -62.5t71.5 -45t81 -37v-324q-40 4 -70 19t-52 39t-38 55t-28 67l-45 -11q12 -49 19 -92.5t12 -92.5q58 -15 104.5 -25t97.5 -10v-91l55 6v88q47 7 90 25t74.5 47t50.5 68 t19 88q0 54 -20 91.5t-53 64t-74 46t-82 37.5v299q63 -6 101 -44.5t49 -104.5l42 5q0 45 1.5 83.5t6.5 85.5q-52 13 -99 18.5t-101 6.5v86zM475 176q0 -57 -36 -94t-92 -45v298q27 -13 50.5 -28t40.5 -34t27 -43t10 -54zM175 632q0 54 34 84.5t88 35.5v-272q-26 12 -48.5 27 t-38.5 33t-25.5 40.5t-9.5 51.5z" />
<glyph unicode="%" horiz-adv-x="1199" d="M883 962l-617 -982l46 -31l621 983zM324 924q-56 0 -98.5 -19.5t-71.5 -56t-44 -88.5t-15 -116q0 -50 11.5 -96t36 -80t63 -54t91.5 -20q112 0 170.5 74.5t58.5 206.5q0 49 -11.5 94.5t-36 79.5t-63 54.5t-91.5 20.5zM306 880q19 0 40.5 -11.5t39.5 -38.5t29 -72t11 -113 q0 -61 -9 -101t-24 -64t-35 -34t-43 -10q-19 0 -40 11.5t-38.5 38.5t-29.5 72t-12 113q0 61 9 101t25 64t35.5 34t41.5 10zM901 520q-56 0 -98.5 -19.5t-71.5 -56.5t-43.5 -88.5t-14.5 -115.5q0 -50 11.5 -96t35.5 -80t62.5 -54t92.5 -20q112 0 170.5 74.5t58.5 205.5 q0 49 -11.5 94.5t-36 80t-63.5 55t-92 20.5zM884 476q19 0 40.5 -11.5t39 -38.5t29 -72.5t11.5 -112.5q0 -61 -9 -101t-24.5 -64.5t-35 -34.5t-42.5 -10q-19 0 -40 11.5t-38.5 38.5t-29.5 72.5t-12 112.5q0 61 9 101t24.5 64.5t35.5 34.5t42 10z" />
<glyph unicode="&#x26;" horiz-adv-x="994" d="M942 542h-31h-39q-20 0 -41 -0.5t-39 -0.5q-43 0 -82.5 0.5t-67.5 0.5l-2 -32q17 -1 33 -3t28 -6t19.5 -12.5t7.5 -23.5q0 -31 -23.5 -74t-61.5 -95q-51 54 -111.5 108t-120.5 100q-1 0 -2 1q35 21 67 42t56 46t38 55.5t14 69.5q0 40 -16 71t-42.5 53t-61.5 34t-72 12 q-45 0 -85.5 -15t-72 -42t-50 -64.5t-18.5 -84.5q0 -60 26 -104.5t69 -85.5q-39 -22 -74 -52.5t-62 -67.5t-42.5 -80t-15.5 -88q0 -46 18 -86.5t50 -71.5t74.5 -48.5t93.5 -17.5q49 0 92 15t81 41t71.5 61t65.5 75q33 -37 64.5 -78t61.5 -95q14 0 32 1t44 1q11 0 30 -0.5 t40 -0.5q22 0 43 -0.5t36 -0.5l2 34q-37 1 -66 11t-53 27t-45 39.5t-43 50.5q-19 24 -37.5 46.5t-42.5 51.5q28 36 49 72l42 72q16 28 30.5 46.5t33 30.5t45 19t66.5 11zM295 463h1q47 -38 86 -70.5t73 -62.5t64 -58.5t59 -60.5q-19 -29 -44 -55t-54 -45t-61.5 -30.5 t-66.5 -11.5q-39 0 -72.5 15t-57.5 40t-38 59t-14 72q0 64 34 119t91 89zM371 535q-23 18 -42.5 36t-34 39.5t-23 46t-8.5 56.5q0 24 7 46.5t21 40t34 27.5t44 10q28 0 50.5 -11t37.5 -30.5t23 -44.5t8 -51q0 -60 -31 -99t-86 -66z" />
<glyph unicode="'" horiz-adv-x="312" d="M171 635q3 32 10 81t16 98.5t17 91t12 57.5l-8 9l-123 -24l36 -318z" />
<glyph unicode="(" horiz-adv-x="474" d="M143 368q0 89 13 173t41.5 161t74 145.5t110.5 127.5l-28 32q-77 -57 -133 -130t-93 -155.5t-54.5 -172.5t-17.5 -182t18 -181.5t55 -171.5t93 -153.5t132 -128.5l28 32q-65 58 -110.5 126t-74 144.5t-41.5 160.5t-13 173z" />
<glyph unicode=")" horiz-adv-x="474" d="M332 370q0 -89 -13.5 -173t-42 -161t-74 -145.5t-109.5 -126.5l28 -32q77 57 133 129.5t93 155.5t54.5 173t17.5 181t-18 180.5t-55 172t-93 154.5t-132 129l-28 -32q64 -58 109.5 -126.5t74 -145t42 -160.5t13.5 -173z" />
<glyph unicode="*" horiz-adv-x="904" d="M354 731q-113 113 -261 109q6 -158 109 -254q-89 -13 -131 -80q51 -69 123 -93q-101 -115 -94 -247q154 7 254 102q9 -108 94 -131q55 71 73 138q115 -108 261 -109q1 150 -95 247q102 29 124 109q-64 50 -132 64q106 116 110 254q-169 6 -268 -109q-16 103 -95 124 q-48 -58 -72 -124zM456 608q-61 4 -72 87l57 109q72 -101 15 -196zM347 514q-110 -132 -225 0q68 18 116 44zM643 558q49 -19 80 -36l44 -16q-107 -90 -218 -21q-25 46 72 73h22zM426 542q61 -10 37 -64q-69 -11 -51 58zM492 325q-18 -79 -58 -138q-70 112 -14 218 q57 -13 72 -80z" />
<glyph unicode="+" d="M585 249l5 63h-235v245l-63 -5v-240h-229l-5 -63h234v-244l63 5v239h230z" />
<glyph unicode="," horiz-adv-x="325" d="M77 -136l15 -36q33 12 64 32t54 46.5t37 58.5t14 69q0 24 -7.5 48.5t-22 44.5t-35.5 32.5t-48 12.5q-26 0 -46 -15.5t-20 -43.5q0 -10 4.5 -21.5t15.5 -17.5q36 -2 54.5 -23t18.5 -55q0 -49 -27.5 -81t-70.5 -51z" />
<glyph unicode="-" horiz-adv-x="1072" d="M146 157h890v-2q-5 -4 -7 -10q-4 -4 -9 -10q-3 -5 -7 -10q-3 -5 -8 -11q-3 -5 -8 -10q-3 -5 -7 -11q-4 -4 -8 -10q-4 -4 -7 -12l-9 -9q-3 -5 -8 -11q-3 -5 -7 -10q-3 -5 -8 -11q-3 -5 -8 -10l-7 -10q-3 -6 -9 -10h-890v2q4 4 8 9q3 5 8 11q3 5 7 10q4 4 8 11l7 8l2 2 q3 5 7 11q3 4 8 9l7 12q4 4 8 10q4 4 8 11q4 4 8 9q3 5 8 11q3 5 7 10q4 4 8 11q4 3 8 10z" />
<glyph unicode="." horiz-adv-x="325" d="M86 64q0 -16 6 -31t16.5 -26t24.5 -17t30 -6q15 0 29.5 6t24.5 17t16.5 26t6.5 31t-6.5 30.5t-16.5 25.5t-24.5 17.5t-29.5 6.5q-16 0 -30 -6.5t-24.5 -17.5t-16.5 -25.5t-6 -30.5z" />
<glyph unicode="/" horiz-adv-x="513" d="M61 -124l65 -10l300 1076l-65 11z" />
<glyph unicode="0" d="M342 809q-73 0 -129.5 -30.5t-95 -86.5t-58 -137t-19.5 -182q0 -79 15 -150t47.5 -124.5t83 -85.5t120.5 -32q73 0 129.5 30.5t94.5 86.5t57.5 137t19.5 182q0 78 -15 149.5t-47 125t-82.5 85.5t-120.5 32zM318 758q28 0 58 -19t55.5 -63t42 -118t16.5 -183 q0 -100 -13 -166t-35 -105t-51 -55.5t-61 -16.5q-28 0 -58 18.5t-56 63t-42.5 118t-16.5 183.5q0 100 13.5 166t35 105t51.5 55.5t61 16.5z" />
<glyph unicode="1" d="M96 704l8 -40l187 28v-520q0 -43 -4 -70t-21.5 -42t-52.5 -21t-97 -7l3 -32q27 0 84.5 1t138.5 1t130.5 -1t80.5 -1l2 34q-57 1 -89 7t-47.5 17t-19 28t-3.5 40v477q0 17 0.5 40.5t1.5 49.5t3 53t4 51l-9 7q-64 -28 -138.5 -53.5t-161.5 -46.5z" />
<glyph unicode="2" d="M124 561q6 74 47 119.5t113 45.5q34 0 64.5 -12t53 -33t35.5 -51t13 -68q0 -45 -16 -86.5t-44 -82t-65 -80t-78 -79.5l-220 -214l9 -20h37q26 0 55.5 0.5t58.5 0.5h48h50q25 0 61 -0.5t90 -0.5h135q1 17 4.5 40.5t8 48.5t10.5 50.5t11 47.5l-36 8q-15 -36 -28 -56.5 t-26 -31.5t-26.5 -14t-30.5 -3l-301 -6l191 176q43 38 82 75t69 76.5t47.5 84t17.5 96.5q0 53 -22 93.5t-59.5 68t-84 41.5t-94.5 14q-63 0 -118.5 -18.5t-107.5 -52.5q4 -40 5 -81t1 -93z" />
<glyph unicode="3" d="M75 575l40 -3q5 74 50 115.5t118 41.5q30 0 57.5 -9t48.5 -26.5t33.5 -43.5t12.5 -58q0 -55 -24.5 -92.5t-63 -62.5t-85.5 -39.5t-94 -25.5l9 -43q19 8 43 10t46 2q47 0 86 -12t66.5 -36.5t43.5 -60.5t16 -85q0 -48 -13.5 -88t-38.5 -68.5t-62 -44.5t-83 -16 q-51 0 -101.5 21t-84.5 59h-3q-24 -6 -43 -24.5t-19 -43.5q0 -26 15 -42.5t38 -26t50.5 -13t53.5 -3.5q74 0 147 22.5t131.5 66.5t95.5 108.5t37 150.5q0 41 -15 74.5t-40.5 60t-60.5 45.5t-74 30v3q48 34 75.5 65.5t42 57.5t18 46.5t3.5 32.5q0 48 -22 83t-56.5 59 t-79 35.5t-88.5 11.5q-66 0 -120 -18.5t-112 -52.5q3 -30 4.5 -56t1.5 -60v-47z" />
<glyph unicode="4" d="M394 82v-20q0 -16 -0.5 -40.5t-2.5 -64.5q32 3 56.5 5t52.5 4v178h119l4 71l-11 11l-112 -1v389q0 51 2.5 94.5t7.5 86.5l-45 12q-44 -65 -100.5 -143.5t-118 -161.5t-125.5 -166t-121 -155l16 -37l378 1v-63zM394 223l-300 -5q75 104 148 202t147 190l5 -2v-385z" />
<glyph unicode="5" d="M133 423q10 70 22 133t30 133l348 -8l20 110q-24 0 -52.5 -0.5t-59 -1l-61 -1t-57.5 -0.5q-49 0 -91 1t-84 1q-24 -108 -45.5 -215.5t-33.5 -201.5l14 -12q31 11 71 20t76 9q56 0 101 -16t76 -47t47.5 -75t16.5 -98q0 -45 -12 -85t-36 -71.5t-60.5 -50t-83.5 -18.5 q-25 0 -50 5.5t-49 16t-45 25t-36 34.5h-5q-12 -3 -24 -10t-21 -16t-14.5 -20.5t-5.5 -22.5q0 -28 16 -44.5t39.5 -25t51 -11.5t49.5 -3q77 0 150 24t130 68.5t91 109t34 145.5q0 57 -21.5 105t-59 83.5t-88.5 55.5t-111 20q-16 0 -62 -11t-115 -34z" />
<glyph unicode="6" d="M550 932q-120 -23 -214.5 -76t-161 -131.5t-102 -180t-35.5 -219.5q0 -68 16.5 -130.5t51.5 -110t88 -75.5t124 -28q65 0 118.5 23.5t92 64.5t60 97t21.5 120q0 55 -18.5 101t-52 79t-80 51t-102.5 18q-13 0 -36 -6t-50 -15t-55 -20.5t-49 -24.5q13 75 42 142t77 120 t116.5 92.5t161.5 61.5zM161 418q30 13 70.5 21.5t75.5 8.5q48 0 82.5 -15t57 -42t33.5 -66t11 -86q0 -43 -9 -80.5t-26.5 -65.5t-44.5 -44.5t-65 -16.5q-57 0 -93.5 33.5t-58 83t-29.5 105.5t-8 101q0 16 1 32t3 31z" />
<glyph unicode="7" d="M99 566q6 47 16 73.5t25 39.5t36 16t50 3l276 3q16 0 9 -14q-26 -47 -58 -103t-67 -117.5t-69 -126.5t-64.5 -129t-55 -126t-37.5 -116l7 -11q37 4 65.5 5t46.5 3q15 104 50 207.5t81.5 205t99.5 200t105 191.5l-10 20h-36q-23 0 -50 -0.5t-54 -0.5h-45q-51 0 -138.5 0.5 t-224.5 0.5q3 -53 4 -93.5t1 -77.5v-51z" />
<glyph unicode="8" d="M225 459q-66 -42 -103.5 -79.5t-56.5 -70.5t-24 -60.5t-5 -48.5q0 -55 21.5 -96t58 -68t85 -41t103.5 -14q58 0 112 19t96 54t67 84t25 108q0 88 -54.5 149t-144.5 99q60 39 96 72t55 61t24.5 52t5.5 46q0 37 -15 74.5t-46 67t-76 48t-105 18.5q-57 0 -108 -18.5 t-89.5 -52t-61 -79.5t-22.5 -102q0 -77 44 -131.5t118 -90.5zM273 433q45 -20 85 -41.5t70 -48.5t47.5 -62t17.5 -82q0 -33 -10.5 -63t-30 -53t-48 -36.5t-63.5 -13.5q-43 0 -78 16t-58.5 42.5t-36.5 62t-13 76.5q0 67 30.5 115t87.5 88zM355 519q-44 21 -78 40.5t-57.5 43 t-35.5 53.5t-12 73q0 31 10.5 59t29.5 48.5t47 32.5t63 12q27 0 54 -10t48 -31t35 -53t14 -76q0 -63 -30.5 -111.5t-87.5 -80.5z" />
<glyph unicode="9" d="M485 319q-22 -172 -119.5 -273.5t-279.5 -138.5l11 -49q114 15 208.5 62t162.5 122.5t105 179t37 233.5q0 66 -15 129t-48.5 113t-87 81t-129.5 31q-65 0 -118.5 -22t-92 -61.5t-60 -93.5t-21.5 -119q0 -55 18.5 -102t52 -82t80 -54.5t102.5 -19.5q10 0 29 4t44.5 11.5 t56.5 20t64 28.5zM490 368q-51 -14 -88.5 -20t-61.5 -6q-48 0 -82.5 16.5t-57 45.5t-33.5 69t-11 88q0 43 9 78.5t27.5 61t46 40.5t64.5 15q40 0 70 -17t50.5 -44t34 -62t20.5 -73t10 -75.5t3 -68.5v-25v-11q0 -6 -1 -12z" />
<glyph unicode=":" horiz-adv-x="325" d="M115 64q0 -16 6 -31t16.5 -26t24.5 -17t30 -6q15 0 29.5 6t24.5 17t16.5 26t6.5 31t-6.5 30.5t-16.5 25.5t-24.5 17.5t-29.5 6.5q-16 0 -30 -6.5t-24.5 -17.5t-16.5 -25.5t-6 -30.5zM115 485q0 -16 6 -31t16.5 -26t24.5 -17t30 -6q15 0 29.5 6t24.5 17t16.5 26t6.5 31 t-6.5 30.5t-16.5 25.5t-24.5 17.5t-29.5 6.5q-16 0 -30 -6.5t-24.5 -17.5t-16.5 -25.5t-6 -30.5z" />
<glyph unicode=";" horiz-adv-x="325" d="M115 485q0 -16 6 -31t16.5 -26t24.5 -17t30 -6q15 0 29.5 6t24.5 17t16.5 26t6.5 31t-6.5 30.5t-16.5 25.5t-24.5 17.5t-29.5 6.5q-16 0 -30 -6.5t-24.5 -17.5t-16.5 -25.5t-6 -30.5zM101 -136l15 -36q33 12 64 32t54 46.5t37 58.5t14 69q0 24 -7.5 48.5t-22 44.5 t-35.5 32.5t-48 12.5q-26 0 -46 -15.5t-20 -43.5q0 -10 4.5 -21.5t15.5 -17.5q36 -2 54.5 -23t18.5 -55q0 -49 -27.5 -81t-70.5 -51z" />
<glyph unicode="&#x3c;" horiz-adv-x="467" d="M415 1267l-52 -77l-70 -117q-34 -52 -49 -85l-57 -104l-19 -38l-33 -66q-28 -68 -37 -81l-33 -95l-19 -70l-15 -90q-4 -85 0 -99q0 -66 19 -119q48 -80 114 -122q70 -24 133 4q99 85 127 199q37 71 -38 53q-14 -71 -61 -119q-67 -29 -123 -19q-62 30 -90 81l-4 14l-10 57 v104q19 112 33 155l71 156q14 38 28 62l29 65l19 34q19 42 70 132l72 117q23 30 46 49l15 38l9 56h-9q-42 -38 -66 -75zM356 -246q-21 -70 -30 -90q-12 -26 -28 -39q-14 -11 -93.5 16.5t-79.5 60.5q0 10 7 20t39 85q21 52 47 52q8 0 16 -4q44 -20 87 -41q37 -22 37 -46 q0 -4 -2 -14z" />
<glyph unicode="=" d="M585 354l5 63h-528l-5 -63h528zM585 146l5 63h-528l-5 -63h528z" />
<glyph unicode="&#x3e;" horiz-adv-x="1215" d="M961 -175q-17 -57 -24 -72q-10 -21 -22 -32q-11 -10 -75.5 12.5t-64.5 49.5q0 9 5.5 16.5t32.5 68.5q17 42 38 42q6 0 13 -3q34 -16 69 -34q30 -17 30 -37q0 -3 -2 -11zM745 1218l-13 -7l-40 -25q-317 -334 -270 -753l1 -8l2 -3v-8l2 -15q2 -3 2 -6l2 -4l4 -17l2 -9v-6 q2 -3 2 -6l7 -23l-19 -23l-21 -26l-9 -10l-10 -9l-7 -10l-4 -4q-13 -18 -27 -27q-2 -4 -4 -4q-2 -4 -3 -4q-2 -4 -4 -4q-4 -8 -10 -11l-22 -23l-3 -2l-19 -17l-23 -25l-8 -5l-6 -8l-7 -4l-4 -5l-17 -16l-6 -5l-21 -21l-4 -4l-5 -6l-4 -4l-4 -3q-18 -13 -28 -27l-6 -6l-4 -4 l-19 -15l-2 -4l-6 -3q-7 -9 -13 -14q-10 -13 -19 -21l-2 -11q22 3 36 9l8 4q5 4 9 6l4 4q11 5 19 11l25 13l6 4l15 12l17 9l4 4l4 4l3 2l31 21l17 15l17 11l6 6l6 6l20 13l2 4l19 17l7 6l6 5l7 6q2 4 4 4q7 9 12 13l5 6l12 9q7 10 15 16q7 10 15 17q2 4 4 4l4 5l4 4l5 6l4 4 q2 4 4 3q2 4 4 4l21 28q171 -144 327 4q10 -3 16 -6l4 -2l4 -4l4 -2h5q8 -6 16 -6l23 -8q197 -15 241 189l-2 14q-121 -105 -257 -48q36 68 8 107q-14 -2 -23 -6q-10 -13 -17 -21l-9 -19l-4 -6l-18 -26q-4 -14 -10 -23l-9 -23l-2 -6l-2 -3l-10 -25l-13 -2h-6l-15 -4h-15 q-2 -2 -4 -2h-6h-15q-18 -2 -30 0q-26 -1 -46 6l-23 4l-4 2l-5 2l-25 9l2 6l5 5l2 4l4 4l4 6l4 4q2 3 4 3l22 33q270 343 228 726q-2 3 -2 6l-2 11q-2 3 -2 6q-2 3 -2 5l-5 14q-7 9 -11 17q-24 21 -51 18h-4q-3 -3 -6 -3zM745 1070l2 -4l4 -2l7 -11q6 -8 8 -16 q10 -17 15 -32v-6q3 -18 2 -30v-19q1 -26 -2 -42l-2 -13l-1 -25l-2 -4l-2 -13l-2 -12q-7 -18 -8 -30q-9 -21 -11 -36l-4 -6l-2 -10l-6 -13l-2 -4l-9 -25l-11 -21q-5 -14 -12 -23q-10 -23 -21 -36l-2 -6q-9 -17 -17 -27l-4 -5q-7 -13 -13 -21q-2 -3 -4 -4l-2 -4 q-9 -17 -19 -27q-6 -10 -13 -17l-2 -5l-11 -14q-2 -4 -4 -4l-2 -5l-4 -4l-4 -6l-4 -2l-7 -11l-4 -4q-11 -15 -21 -23l-4 -7l-3 -4l-4 -4q-8 -8 -12 -13q-11 -10 -17 -19q-75 241 17 446v6q8 14 12 24l2 4l2 4l20 34l8 14q3 8 6 13l4 4l7 11q10 18 19 29l2 5l15 18 q7 13 16 19q2 4 3 3q12 16 23 25q23 16 46 21q21 -2 34 -11z" />
<glyph unicode="?" horiz-adv-x="517" d="M290 237q-35 27 -60.5 50t-42.5 44.5t-25 42.5t-8 43q0 28 12.5 51t32 43.5t42.5 38t44 33.5q20 16 38.5 30t31.5 29t21 34.5t8 46.5q0 40 -25.5 63.5t-65.5 23.5q-43 0 -70.5 -20t-52.5 -54h-5q-20 8 -40 25t-20 39q0 24 16 41.5t39 30t48 18.5t43 6q38 0 78.5 -19.5 t74 -51.5t55 -71.5t21.5 -78.5q0 -30 -13 -54t-33 -44.5t-44 -38t-45 -35.5q-20 -15 -35.5 -28t-27 -27t-17.5 -29t-6 -34q0 -34 16 -62.5t44 -56.5zM179 60q0 -31 21.5 -53.5t51.5 -22.5t51.5 22.5t21.5 53.5t-21 53.5t-52 22.5q-30 0 -51.5 -22.5t-21.5 -53.5z" />
<glyph unicode="@" horiz-adv-x="1139" d="M798 555q-36 -8 -70 -12q-16 5 -32.5 8.5t-32.5 3.5q-14 0 -44 -11t-67 -34t-76.5 -57t-72.5 -80.5t-54 -104.5t-21 -128q0 -30 8 -58.5t21.5 -50t31.5 -35t39 -13.5t74.5 42t137.5 137l1 -2q-5 -30 -6.5 -58t-1.5 -45q1 -40 26 -56.5t61 -16.5q83 0 149 36.5t113 95 t71.5 133t24.5 149.5q0 87 -31.5 160.5t-87 127t-131.5 84t-165 30.5q-87 0 -164.5 -21t-144.5 -60.5t-120.5 -95t-91 -122.5t-58 -144t-20.5 -160q0 -106 36 -197t101.5 -158.5t156.5 -105.5t202 -38q77 0 154 20t140 63l-20 37q-49 -28 -110 -41t-118 -13 q-103 0 -186 36.5t-141.5 100.5t-90.5 149.5t-32 184.5q0 104 35 196t98.5 161t154 109t201.5 40q79 0 145.5 -26t115.5 -72t76 -111t27 -142q0 -50 -15 -110t-44.5 -112.5t-74 -87t-105.5 -34.5q-21 0 -35.5 11.5t-14.5 41.5q0 38 6.5 92.5t17.5 115t25.5 123.5t31.5 118z M694 463q-14 -52 -26.5 -113t-22.5 -124q-63 -69 -106.5 -99.5t-62.5 -30.5q-15 0 -24 10.5t-13.5 25t-6 30.5t-1.5 27q0 49 16 101t43 93.5t62 68.5t75 27q19 0 38.5 -5t28.5 -11z" />
<glyph unicode="A" horiz-adv-x="915" d="M656 135q6 -17 9.5 -31t3.5 -24q0 -25 -23 -34t-76 -13l3 -32q40 0 81 1t81 1q49 0 96.5 -1t87.5 -1l3 34q-37 3 -60.5 8t-38.5 17.5t-26.5 36.5t-25.5 66l-214 620q-10 31 -22.5 69.5t-22.5 83.5l-60 -7q-10 -25 -18 -46.5t-19 -49.5l-273 -645q-21 -49 -37 -77.5 t-33.5 -45t-41 -23t-60.5 -9.5l1 -32q35 0 73 1t73 1q43 0 86.5 -1t79.5 -1l3 34q-60 3 -83.5 12.5t-23.5 34.5q0 20 19 68l73 188h317zM443 770h2l125 -377h-277z" />
<glyph unicode="B" horiz-adv-x="806" d="M54 914l-2 -35q41 -2 66 -6.5t37.5 -14.5t16.5 -25.5t4 -37.5v-641q0 -36 -4.5 -58.5t-17.5 -35.5t-38 -19t-65 -9l3 -32q15 0 35 0.5t42 0.5t43.5 0.5t40.5 0.5q43 0 95 -6t94 -6q69 0 134 15t116 47.5t82.5 83.5t31.5 124q0 101 -58.5 161.5t-164.5 77.5v3q28 9 59 24 t57 38.5t43 58.5t17 84q0 60 -24.5 101t-67 66t-97.5 36t-115 11q-52 0 -100 -4.5t-86 -4.5q-24 0 -48.5 0.5t-48.5 0.5q-23 0 -44 0.5t-36 0.5zM286 464h77q61 0 110.5 -12.5t85.5 -40t56 -69.5t20 -100q0 -99 -60.5 -149.5t-160.5 -50.5q-45 0 -70 4t-38 15.5t-16.5 32 t-3.5 52.5v318zM286 808q0 15 1.5 27t10 20t28 12.5t53.5 4.5q66 0 107.5 -16.5t65 -42t32.5 -57.5t9 -64q0 -89 -55 -134t-173 -45h-79v295z" />
<glyph unicode="C" horiz-adv-x="964" d="M197 474q0 91 25 167t74 129.5t121.5 83.5t167.5 30q49 0 90 -13t72 -40t49.5 -68.5t21.5 -97.5l40 4q0 61 1.5 115.5t7.5 115.5q-57 15 -123 24t-124 9q-112 0 -213.5 -30t-178 -91t-121 -152t-44.5 -213q0 -106 37 -192t103 -146.5t157 -94t199 -33.5q74 0 147.5 12.5 t149.5 34.5q7 63 16 118t25 118l-38 9q-25 -60 -50 -104t-59 -75q-36 -32 -83 -46.5t-99 -14.5q-94 0 -163.5 35t-115.5 94.5t-69 140t-23 171.5z" />
<glyph unicode="D" horiz-adv-x="1027" d="M50 915l-1 -36q43 -2 68.5 -6t38 -14t16.5 -26t4 -42v-637q0 -36 -4.5 -58.5t-17.5 -35.5t-38 -19t-65 -9l3 -32q15 0 35 0.5t42 0.5t43.5 0.5t40.5 0.5q49 0 104 -6t104 -6q109 0 207.5 33.5t172.5 98.5t118 159t44 216q0 118 -44.5 199.5t-118 131.5t-168.5 72t-198 22 q-49 0 -102.5 -5t-102.5 -5t-97.5 1t-83.5 1v1zM286 828q0 9 11 16.5t30 14t45 10.5t56 4q87 0 161 -26t128.5 -77t85.5 -126.5t31 -176.5q0 -99 -30 -178t-84.5 -134t-130 -84t-167.5 -29q-51 0 -79 9.5t-40.5 26.5t-14.5 40.5t-2 50.5v659z" />
<glyph unicode="E" horiz-adv-x="776" d="M286 442q71 -2 155.5 -5t170.5 -11l2 79l-7 7l-321 -10v330q0 24 8 29.5t36 5.5h136q49 0 79.5 -8t49.5 -27.5t29.5 -52t18.5 -81.5l38 1q1 60 4 113t9 102q-184 0 -303 -1t-156 -1q-23 0 -48 0.5t-50 0.5q-24 0 -45.5 0.5t-36.5 0.5l-3 -35q41 -2 65.5 -6.5t37 -14.5 t17 -25.5t4.5 -37.5v-641q0 -36 -4.5 -58.5t-19 -35t-41 -19t-70.5 -9.5l3 -32q13 0 35.5 0.5t47.5 0.5t49.5 0.5t43.5 0.5q58 0 176 -1t306 -1q1 17 5 43.5t9.5 57t12.5 62t14 59.5l-37 8q-22 -51 -40.5 -86.5t-42 -56.5t-58.5 -30t-90 -9h-71q-39 0 -62 4.5t-36 16.5 t-16.5 33t-3.5 53v287z" />
<glyph unicode="F" horiz-adv-x="708" d="M48 914l-3 -35q44 -2 70 -6.5t39 -14.5t17.5 -25.5t4.5 -37.5v-641q0 -35 -4.5 -57.5t-18 -35.5t-38 -19.5t-64.5 -9.5l3 -32q13 0 33.5 0.5t43.5 0.5q24 0 47 0.5t42 0.5q23 0 54 -0.5t62 -0.5t59 -0.5t43 -0.5l2 34q-53 1 -84 6.5t-46.5 15.5t-19.5 26t-4 39v301 q71 -2 148.5 -5.5t163.5 -11.5l2 80l-7 7l-307 -10v350q0 24 8 29.5t36 5.5h122q49 0 79 -8t49.5 -28t29.5 -53.5t19 -83.5l38 1q1 60 4 115t8 104q-186 0 -296.5 -1t-147.5 -1q-23 0 -47.5 0.5t-50.5 0.5q-25 0 -48 0.5t-41 0.5z" />
<glyph unicode="G" horiz-adv-x="1009" d="M878 666q0 61 0.5 115t6.5 115q-29 8 -63.5 14t-70 11.5t-71 8.5t-64.5 3q-116 0 -217 -30t-176 -91t-118.5 -152t-43.5 -213q0 -106 38 -192t106 -146.5t162 -94t205 -33.5q75 0 155.5 16t157.5 37q-5 27 -6 69.5t-1 87.5v61q0 35 3.5 57.5t13.5 36t27 19t45 8.5l-3 32 q-14 0 -32 -0.5t-38 -0.5h-41h-40h-47h-53t-54 0.5t-50 0.5l-2 -34q52 -2 84 -6.5t49.5 -14.5t23 -25.5t5.5 -38.5v-188q0 -19 -24.5 -31.5t-56.5 -20t-63 -10.5t-44 -3q-97 0 -170 35t-120.5 94.5t-71.5 140t-24 171.5t23.5 167t71 129.5t120 83.5t170.5 30 q52 0 97.5 -13.5t80 -41t56 -69t24.5 -98.5z" />
<glyph unicode="H" horiz-adv-x="1080" d="M286 509v250q0 35 3.5 58t16 36t34.5 19t59 9l-3 33h-32q-19 0 -40.5 -0.5t-43.5 -0.5h-40q-23 0 -48.5 0.5t-50.5 0.5q-24 0 -45.5 0.5t-36.5 0.5l-2 -35q40 -2 64 -6.5t35.5 -14.5t15.5 -25.5t4 -37.5v-641q0 -36 -4.5 -58.5t-16.5 -35t-34.5 -19t-59.5 -9.5l2 -32 q13 0 32 0.5t40 0.5q22 0 44 0.5t40 0.5q23 0 48.5 -0.5t50 -1t45.5 -1t37 -0.5l2 34q-40 2 -63 7t-35 15t-15 25t-3 38v334h509v-299q0 -36 -4 -58.5t-16.5 -35t-34 -19t-59.5 -9.5l3 -32q13 0 32 0.5t40 0.5t42 0.5t40 0.5q23 0 49 -0.5t50 -0.5q25 0 47 -0.5t37 -0.5 l2 34q-40 2 -64 7t-35.5 15t-15.5 25t-4 38v640q0 35 4.5 58t16.5 36t34.5 19t59.5 9l-2 33q-13 0 -32 -0.5t-41 -0.5q-21 0 -43 -0.5t-40 -0.5q-23 0 -48.5 0.5t-50.5 0.5q-24 0 -45 0.5t-37 0.5l-1 -35q40 -2 62.5 -6.5t34.5 -14.5t15.5 -25.5t3.5 -37.5v-286h-509z" />
<glyph unicode="I" horiz-adv-x="461" d="M61 0q13 0 32.5 0.5t41.5 0.5t44 0.5t41 0.5q23 0 48.5 -0.5t50.5 -0.5q26 0 48 -0.5t37 -0.5l2 34q-40 2 -63.5 7t-36.5 15t-16.5 25t-3.5 38v641q0 35 4.5 57.5t18 35.5t36 19t59.5 9l-2 33q-13 0 -33 -0.5t-42 -0.5t-44 -0.5t-40 -0.5q-23 0 -49.5 0.5t-51.5 0.5 t-47 0.5t-37 0.5l-2 -35q39 -2 63 -6.5t36.5 -14.5t16.5 -25.5t4 -37.5v-641q0 -36 -4.5 -58.5t-17.5 -35t-36 -19t-60 -9.5z" />
<glyph unicode="J" horiz-adv-x="437" d="M49 914l-1 -35q39 -2 62.5 -6.5t36.5 -14.5t16.5 -25.5t3.5 -37.5v-791v-59.5t-3 -56.5t-9.5 -50.5t-19.5 -39.5q-11 -16 -28.5 -22t-35.5 -6q-32 0 -61.5 15.5t-47.5 31.5h-3q-22 -5 -40.5 -20t-18.5 -38q0 -19 9 -32t23.5 -21.5t31 -11.5t32.5 -3q54 0 103.5 19.5 t85.5 59.5q43 46 68.5 114t25.5 161v28q0 24 -0.5 58t-0.5 75q0 43 -0.5 85t-0.5 83v73v311q0 35 4.5 58t18.5 36t38 19t62 9l-3 33h-36q-20 0 -42.5 -0.5t-45.5 -0.5h-40q-23 0 -49 0.5t-51 0.5t-47 0.5t-37 0.5z" />
<glyph unicode="K" horiz-adv-x="944" d="M404 914q-13 0 -33.5 -0.5t-43.5 -0.5q-22 0 -44 -0.5t-40 -0.5q-23 0 -49.5 0.5t-52.5 0.5t-49 0.5t-38 0.5l-2 -35q41 -2 66 -6.5t37.5 -14.5t16.5 -25.5t4 -37.5v-641q0 -36 -4.5 -58.5t-17 -35t-36.5 -19t-64 -9.5l3 -32q13 0 33 0.5t43 0.5t45.5 0.5t41.5 0.5 q23 0 49 -0.5t52 -0.5t48 -0.5t37 -0.5l2 34q-41 2 -65 7t-37 15t-16.5 25t-3.5 38v323q11 3 21 2q16 0 32 -9t35 -31q30 -35 63 -74.5t67.5 -80t66 -79l58.5 -71.5t46 -59t26 -40q13 1 28 1.5t29 0.5q43 0 86 -1t79 -1l2 34q-32 3 -53 8t-39 16t-37.5 29t-48.5 47 q-26 27 -64.5 71t-82.5 96t-89.5 107t-85.5 105q36 37 74.5 75.5t73 74.5t64.5 65.5t51 48.5q29 27 54.5 45t51.5 30.5t54 19t63 9.5l-3 33q-13 0 -34 -0.5t-46 -0.5q-24 0 -48 -0.5t-42 -0.5q-21 0 -45.5 0.5t-48.5 0.5q-23 0 -43.5 0.5t-34.5 0.5l-2 -34q39 -2 59.5 -7.5 t27.5 -15.5t0.5 -23.5t-19.5 -30.5q-24 -30 -54.5 -63.5t-63 -68.5t-66 -68.5t-63.5 -60.5q-28 -25 -50 -36.5t-49 -16.5v271q0 35 4.5 57.5t18 35.5t36.5 19t61 9z" />
<glyph unicode="L" horiz-adv-x="742" d="M406 914q-13 0 -33.5 -0.5t-43.5 -0.5t-45.5 -0.5t-40.5 -0.5q-23 0 -49.5 0.5t-52.5 0.5t-48.5 0.5t-37.5 0.5l-3 -35q41 -2 65.5 -6.5t37 -14.5t17 -25.5t4.5 -37.5v-641q0 -36 -4.5 -58.5t-18 -35t-38 -19t-63.5 -9.5l3 -32q13 0 33.5 0.5t43.5 0.5t46 0.5t42 0.5h33 q18 0 42 -0.5t56 -0.5t78 -0.5t109 -0.5h144q1 17 5 43.5t9.5 57t12.5 62t14 59.5l-36 8q-22 -51 -40 -86.5t-42 -56.5t-59.5 -30t-90.5 -9h-51q-39 0 -62 4.5t-36 16.5t-16.5 33t-3.5 53v604q0 35 4.5 58t18 36t37.5 19t63 9z" />
<glyph unicode="M" horiz-adv-x="1210" d="M31 914l-1 -35q36 -2 63.5 -8.5t45.5 -24.5q10 -10 17 -22.5t10.5 -30t4.5 -42t0 -58.5l-20 -492q-2 -57 -7.5 -89.5t-20 -48.5t-39 -21.5t-63.5 -9.5l3 -32q33 0 72.5 1t75.5 1q46 0 81 -1t66 -1l2 34q-36 3 -59 7.5t-35.5 17t-16 38t-2.5 70.5l19 548l4 2 q84 -184 165.5 -364t162.5 -366l45 5q81 195 162.5 386t165.5 383l3 -3l17 -604q1 -35 -1.5 -57.5t-13.5 -35.5t-31.5 -19.5t-54.5 -9.5l3 -32q13 0 31 0.5t38 0.5t40.5 0.5t39.5 0.5q23 0 48.5 -0.5t50.5 -0.5q26 0 48.5 -0.5t40.5 -0.5l1 34q-42 2 -67 7t-38.5 15t-19 25 t-6.5 38l-20 640q-1 35 3 58t17 36t38.5 19t67.5 9l-2 33q-13 0 -44.5 -0.5t-67.5 -0.5q-35 0 -69 -0.5t-52 -0.5q-15 -37 -30.5 -75t-31.5 -75l-264 -612h-3l-269 600q-18 41 -35.5 81t-34.5 81q-26 0 -61.5 0.5t-69.5 0.5t-62.5 0.5t-39.5 0.5z" />
<glyph unicode="N" horiz-adv-x="1044" d="M888 -4v716q0 57 5.5 89.5t19.5 48.5t38 21.5t61 9.5l-1 33q-13 0 -31 -0.5t-37.5 -1t-39.5 -1t-38 -0.5q-46 0 -87.5 1t-72.5 1l-2 -35q39 -3 64 -7t39 -17t19.5 -38t5.5 -70v-551l-3 -2l-609 719q-26 0 -55.5 0.5t-56.5 0.5q-28 0 -50.5 0.5t-33.5 0.5l-2 -35 q27 -2 45 -4.5t30 -8.5t22 -14.5t19 -20.5q10 -11 15.5 -22t9 -26.5t4.5 -40t1 -64.5v-477q0 -57 -6 -89.5t-20.5 -48.5t-39.5 -21.5t-63 -9.5l3 -32q33 0 72.5 1t75.5 1q46 0 87.5 -1t71.5 -1l2 34q-39 3 -63 7.5t-38.5 17t-19.5 38t-5 70.5v556l3 2l510 -604 q28 -33 52.5 -66t48.5 -68z" />
<glyph unicode="O" horiz-adv-x="1067" d="M534 933q-106 0 -192.5 -36.5t-148.5 -101t-96 -153.5t-34 -195q0 -107 34.5 -193t97 -146.5t149 -93.5t190.5 -33q106 0 192.5 36t148 101t96 154t34.5 194q0 107 -35 193t-96.5 147t-148.5 94t-191 33zM528 881q61 0 122.5 -22t111 -75t81 -139.5t31.5 -214.5 q0 -108 -28 -184t-74 -123.5t-106.5 -69t-125.5 -21.5q-61 0 -122.5 22.5t-111 75.5t-81 139.5t-31.5 213.5q0 108 27.5 184t74 123.5t106.5 69t126 21.5z" />
<glyph unicode="P" horiz-adv-x="766" d="M286 388q18 -8 48 -12.5t66 -4.5q60 0 120 18t108.5 54.5t79 90.5t30.5 127q0 72 -28 122.5t-74 81t-107.5 43.5t-128.5 13q-43 0 -87 -4.5t-78 -4.5q-23 0 -47.5 0.5t-48.5 0.5t-44.5 0.5t-35.5 0.5l-2 -35q40 -2 64 -6.5t35.5 -14.5t15.5 -25.5t4 -37.5v-641 q0 -36 -4.5 -58.5t-16.5 -35t-34.5 -19t-59.5 -9.5l2 -32q13 0 32 0.5t40 0.5q22 0 44 0.5t40 0.5q46 0 102 -1t107 -1l2 34q-52 1 -81 6.5t-43.5 16t-17 26t-2.5 38.5v267zM286 800q0 20 2.5 33.5t12.5 21.5t29 12t53 4q107 0 166 -53t59 -161q0 -68 -21 -112.5t-53 -72 t-71 -38.5t-76 -11q-30 0 -55 3t-46 10v364z" />
<glyph unicode="Q" horiz-adv-x="1066" d="M534 933q-106 0 -192.5 -36.5t-148.5 -101t-96 -153t-34 -194.5q0 -92 26.5 -168.5t74.5 -135t114.5 -97.5t146.5 -56q31 -7 66 -20t80 -36t102 -57.5t133 -84.5q43 -29 78.5 -49t67 -33t61 -18.5t60.5 -5.5q60 0 126.5 27t154.5 82l-17 32q-49 -19 -89.5 -30t-83.5 -11 q-34 0 -70.5 6t-77.5 19t-88.5 32.5t-105.5 47.5q-51 24 -104.5 48t-108.5 46l2 6q86 14 158 55.5t124.5 103.5t82 142.5t29.5 173.5q0 107 -35 192.5t-96.5 146.5t-148.5 94t-191 33zM528 881q61 0 122.5 -22t111 -74.5t81 -139t31.5 -214.5q0 -108 -27 -184t-71.5 -123 t-104 -68.5t-125.5 -21.5q-61 0 -123.5 22.5t-113 75t-83 139t-32.5 213.5q0 108 27.5 184t74 123t106.5 68.5t126 21.5z" />
<glyph unicode="R" horiz-adv-x="870" d="M286 423q15 -1 26 -1h18h29q22 0 35 -3t21 -8.5t13.5 -13t11.5 -16.5q36 -62 69 -122t61 -111t48 -89.5t29 -58.5q13 1 29 1.5t29 0.5q43 0 89 -1t75 -1l2 34q-33 3 -54 7t-37 12t-29 22.5t-32 39.5q-13 19 -33.5 52.5t-45.5 77.5t-54.5 97.5t-60.5 111.5q41 15 75 39.5 t58.5 56t38.5 71t14 82.5q0 66 -28.5 108.5t-75 67t-103.5 34t-114 9.5q-40 0 -78.5 -5t-76.5 -5q-23 0 -47.5 0.5t-48.5 0.5t-44.5 0.5t-35.5 0.5l-2 -35q40 -2 64 -6.5t35.5 -14.5t15.5 -25.5t4 -37.5v-641q0 -36 -4.5 -58.5t-16.5 -35t-34.5 -19t-59.5 -9.5l2 -32 q13 0 32 0.5t40 0.5q22 0 44 0.5t40 0.5q46 0 95.5 -1t94.5 -1l2 34q-45 1 -69.5 6.5t-37.5 16t-15.5 26t-2.5 38.5v302zM286 791q0 19 1.5 34t9.5 25.5t24.5 16t45.5 5.5q97 0 155.5 -45t58.5 -142q0 -115 -61 -166.5t-174 -51.5h-30q-8 0 -15.5 0.5t-14.5 1.5v322z" />
<glyph unicode="S" horiz-adv-x="672" d="M80 266l-40 -10q16 -63 25.5 -118t16.5 -118q63 -18 119 -28.5t108 -10.5q60 0 117 18t101 53t70.5 85t26.5 114q0 58 -22.5 101t-59.5 75.5t-83 56t-92 43.5q-37 16 -70.5 33t-59.5 39.5t-40.5 53.5t-14.5 77q0 34 12 61.5t32.5 47.5t49.5 30.5t63 10.5q89 0 142 -50 t61 -151l40 4q0 30 0.5 56.5t1 52t2.5 51.5t5 56q-58 15 -109 24.5t-111 9.5q-62 0 -116.5 -16.5t-96 -48t-65.5 -77.5t-24 -106q0 -56 21.5 -97t56 -72.5t77.5 -54t86 -41.5q38 -17 74.5 -35.5t65 -42.5t45.5 -57.5t17 -79.5q0 -37 -13.5 -68t-37 -54t-55 -35.5 t-68.5 -12.5q-56 0 -96 17.5t-70 48.5t-51.5 73.5t-40.5 91.5z" />
<glyph unicode="T" horiz-adv-x="835" d="M416 912q-33 0 -77.5 0.5t-95.5 0.5t-106.5 0.5t-112.5 0.5q5 -50 6 -89.5t1 -82.5v-60l37 -2q9 51 19 86.5t30 58t53 32t86 9.5h106v-712q0 -36 -4.5 -58.5t-18 -35.5t-40 -19t-70.5 -9l3 -32q18 0 41 0.5t46 0.5t45 0.5t41 0.5q23 0 49.5 -0.5t52.5 -0.5q27 0 52 -0.5 t45 -0.5l2 34q-47 2 -74 7t-40 15t-17 25t-4 38v747h109q53 0 85.5 -9.5t51.5 -32t29 -57.5t18 -87l36 2q0 32 0.5 60t2 55t4 55t5.5 62q-57 0 -113.5 -0.5t-108.5 -0.5q-51 0 -96.5 -0.5t-77.5 -0.5z" />
<glyph unicode="U" horiz-adv-x="996" d="M270 754q0 35 5.5 58.5t19.5 37.5t40 20.5t67 9.5l-3 33q-16 0 -37.5 -0.5t-45.5 -0.5t-47 -0.5t-43 -0.5q-24 0 -51 0.5t-53 0.5t-49.5 0.5t-40.5 0.5l-2 -35q43 -2 69 -7.5t39.5 -16.5t18 -27t4.5 -39v-508q0 -76 27.5 -132.5t73.5 -93.5t106 -55t126 -18 q67 0 131 18.5t115 60t82.5 106t31.5 158.5v402q0 51 5.5 81t21 45t42 20t68.5 9l-1 33q-30 0 -76 -1.5t-88 -1.5q-51 0 -98.5 1t-80.5 1l-2 -35q47 -3 76.5 -8.5t46 -19.5t23 -40t6.5 -68v-399q0 -77 -21.5 -132t-58 -89.5t-83 -50.5t-97.5 -16q-50 0 -98 15t-85.5 46 t-60.5 80t-23 117v441z" />
<glyph unicode="V" horiz-adv-x="915" d="M340 914q-40 0 -81.5 -1t-81.5 -1q-49 0 -97 1t-88 1l-2 -35q37 -3 60 -8t38.5 -18t27 -36.5t26.5 -64.5q71 -193 141.5 -382.5t139.5 -383.5l58 5q72 187 145 368t147 367q20 49 34 78t31.5 45.5t40.5 22.5t60 9l-3 33q-35 0 -72.5 -1t-72.5 -1q-43 0 -87 1t-79 1 l-2 -35q31 -2 52.5 -4.5t33.5 -8t17.5 -13.5t5.5 -20t-5 -28.5t-12 -38.5l-233 -616h-2l-223 629q-6 17 -9 30.5t-3 24.5q0 25 21.5 33.5t76.5 13.5z" />
<glyph unicode="W" horiz-adv-x="1308" d="M453 156l-195 623q-5 17 -8.5 30t-3.5 24q0 25 22 34t77 14l-3 33q-40 0 -80.5 -1t-80.5 -1q-49 0 -97 1t-88 1l-2 -35q37 -3 60 -7.5t38.5 -17.5t27 -37t25.5 -65q66 -193 128.5 -382.5t125.5 -383.5l55 4q20 55 46.5 125t55 142.5t57 143t52.5 126.5q41 -125 87 -264 t92 -277l57 4q67 187 130.5 369t132.5 368q18 49 32.5 78.5t33 45t42.5 21.5t61 9l-3 33q-35 0 -72.5 -1t-72.5 -1q-43 0 -87 1t-86 1l-2 -35q66 -4 91 -13t25 -33q0 -22 -16 -68l-208 -609h-2l-195 623q-10 36 -10 53q0 26 23.5 35t82.5 14l-3 33q-40 0 -80 -1t-80 -1 q-49 0 -97 1t-88 1l-2 -35q34 -3 55 -7.5t36 -17.5t26 -37t24 -65l46 -140l-183 -456h-2z" />
<glyph unicode="X" horiz-adv-x="919" d="M317 31q-55 5 -77 13t-22 25q0 10 6.5 23t20.5 32l190 279l203 -297q18 -27 18 -41t-21 -21.5t-77 -12.5l4 -31q14 0 36 0.5t47 0.5q26 0 51 0.5t47 0.5q24 0 50 -0.5t51 -0.5t47.5 -0.5t39.5 -0.5l2 34q-40 2 -65.5 7t-45.5 18t-39 36.5t-45 62.5l-233 338l178 246 q27 37 46.5 62.5t40.5 41.5t46.5 23.5t64.5 9.5l-2 35q-30 0 -59.5 -1t-73.5 -1t-87.5 1t-73.5 1l-3 -33q49 -5 68.5 -12.5t19.5 -22.5q0 -10 -7 -23.5t-21 -32.5l-169 -247l-180 264q-19 28 -19 41t18.5 20.5t70.5 12.5l-3 33q-30 0 -75.5 -1t-89.5 -1q-22 0 -47.5 0.5 t-51.5 0.5t-48 0.5t-37 0.5l-1 -35q39 -2 62 -6.5t41 -17t35 -35t42 -59.5l212 -309l-197 -275q-28 -38 -49 -64t-43.5 -43.5t-49.5 -25.5t-67 -10l2 -34q33 0 65.5 1t80.5 1q44 0 91.5 -1t76.5 -1z" />
<glyph unicode="Y" horiz-adv-x="827" d="M362 154q0 -36 -4.5 -58.5t-18 -35.5t-40 -19t-70.5 -9l3 -32q18 0 41 0.5t46 0.5t45 0.5t41 0.5q23 0 49.5 -0.5t52.5 -0.5q27 0 52 -0.5t45 -0.5l2 34q-47 2 -74 7t-40 15t-17 25t-4 38v188q0 24 0.5 40.5t5.5 35t15 42t30 62.5q20 40 55.5 102.5t83.5 143.5 q27 45 45.5 72.5t37.5 43.5t43.5 22.5t61.5 9.5l-3 33q-35 0 -72.5 -1t-73.5 -1q-43 0 -81.5 1t-74.5 1l-2 -35q54 -4 76 -12t22 -26q0 -13 -8.5 -31.5t-23.5 -46.5l-167 -302l-174 318q-11 22 -17.5 37.5t-6.5 26.5q0 17 19.5 25.5t70.5 12.5l-3 33q-40 0 -81.5 -1 t-81.5 -1q-49 0 -96.5 1t-87.5 1l-2 -35q37 -3 61 -9t41.5 -19.5t33 -37t37.5 -60.5q56 -93 93 -158t62 -111q19 -34 29.5 -57t16 -42.5t6.5 -39t1 -46.5v-145z" />
<glyph unicode="Z" horiz-adv-x="864" d="M48 15l8 -15h27q20 0 46 0.5t55 0.5q30 0 57 0.5t49 0.5h35q25 0 71.5 -0.5t106.5 -0.5q63 0 136.5 -0.5t154.5 -0.5q2 33 14 95.5t35 135.5l-37 10q-24 -57 -51.5 -94.5t-58.5 -58.5t-65.5 -29.5t-73.5 -8.5h-346l71 101q8 10 30.5 43t56 81t74 106.5t84 120.5 t86.5 123.5t81 115t68 94.5t47 63l-11 16h-31q-21 0 -49 -0.5t-59 -0.5q-30 0 -59 -0.5t-51 -0.5h-32q-19 0 -60 0.5t-98 0.5q-55 0 -119.5 0.5t-130.5 0.5q3 -34 4.5 -61.5t2.5 -54t1 -54.5v-62l36 -2q11 64 24.5 101t36.5 56t58 23.5t92 4.5h282l-68 -99q-9 -12 -32 -45 t-55 -80t-72.5 -104.5t-83 -119t-85.5 -122.5t-81.5 -114.5t-69.5 -96.5t-51 -69z" />
<glyph unicode="[" horiz-adv-x="474" d="M115 -249h248l3 36q-59 5 -92 10t-49.5 18.5t-20 37.5t-3.5 66v900q0 42 3.5 66.5t20 37.5t49.5 18.5t92 10.5l-3 36h-248v-1237z" />
<glyph unicode="\" horiz-adv-x="513" d="M453 -124l-65 -10l-300 1076l65 11z" />
<glyph unicode="]" horiz-adv-x="474" d="M359 987l-247 1l-4 -36q59 -5 92.5 -10.5t49.5 -18.5t20 -37.5t4 -66.5v-900q0 -42 -4 -66t-20 -37.5t-49.5 -18.5t-92.5 -10l4 -36l247 -1v1237z" />
<glyph unicode="^" d="M348 923l257 -523l-61 -7l-219 463h-2l-220 -463l-61 7l258 518z" />
<glyph unicode="_" horiz-adv-x="974" d="M0 -163v-62h975v62h-975z" />
<glyph unicode="`" horiz-adv-x="666" d="M360 617l-3 -6l-33 -6l-148 233l5 11l100 8z" />
<glyph unicode="a" horiz-adv-x="590" d="M373 307q-77 -8 -132.5 -21.5t-89.5 -26.5q-46 -19 -74 -54t-28 -83q0 -29 10 -54t29 -44.5t44.5 -31t56.5 -11.5q27 0 56.5 10.5t55 24.5t45.5 27t30 20q10 -44 38 -62t61 -18q32 0 64 13.5t54 33.5l-17 26q-27 -16 -50 -16q-26 0 -40 21t-14 58q0 91 2 166t2 132 q0 42 -12.5 70t-35.5 44.5t-55.5 23t-73.5 6.5q-5 0 -33.5 -7.5t-61.5 -21.5q-25 -10 -49 -24t-43.5 -29.5t-31 -31.5t-11.5 -31q0 -20 19.5 -30t40.5 -10q27 0 42 12q0 23 6.5 43.5t19 36t32 25t47.5 9.5q51 0 74.5 -31.5t23.5 -80.5v-45v-21q0 -10 -1 -17zM371 108 q-28 -25 -61 -39t-64 -14q-43 0 -63 27.5t-20 67.5q0 33 24 55q15 14 37 24.5t46.5 17t50.5 11t52 7.5q0 -40 -1 -78.5t-1 -78.5z" />
<glyph unicode="b" horiz-adv-x="687" d="M207 1029q-20 -9 -46 -17.5t-53 -16.5t-53.5 -14t-48.5 -10l4 -28q31 -5 49 -9.5t28 -14t13 -26.5t3 -44v-662v-52q0 -18 -0.5 -44.5t-1.5 -62.5q49 -25 99.5 -36t99.5 -11q69 0 130 22t106.5 62.5t73 98t27.5 128.5q0 55 -20 104t-55 86t-83 58t-104 21q-11 0 -29 -4 t-40.5 -12t-48.5 -19.5t-52 -24.5v294q0 17 1 45.5t2 60.5t3.5 63.5t5.5 56.5zM205 453q30 13 53.5 20.5t55.5 7.5q49 0 87.5 -16.5t65 -45.5t40.5 -69.5t14 -88.5q0 -44 -11 -85.5t-33.5 -74t-57.5 -52t-81 -19.5q-27 0 -51 7.5t-42.5 19.5t-29 27.5t-10.5 32.5v336z" />
<glyph unicode="c" horiz-adv-x="555" d="M511 146q-26 -40 -67.5 -59t-87.5 -19q-49 0 -86.5 19.5t-63 51.5t-39.5 75t-14 90q0 37 10.5 71.5t30.5 61t50 43t70 16.5q43 0 75.5 -17t67.5 -54h5q30 15 43.5 34t13.5 36q0 10 -5.5 21t-18.5 18q-30 16 -62 21.5t-64 5.5q-65 0 -123 -23.5t-102 -65.5t-70 -98 t-26 -122q0 -54 19 -103t53 -86t81.5 -59.5t104.5 -22.5q34 0 68.5 9.5t65.5 27.5t56.5 44t42.5 59z" />
<glyph unicode="d" horiz-adv-x="697" d="M583 1029q-9 -3 -29 -8.5t-49 -11.5t-63.5 -12.5t-69.5 -12.5l3 -27q35 -6 55.5 -10.5t31.5 -13.5t14 -24.5t3 -42.5v-316q-28 7 -56.5 9t-41.5 2q-69 0 -129 -23t-105 -65t-71.5 -100t-26.5 -127q0 -51 19.5 -99.5t52.5 -85t78.5 -58.5t96.5 -22q12 0 37 7.5t52 20 t52.5 27t41.5 28.5q0 -22 -1 -37t-3 -33l9 -7q10 3 31.5 7.5t49 10t59.5 11.5t62 11l-4 26q-34 5 -54.5 9.5t-31 13t-13 24t-2.5 43.5v651q0 17 0.5 45.5t2 61t4 64.5t5.5 56zM479 111q-24 -20 -56 -34t-72 -14q-45 0 -79.5 18t-58.5 48.5t-35.5 71t-11.5 85.5 q0 44 10.5 84.5t32.5 72t55.5 50.5t79.5 19q37 0 73 -14.5t62 -43.5v-343z" />
<glyph unicode="e" horiz-adv-x="574" d="M505 133q-39 -39 -74 -52t-74 -13q-36 0 -73.5 13.5t-67 43t-49 76t-19.5 112.5h359q22 0 27 26q1 4 1 13v13q0 45 -17 81t-46 62t-67.5 39.5t-80.5 13.5q-53 0 -104 -23t-89.5 -64t-61.5 -95.5t-23 -118.5q0 -57 19.5 -108t55 -89t85 -60t108.5 -22q14 0 39 4.5t54.5 18 t62 38t62.5 64.5zM151 356q6 37 21 66t34.5 49t42.5 30.5t46 10.5q30 0 53.5 -9.5t39.5 -26.5t25 -40t9 -49q0 -17 -6 -24t-25 -7h-240z" />
<glyph unicode="f" horiz-adv-x="396" d="M397 479l3 48l-8 7l-157 -3v184q0 28 0.5 57.5t5 57t13 51.5t24.5 40q13 13 30.5 19.5t36.5 6.5q34 0 68.5 -16.5t58.5 -38.5h3q27 10 42.5 23.5t15.5 43.5q0 19 -11.5 32t-27.5 20t-34.5 10t-33.5 3q-57 0 -106.5 -19t-89.5 -59q-46 -46 -71.5 -112.5t-25.5 -155.5v-149 l-93 -7l-4 -37l7 -6h90v-331q0 -35 -3 -57t-13 -34.5t-29 -18t-50 -8.5l3 -30q27 0 64 1t74 1q23 0 48 -0.5t49 -0.5t45 -0.5t36 -0.5l3 35q-40 1 -64.5 4t-37.5 10t-18 21.5t-5 37.5v371h162z" />
<glyph unicode="g" horiz-adv-x="649" d="M64 336q0 -64 26.5 -110t77.5 -72q-20 -25 -42 -45.5t-50 -42.5q-7 -5 -9.5 -13t-2.5 -17q0 -20 8.5 -36t22 -29t32.5 -22.5t39 -17.5q-28 -23 -54.5 -45t-51.5 -48q-13 -14 -23 -41.5t-10 -53.5q0 -46 22.5 -79.5t58.5 -56t79 -33.5t84 -11q67 0 131.5 20.5t114.5 58 t81 90.5t31 119q0 49 -19 81.5t-50 51t-69 25.5t-76 7q-35 0 -75.5 -1.5t-77.5 -1.5q-13 0 -31 3t-33 9t-25.5 16t-10.5 24q0 6 4.5 15.5t12.5 19.5t18.5 19.5t21.5 14.5q22 -5 40 -6.5t37 -1.5q42 0 85 14.5t79 43.5t58.5 72t22.5 99q0 61 -39 111h134l5 56l-6 7l-146 -10 q-5 0 -8 -0.5t-7 -0.5q-12 0 -21.5 2t-19.5 9q-56 32 -131 32q-48 0 -91 -17t-75.5 -47.5t-52 -71.5t-19.5 -89zM318 -81q51 0 88.5 -2t68.5 -15q32 -13 49.5 -40t17.5 -67q0 -44 -17 -75t-45.5 -51t-66.5 -29.5t-81 -9.5q-34 0 -70 7.5t-65.5 24.5t-49 44t-19.5 66 q0 33 14.5 64t44.5 56q11 10 21.5 15t24 8t34 3.5t51.5 0.5zM311 167q-36 0 -61 18.5t-41 47t-23.5 62.5t-7.5 67q0 29 6 56.5t20 50.5t36 37t53 14q37 0 62.5 -17.5t41 -45t22.5 -62t7 -69.5q0 -28 -6.5 -56t-20.5 -51t-36 -37.5t-52 -14.5z" />
<glyph unicode="h" horiz-adv-x="731" d="M231 1029q-15 -7 -39.5 -14.5t-52 -14.5t-57.5 -13.5t-56 -11.5l3 -27q32 -6 52 -10.5t30 -13t13.5 -24.5t3.5 -43v-709q0 -35 -3.5 -57t-14 -34.5t-29 -18t-50.5 -8.5l2 -30q27 0 62 1t72 1q46 0 83.5 -1t68.5 -1l3 35q-31 2 -50 5t-28.5 10.5t-12.5 21.5t-3 36v327 q43 28 84.5 37.5t67.5 9.5q37 0 62 -9.5t40.5 -28.5t21.5 -48t6 -67v-187q0 -36 -3.5 -56.5t-13.5 -32t-28.5 -16t-47.5 -7.5l3 -30q27 0 60 1t70 1q46 0 85.5 -1t69.5 -1l2 35q-33 2 -51.5 5t-28 10.5t-12 21.5t-2.5 36v258q0 103 -46 149t-130 46q-11 0 -28 -2t-36 -9 q-29 -10 -65.5 -27t-79.5 -39v310q0 17 0.5 45.5t2 61t4.5 64.5t7 56z" />
<glyph unicode="i" horiz-adv-x="356" d="M338 0l2 35q-35 2 -55 5t-30 10.5t-13 21.5t-3 36v253q0 17 0.5 40t1.5 49.5t3 53t4 50.5l-9 7q-10 -5 -31 -10.5t-47 -12t-56 -12.5t-59 -12l3 -28q29 -5 46 -9.5t26 -13t12 -24t3 -41.5v-250q0 -35 -3.5 -57t-14 -34.5t-29 -18t-49.5 -8.5l2 -30q27 0 62 1t72 1 q46 0 89 -1t73 -1zM116 790q0 -31 19 -51t51 -20q33 0 52.5 19.5t19.5 51.5q0 31 -19.5 50.5t-52.5 19.5q-31 0 -50.5 -19.5t-19.5 -50.5z" />
<glyph unicode="j" horiz-adv-x="332" d="M234 561q-10 -5 -30.5 -10.5t-47 -12t-56.5 -12.5t-59 -12l3 -28q29 -5 46.5 -9.5t26.5 -13t11.5 -24t2.5 -41.5v-398q0 -66 -1.5 -122.5t-15 -106.5t-44 -94t-87.5 -84l23 -35q72 43 126 97.5t75 108.5q11 30 19 68.5t8 80.5v39q0 29 -0.5 70.5t-0.5 89.5v99v145 q0 17 0.5 41t2 51t3.5 54.5t5 51.5zM110 790q0 -31 19 -51t51 -20q33 0 52.5 19.5t19.5 51.5q0 31 -19.5 50.5t-52.5 19.5q-31 0 -50.5 -19.5t-19.5 -50.5z" />
<glyph unicode="k" horiz-adv-x="689" d="M247 279q11 0 23 -4.5t20 -13.5l149 -174q10 -12 15 -19t5 -15q0 -13 -17 -16.5t-40 -6.5l2 -30q28 0 59 1t65 1q49 0 91.5 -1t68.5 -1l2 35q-31 2 -51 6.5t-38 16.5t-39 36l-56 64l-132 156q-7 7 -7 13t12 18q18 19 49.5 51t73.5 66q19 15 36.5 23.5t34 13t34 7 t37.5 5.5l-3 32q-49 -3 -82.5 -3h-59.5h-36h-19q-11 0 -24 0.5t-25 0.5h-18l-3 -29q28 -3 44 -9t16 -19q0 -9 -10 -22t-34 -39l-50 -54q-28 -30 -49.5 -42t-44.5 -12q-11 0 -14.5 2.5t-3.5 7.5v469q0 17 0.5 45.5t2 61t4.5 64.5t7 56l-11 8q-14 -6 -37.5 -12.5t-51 -13.5 t-57.5 -13.5t-57 -12.5l3 -27q32 -6 51.5 -10.5t29.5 -13.5t13 -24.5t3 -43.5v-710q0 -36 -3.5 -57.5t-14.5 -34t-31.5 -18t-53.5 -8.5l2 -30q27 0 65 1t75 1q46 0 83 -1t68 -1l2 35q-32 2 -50.5 5t-27.5 10.5t-11.5 21.5t-2.5 36v160q0 11 19 11z" />
<glyph unicode="l" horiz-adv-x="349" d="M231 1029q-14 -6 -37 -12.5t-51 -13.5t-58.5 -13.5t-58.5 -12.5l3 -27q33 -6 52.5 -10.5t30 -13.5t13.5 -24.5t3 -43.5v-710q0 -36 -3.5 -57.5t-14 -34t-30 -18t-51.5 -8.5l2 -30q27 0 63 1t73 1q46 0 88.5 -1t72.5 -1l2 35q-35 2 -55 5t-30.5 10.5t-13.5 21.5t-3 36v686 q0 17 0.5 45.5t2 61t4.5 64.5t7 56z" />
<glyph unicode="m" horiz-adv-x="1092" d="M235 561q-14 -6 -36.5 -12.5t-48 -14t-53 -13.5t-50.5 -11l2 -27q29 -5 46.5 -9.5t26.5 -13.5t12 -24t3 -42v-246q0 -36 -3.5 -57.5t-14.5 -34t-30.5 -18t-51.5 -8.5l3 -30q27 0 63.5 1t73.5 1q46 0 80.5 -1t65.5 -1l2 35q-30 2 -46.5 5t-25 10.5t-11 21.5t-2.5 36v318 q44 32 81.5 44t62.5 12q36 0 59 -9.5t36.5 -28.5t18.5 -48t5 -67v-187q0 -36 -2.5 -56.5t-12 -32t-27.5 -16t-48 -7.5l2 -30q27 0 60 1t70 1q46 0 79.5 -1t63.5 -1l2 35q-28 2 -44.5 5t-25 10.5t-11 21.5t-2.5 36v258q0 13 -1 30.5t-3 25.5q43 35 83.5 47.5t63.5 12.5 q36 0 59.5 -9.5t37 -28.5t19 -48t5.5 -67v-187q0 -35 -3 -56t-12.5 -32.5t-27 -16t-47.5 -7.5l3 -30q27 0 60 1t70 1q46 0 83 -1t67 -1l2 35q-30 2 -48.5 5t-28 10.5t-12 21.5t-2.5 36v258q0 103 -42.5 149t-124.5 46q-10 0 -25.5 -2t-34.5 -10q-14 -5 -32 -13.5 t-38.5 -19.5t-42 -24.5t-41.5 -28.5q-17 51 -56 74.5t-97 23.5q-11 0 -26.5 -2t-34.5 -10q-28 -10 -62 -29t-78 -45q0 20 2 39.5t4 39.5z" />
<glyph unicode="n" horiz-adv-x="740" d="M329 0l3 35q-31 2 -49.5 5t-28 10.5t-12 21.5t-2.5 36v318q46 32 85 44t64 12q74 0 101.5 -38t27.5 -115v-187q0 -36 -3 -56.5t-12.5 -32t-27.5 -16t-48 -7.5l3 -30q27 0 60.5 1t70.5 1q46 0 82.5 -1t67.5 -1l2 35q-30 2 -48.5 5t-27.5 10.5t-12 21.5t-3 36v258 q0 103 -46 149t-130 46q-11 0 -26.5 -2t-35.5 -10q-29 -10 -63.5 -29t-80.5 -45q0 20 2 39.5t4 39.5l-11 7q-14 -6 -36.5 -12.5t-48 -14t-53 -13.5t-50.5 -11l2 -27q29 -5 46.5 -9.5t26.5 -13.5t12 -24t3 -42v-246q0 -36 -3.5 -57.5t-14.5 -34t-30.5 -18t-51.5 -8.5l3 -30 q27 0 63.5 1t73.5 1q46 0 84 -1t68 -1z" />
<glyph unicode="o" horiz-adv-x="676" d="M51 266q0 -59 20.5 -111t58 -90.5t90.5 -61t118 -22.5q60 0 112.5 23.5t91.5 63.5t61 93.5t22 115.5q0 59 -20.5 111t-58 90.5t-90.5 60.5t-118 22q-60 0 -112.5 -23t-91 -63t-61 -94t-22.5 -115zM350 28q-49 0 -83.5 25.5t-56.5 64.5t-32.5 86.5t-10.5 91.5q0 39 9.5 78 t28.5 70.5t49 51t72 19.5q49 0 84 -25t57 -63.5t32 -86t10 -93.5q0 -39 -9 -78t-28.5 -70t-49.5 -51t-72 -20z" />
<glyph unicode="p" horiz-adv-x="706" d="M220 561q-12 -5 -33.5 -11t-49 -13t-57 -14t-57.5 -13l3 -27q33 -5 52.5 -9.5t30 -13.5t13.5 -24t3 -42v-670q0 -36 -3.5 -57.5t-14 -34t-30 -17.5t-51.5 -8l3 -30q27 0 63 0.5t73 0.5q23 0 49.5 -0.5t51.5 -0.5h50h38l2 35q-46 2 -72 5.5t-39 11.5t-16 22.5t-3 37.5v309 q29 -10 57 -13.5t42 -3.5q69 0 128.5 23.5t104.5 64.5t71.5 99t26.5 128q0 51 -19 99t-52.5 85t-78.5 59t-97 22q-13 0 -34.5 -7t-46.5 -18t-52 -25.5t-50 -30.5v-2v4q0 22 1.5 39t3.5 33zM226 430q24 20 56 34.5t72 14.5q45 0 79.5 -18t58 -48.5t36 -71t12.5 -85.5 q0 -44 -11 -84.5t-33 -71t-55.5 -49t-78.5 -18.5q-37 0 -73.5 14.5t-62.5 43.5v339z" />
<glyph unicode="q" horiz-adv-x="686" d="M586 554q-10 -4 -26.5 -9t-29.5 -8q-39 12 -80.5 18t-65.5 6q-68 0 -128.5 -22t-106 -63.5t-73 -99t-27.5 -127.5q0 -56 20 -105t54 -85t79 -57t97 -21q11 0 31 4.5t45.5 13t53 21t53.5 29.5v-324q0 -35 -3 -57t-15.5 -34.5t-36 -17.5t-66.5 -8l3 -31q13 0 32.5 0.5 t41.5 0.5t43.5 0.5t40.5 0.5q46 0 87 -1t71 -1l3 36q-34 2 -54 4.5t-30 10.5t-13 21.5t-3 36.5v644q0 17 1 44t2.5 57t4 60.5t5.5 54.5zM482 100q-28 -22 -61 -30t-67 -8t-67.5 13.5t-60.5 41.5t-43.5 69t-16.5 98q0 63 16 106t41.5 70t56.5 39.5t61 12.5q40 0 76.5 -15 t64.5 -44v-353z" />
<glyph unicode="r" horiz-adv-x="487" d="M359 0l2 35q-42 2 -66 5t-36.5 10.5t-15.5 21.5t-3 36v234q0 13 1 21t5 19q16 36 42 55t48 19t40.5 -8t35.5 -24h3q29 19 48 42t19 42q0 29 -21 41t-46 12q-17 0 -34.5 -5t-38.5 -19t-46.5 -38t-55.5 -61q0 29 1 57.5t5 58.5l-11 7q-14 -6 -36.5 -12.5t-48 -14 t-53.5 -13.5t-53 -11l3 -27q30 -5 48 -9.5t27 -13.5t12 -24t3 -42v-246q0 -35 -3.5 -57t-13.5 -34.5t-28.5 -18t-49.5 -8.5l3 -30q27 0 61 1t71 1q23 0 48.5 -0.5t50.5 -0.5t46.5 -0.5t36.5 -0.5z" />
<glyph unicode="s" horiz-adv-x="496" d="M428 382v46q0 31 1 58.5t4 57.5q-48 2 -85.5 9.5t-75.5 7.5q-37 0 -74 -9.5t-66 -29.5t-47.5 -51.5t-18.5 -75.5q0 -36 14 -62t37 -44.5t52 -32t58 -26.5q26 -10 49.5 -21t42 -25.5t29.5 -33t11 -42.5q0 -42 -28.5 -62t-65.5 -20q-39 0 -68 14t-51 37.5t-38.5 54 t-29.5 62.5l-32 -8q4 -13 7 -36.5t6 -49.5t5.5 -50.5t3.5 -40.5q22 -2 40.5 -6.5t38.5 -9.5q22 -5 47 -8.5t50 -3.5q39 0 77.5 10t69 31t49.5 53t19 76q0 35 -14 61t-37 44.5t-52 32.5t-58 26q-27 10 -52 20.5t-44.5 24.5t-31.5 31.5t-12 41.5q0 20 7.5 35.5t20.5 26 t29.5 16.5t34.5 6q30 0 55.5 -10t45 -28t31.5 -43.5t15 -54.5z" />
<glyph unicode="t" horiz-adv-x="413" d="M209 748q-6 -4 -16.5 -9t-25 -11t-29.5 -12l-30 -12q0 -23 0.5 -47.5t0.5 -48.5v-45v-34l-88 -7l-4 -37l7 -6h85v-166q0 -64 -0.5 -102t-0.5 -55v-26q0 -37 10 -64.5t28 -45t41 -26.5t50 -9q16 0 32 3t32 8q30 9 54 16.5t47 16.5l-7 34q-22 -5 -45 -8.5t-44 -3.5 q-20 0 -37 5.5t-30 19.5t-20 38t-7 61v304h168l3 48l-8 7l-163 -3q0 16 0.5 42.5t1.5 56.5t2.5 59.5t3.5 52.5z" />
<glyph unicode="u" horiz-adv-x="718" d="M484 -6l10 -7q12 4 33.5 9t48.5 9.5l57 9.5t59 8l-4 27q-33 5 -52 9.5t-29 13t-13 23.5t-3 43v222q0 17 0.5 40t2 49t3.5 52.5t4 51.5l-10 7q-9 -4 -29 -8t-46.5 -9t-58.5 -10t-64 -9l2 -27q31 -5 49.5 -9.5t28 -13t12.5 -24t3 -42.5v-287q-15 -11 -33.5 -22t-38.5 -20 t-41 -14t-41 -5q-23 0 -44.5 7t-37.5 25t-26 49.5t-10 79.5v139q0 17 0.5 40t1.5 49.5t3 53t5 50.5l-10 7q-10 -4 -29.5 -8t-46 -9t-56.5 -10t-60 -9l2 -27q28 -5 44.5 -9.5t25.5 -13t11.5 -24t2.5 -42.5v-227q0 -56 14 -94.5t37 -62t53.5 -34t64.5 -10.5q18 0 36 3.5 t41.5 13.5t55 28.5t76.5 48.5q0 -17 -1 -40.5t-3 -40.5z" />
<glyph unicode="v" horiz-adv-x="612" d="M325 -14q28 69 54 132.5t50.5 118.5t46 101t38.5 79q14 29 24.5 46t23.5 27t30 14.5t46 8.5l-2 30q-24 0 -49.5 -0.5t-58.5 -0.5q-44 0 -72.5 0.5t-57.5 0.5l-2 -32q43 -2 59.5 -10.5t16.5 -23.5q0 -8 -3.5 -18t-7.5 -22l-129 -306l-122 304q-5 13 -8 24t-3 19 q0 16 15 22.5t53 11.5l-1 31q-28 0 -59 -0.5t-68 -0.5q-43 0 -82 0.5t-70 0.5l-2 -35q28 -2 45.5 -5.5t30 -13t22.5 -27t23 -45.5q46 -107 90 -214t85 -221z" />
<glyph unicode="w" horiz-adv-x="927" d="M699 543l-1 -32q49 -5 67.5 -12t18.5 -27q0 -10 -7 -35q-10 -33 -23.5 -71t-26.5 -76t-27 -74.5t-26 -68.5q-46 98 -84 195t-75 192l-42 -5q-43 -104 -83 -200t-76 -182q-27 72 -51.5 147.5t-47.5 147.5q-7 17 -7 33q0 19 17.5 26t60.5 11l-1 31q-28 0 -63.5 -0.5 t-73.5 -0.5q-43 0 -77 0.5t-65 0.5l-2 -35q29 -2 45 -5t26.5 -12t18 -25t17.5 -43q41 -107 78 -218t75 -223l38 4q41 111 81 210t81 199q43 -108 83 -207.5t80 -205.5l38 4q24 64 47 126t44.5 119t40.5 106t34 86q11 29 20 45t20.5 25t28.5 12.5t46 7.5l-2 30 q-24 0 -49 -0.5t-58 -0.5q-44 0 -76 0.5t-62 0.5z" />
<glyph unicode="x" horiz-adv-x="640" d="M294 543q-29 0 -62 -0.5t-64 -0.5q-35 0 -72 0.5t-67 0.5l-2 -35q30 -2 47.5 -4.5t31 -10.5t25 -22t27.5 -38l115 -168l-110 -144q-20 -26 -36 -42t-33 -26t-37 -15t-47 -8l1 -30q30 0 57 1t58 1q30 0 65 -1t66 -1l2 32q-33 2 -47.5 9t-14.5 20q0 14 17 39l86 126 l91 -134q16 -25 16 -35q0 -23 -55 -27l2 -30q28 0 62 1t70 1t76.5 -1t71.5 -1l2 35q-30 2 -50 5.5t-35 13t-29 25.5t-33 44l-123 179l87 112q22 29 39 46.5t35.5 28t40.5 15.5t53 9l-1 30q-30 0 -57 -0.5t-58 -0.5q-30 0 -62 0.5t-62 0.5l-2 -32q53 -5 53 -26q0 -12 -15 -34 l-76 -111l-82 120q-12 18 -13 29q0 10 11.5 15.5t38.5 7.5z" />
<glyph unicode="y" horiz-adv-x="629" d="M652 543q-24 0 -49.5 -0.5t-59.5 -0.5q-44 0 -72 0.5t-58 0.5l-2 -32q43 -2 59 -10t16 -26q0 -11 -10 -38l-139 -331l-127 329q-5 13 -8 24t-3 19q0 16 15 22.5t53 11.5l-1 31q-28 0 -59 -0.5t-68 -0.5q-43 0 -82 0.5t-70 0.5l-2 -35q28 -2 45.5 -5.5t30 -13t22.5 -27 t23 -45.5q20 -47 42 -101t44.5 -111t44.5 -114.5t41 -108.5q1 -3 2 -6.5t1 -6.5l-2 -8q-33 -87 -66 -152.5t-67 -101.5q-15 -15 -35 -21.5t-42 -6.5q-8 0 -16 1.5t-19 3.5q-19 -10 -31 -26t-12 -37q0 -27 19 -42t43 -15q49 0 96 40q23 18 45.5 53t45 78.5t43 92.5t39.5 96 q26 67 53.5 135.5t54.5 133.5t52.5 122.5t47.5 101.5q14 29 24.5 46t23.5 27t30 14.5t46 8.5z" />
<glyph unicode="z" horiz-adv-x="575" d="M40 15l9 -15h29q18 0 39 0.5t42 0.5h40h48q24 0 59 -0.5t86 -0.5h133q2 33 11 80t21 88l-33 9q-20 -38 -36.5 -63t-36.5 -41t-46 -22.5t-64 -6.5h-155l74 107q10 14 27.5 39.5t40.5 58t49.5 69t53.5 73.5t52.5 72.5t47.5 64.5l-11 15q-13 0 -33 -0.5t-41 -0.5h-41.5 h-35.5h-41h-53.5h-81.5h-121q4 -41 5 -80t1 -90l31 -1q10 41 20.5 66.5t28 39t46 18t74.5 4.5h109l-71 -104q-16 -24 -49.5 -70t-73 -100.5t-80.5 -110t-73 -99.5z" />
<glyph unicode="{" horiz-adv-x="934" d="M556 389l-38 -66l-61 39l36 66zM222 601q67 58 156 26h3l3 -1l21 -3q-205 -123 -197 -354q3 -7 3 -13l1 -2q1 -14 6 -26v-3q1 -1 1 -2l5 -12l2 -2v-3l1 -4l2 -3q8 -12 12 -22l4 -3l1 -4l2 -3q2 -2 2 -3l4 -3l3 -4l2 -3l4 -3l7 -8q10 -7 16 -15l5 -2q3 -1 3 -2 q13 -6 22 -14l5 -1l26 -12q4 0 5 -1l4 -2l4 -1h3l3 -1l3 -1l2 -2q10 0 18 -2q11 0 19 -3h15h5h20h10h8q8 1 13 1l3 2l20 2l21 3l4 1h4l3 3q8 1 12 2l9 3q9 5 15 6l4 1l4 2l12 5l9 5l21 10l1 3q9 4 14 9l2 1q6 4 8 6l4 1l1 2l22 16l5 7q-171 -69 -319 -8q-121 59 -106 185v3 l2 12l5 21l2 5l2 5l1 2v4l2 2v4l7 14v4q108 175 296 186l1 5q7 10 11 17l2 4l2 2l2 4l1 4l3 3l5 7l1 4l8 15v1v-1v1h-4q-6 0 -9 -1h-4h-15h-13h-6h-16h-5h-22h-4h-14l-6 1h-5h-7l-6 1h-8q-8 3 -13 1l-8 2l-6 1l-7 1h-4l-9 3h-6l-19 3h-4l-1 2h-4h-4q-11 2 -20 3h-7l-3 2h-3 h-4h-5h-4h-5h-21q-80 -20 -82 -98z" />
<glyph unicode="|" horiz-adv-x="366" d="M214 -441l-62 -3v1492l62 6v-1495z" />
<glyph unicode="}" horiz-adv-x="544" d="M317 528l-51 -79l-74 53l49 82zM414 473l-3 -4l-3 -5q-1 -8 -4 -11q-3 -7 -5 -10l-1 -3q-6 -16 -14 -26v-6l3 -2l12 -29q38 -71 35 -143q-61 -43 -129 -52q-122 -20 -192 56q-56 82 -5 189q4 13 -6 16l-3 -3l-3 -3l-4 -3q-3 -7 -6 -10q-3 -10 -9 -14q-116 -318 200 -311 q113 16 174 95q2 10 7 16v4l1 4l6 18l2 10q4 16 4 28q8 120 -48 213z" />
<glyph unicode="~" d="M44 227l53 -21q14 40 34 64.5t60 24.5q30 0 59.5 -13.5t58.5 -29.5q31 -18 65 -32.5t74 -14.5q57 0 98.5 35t56.5 95l-53 22q-14 -40 -34 -65t-60 -25q-30 0 -59.5 13.5t-58.5 29.5q-31 18 -65 33t-74 15q-57 0 -98.5 -35.5t-56.5 -95.5z" />
<glyph unicode="&#xa1;" horiz-adv-x="369" d="M245 -339q-6 60 -12.5 145t-12 175t-10 176.5t-7.5 148.5l-42 -4q-5 -68 -11.5 -151.5t-14.5 -171t-18 -173t-22 -153.5l7 -7zM255 485q0 31 -21.5 53.5t-51.5 22.5t-52 -22t-22 -54q0 -31 21.5 -53.5t52.5 -22.5q30 0 51.5 22.5t21.5 53.5z" />
<glyph unicode="&#xa2;" d="M324 642v-89q-55 -12 -103 -40.5t-82.5 -67.5t-54.5 -88.5t-20 -104.5q0 -52 19 -99.5t53 -84.5t82 -59.5t106 -25.5v-89l55 6v85q63 10 117 43t84 87l-28 25q-29 -43 -75 -60.5t-98 -17.5v432q33 -5 62 -21t60 -44h4q30 15 42.5 32t12.5 34q0 10 -5.5 21t-18.5 18 q-31 16 -65 21.5t-67 5.5h-10h-6t-9 -1v87zM324 495v-426q-37 10 -66.5 33t-49.5 54t-30.5 68t-10.5 77q0 35 10 69t29.5 60t49 43.5t68.5 21.5z" />
<glyph unicode="&#xa3;" d="M488 724h2q22 10 36.5 25t14.5 48q0 17 -8.5 28t-20 17.5t-25 9t-23.5 2.5q-46 0 -87.5 -14.5t-77.5 -38t-65 -56t-50 -68t-32.5 -72.5t-11.5 -71q0 -29 3 -59.5t7 -62.5l-104 -3l-9 -38l7 -7h111q1 -15 2 -28.5t1 -27.5q0 -22 -3.5 -50.5t-18 -63t-45.5 -76t-86 -88.5 l29 -33q25 28 50.5 45.5t61.5 17.5q33 0 59 -12.5t55 -27t65.5 -27t89.5 -12.5q37 0 73 10t70 24q0 12 3 33.5t9 46.5t12.5 51t13.5 48l-36 9q-10 -23 -22 -46t-27.5 -41.5t-36.5 -30t-48 -11.5q-30 0 -58 10.5t-56.5 23t-57 23t-57.5 10.5q-22 0 -36 -4l-2 4 q57 57 82 112.5t29 110.5h208l8 54l-7 6l-209 -7q-2 51 -9.5 95.5t-7.5 80.5q0 32 7 64t22.5 57.5t39.5 41.5t58 16q29 0 59.5 -12t48.5 -36z" />
<glyph unicode="&#xa4;" d="M108 706l82 -95q28 21 62 32t72 11q36 0 69 -11t61 -30l78 81l62 -41l-94 -82q25 -30 38.5 -66.5t13.5 -79.5t-14 -79t-38 -65l78 -74l-41 -62l-82 94q-28 -20 -61.5 -31t-69.5 -11q-38 0 -71.5 11.5t-60.5 31.5l-78 -81l-62 41l95 82q-51 60 -52 143q0 84 52 144l-79 75 zM167 426q0 -35 11.5 -65.5t32 -53t49 -36t64.5 -13.5q35 0 63.5 13.5t49 36t32 53t11.5 65.5t-11.5 66t-32 54t-49 36.5t-63.5 13.5t-64 -13.5t-49.5 -36.5t-32 -54t-11.5 -66zM108 706l82 -95zM147 569l-79 75z" />
<glyph unicode="&#xa5;" d="M70 345h192v-86h-185l4 -50h181v-55q0 -36 -4.5 -58.5t-18 -35.5t-40 -19t-70.5 -9l3 -32q18 0 40.5 0.5t45.5 0.5t45 0.5t41 0.5q23 0 48.5 -0.5t51.5 -0.5q27 0 52 -0.5t45 -0.5l1 34q-47 2 -73.5 7t-40 15t-17.5 25t-4 38v90h181l4 50h-185v86h192l3 49h-187 q13 30 26.5 56.5t28 53.5t33 57.5t40.5 68.5q27 44 45.5 71.5t37 43t41 22.5t55.5 10l-3 32q-35 0 -67.5 -1t-68.5 -1q-22 0 -39 0.5t-33 0.5q-15 0 -30.5 0.5t-32.5 0.5l-2 -34q44 -4 64 -12.5t20 -24.5q0 -13 -6 -29.5t-24 -47.5l-121 -210l-127 224q-11 20 -18 36t-7 27 q0 17 18.5 26t58.5 13l-3 32q-33 0 -67.5 -1t-74.5 -1q-49 0 -93.5 1t-76.5 1l-2 -34q31 -3 52 -9t37.5 -19.5t32.5 -36.5t38 -60q25 -41 42.5 -70t34 -56t32 -57t35.5 -73h-184z" />
<glyph unicode="&#xa6;" horiz-adv-x="427" d="M171 409h85v505h-85v-505zM171 -305h85v505h-85v-505z" />
<glyph unicode="&#xa7;" horiz-adv-x="753" d="M489 801h3q30 6 47.5 21t17.5 38q0 17 -10.5 30.5t-27.5 22.5t-38.5 14.5t-42.5 5.5q-40 0 -85 -22.5t-82 -57t-61 -75.5t-24 -79q0 -24 9.5 -47t25 -45t35.5 -43.5t40 -41.5q23 -23 50.5 -50t55.5 -57t54.5 -61t48.5 -63q28 -40 46 -80.5t18 -78.5q0 -43 -17 -71 t-33 -44l22 -41q55 59 81.5 111t26.5 115q0 38 -18.5 80.5t-49.5 85.5q-28 38 -62.5 77.5t-72 78t-75.5 76.5l-71 71q-32 32 -33 73q0 24 9.5 43.5t25 32.5t36 20t43.5 7q29 0 59 -14t49 -32zM255 -181h-3q-23 -4 -41 -16t-18 -36q0 -21 11 -35.5t27 -23.5t35.5 -13t35.5 -4 q42 0 86.5 22t81 57t60.5 78.5t24 84.5q0 23 -10 46.5t-26 45.5t-35.5 43t-39.5 41l-49.5 49.5t-53.5 55t-53 59t-48 61.5q-28 40 -46 79.5t-18 77.5q0 43 16 71.5t32 43.5l-22 41q-28 -30 -48 -57.5t-32.5 -54t-19 -54.5t-6.5 -59q0 -38 18.5 -79.5t49.5 -85.5 q27 -38 61 -76.5t71 -76t74 -74t71 -69.5q8 -8 13.5 -16t9.5 -16q9 -19 9 -39q0 -25 -8.5 -46t-23.5 -36t-35.5 -23.5t-43.5 -8.5q-29 0 -57 12t-49 31z" />
<glyph unicode="&#xa8;" horiz-adv-x="666" d="M454 683q-26 0 -44 18.5t-18 44.5q0 27 18 45t44 18q27 0 45 -18t18 -45q0 -26 -18.5 -44.5t-44.5 -18.5zM211 683q-26 0 -44 18.5t-18 44.5t18.5 44.5t43.5 18.5q27 0 45 -18t18 -45q0 -26 -18.5 -44.5t-44.5 -18.5z" />
<glyph unicode="&#xa9;" horiz-adv-x="1113" d="M732 563q0 33 1 64.5t4 64.5q-31 9 -68 13.5t-69 4.5q-62 0 -118 -15.5t-97.5 -48t-66.5 -80.5t-25 -112q0 -56 20.5 -102t56.5 -78t86 -49.5t109 -17.5q43 0 83 7.5t83 18.5q3 35 8 65.5t14 66.5l-30 8q-11 -30 -23 -53.5t-28 -38.5q-17 -17 -40.5 -24.5t-48.5 -7.5 q-45 0 -78.5 17.5t-56.5 47.5t-34 69.5t-11 83.5q0 45 11.5 82.5t35.5 64.5t58 42t79 15q46 0 77.5 -26.5t34.5 -83.5zM156 457q0 85 32 158.5t86 128t127 86t156 31.5t155.5 -31.5t127 -86t86 -128t31.5 -158.5t-31.5 -158.5t-86 -128.5t-127 -86.5t-155.5 -31.5t-156 31.5 t-127 86.5t-86 128.5t-32 158.5zM95 458q0 -95 36.5 -177.5t99.5 -144t147.5 -96.5t179.5 -35q94 0 177.5 35t146.5 96.5t99.5 144t36.5 177.5q0 94 -36.5 176.5t-99.5 143t-146.5 96t-177.5 35.5q-95 0 -179.5 -35.5t-147.5 -96t-99.5 -143t-36.5 -176.5z" />
<glyph unicode="&#xaa;" horiz-adv-x="508" d="M480 431q-22 -13 -37 -13q-41 0 -40 58q0 69 0.5 125.5t0.5 98.5q0 63 -38.5 86t-104.5 23q-5 0 -28.5 -5.5t-49.5 -18.5q-20 -9 -40 -19t-36 -21.5t-26 -24.5t-10 -25q0 -16 19.5 -24t40.5 -8q28 0 41 10q1 33 18 58t56 25q36 0 53.5 -22.5t17.5 -56.5v-32v-16 q0 -7 -1 -11q-60 -7 -105 -16.5t-73 -20.5q-36 -13 -58.5 -40t-22.5 -65q0 -22 8.5 -41.5t23.5 -34.5t36 -24t46 -9q22 0 46 8t44.5 18t37 20t24.5 14q12 -34 32.5 -46t48.5 -12q25 0 49 10.5t41 26.5zM314 470q-19 -16 -43 -26t-45 -10q-30 0 -44.5 19t-14.5 47q0 21 17 38 q10 10 25.5 16.5t33 11t36.5 7.5t37 5q0 -27 -1 -53.5t-1 -54.5z" />
<glyph unicode="&#xab;" horiz-adv-x="625" d="M95 278v-13q43 -40 92 -95t103 -121l31 19l-125 203l125 204l-31 19q-54 -67 -103 -121.5t-92 -94.5zM304 278v-13q43 -40 92 -95t103 -121l31 19l-125 203l125 204l-31 19q-54 -67 -103 -121.5t-92 -94.5z" />
<glyph unicode="&#xac;" d="M581 10v302h-518l-5 -63h460v-244z" />
<glyph unicode="&#xad;" horiz-adv-x="1072" d="M146 157h890v-2q-5 -4 -7 -10q-4 -4 -9 -10q-3 -5 -7 -10q-3 -5 -8 -11q-3 -5 -8 -10q-3 -5 -7 -11q-4 -4 -8 -10q-4 -4 -7 -12l-9 -9q-3 -5 -8 -11q-3 -5 -7 -10q-3 -5 -8 -11q-3 -5 -8 -10l-7 -10q-3 -6 -9 -10h-890v2q4 4 8 9q3 5 8 11q3 5 7 10q4 4 8 11l7 8l2 2 q3 5 7 11q3 4 8 9l7 12q4 4 8 10q4 4 8 11q4 4 8 9q3 5 8 11q3 5 7 10q4 4 8 11q4 3 8 10z" />
<glyph unicode="&#xae;" horiz-adv-x="1113" d="M496 434h33q16 0 22.5 -5.5t13.5 -17.5q19 -32 36 -63t29.5 -56.5t21.5 -45.5t14 -29q5 1 10 1h10h21q30 0 62 -0.5t52 -0.5l2 27q-19 1 -32 2.5t-22.5 6t-17.5 11.5t-16 21q-7 10 -17 26.5t-23 39.5t-27 50t-29 56q43 16 72 50.5t29 82.5q0 36 -18.5 58.5t-46 34.5 t-61 16t-62.5 4t-55.5 -2t-52.5 -2q-28 0 -56.5 0.5t-44.5 0.5l-2 -27q43 -2 55 -11t12 -33v-324q0 -18 -2.5 -29t-10 -18t-20 -10t-32.5 -4l2 -27q14 0 42.5 0.5t55.5 0.5q40 0 67.5 -0.5t50.5 -0.5l1 27q-23 1 -36 3.5t-19.5 8t-8.5 13.5t-2 20v145zM496 620 q0 24 9.5 34.5t34.5 10.5q43 0 71.5 -20.5t28.5 -63.5q0 -54 -31 -83t-81 -29h-32v151zM156 457q0 85 32 158.5t86 128t127 86t156 31.5t155.5 -31.5t127 -86t86 -128t31.5 -158.5t-31.5 -158.5t-86 -128.5t-127 -86.5t-155.5 -31.5t-156 31.5t-127 86.5t-86 128.5 t-32 158.5zM95 458q0 -95 36.5 -177.5t99.5 -144t147.5 -96.5t179.5 -35q94 0 177.5 35t146.5 96.5t99.5 144t36.5 177.5q0 94 -36.5 176.5t-99.5 143t-146.5 96t-177.5 35.5q-95 0 -179.5 -35.5t-147.5 -96t-99.5 -143t-36.5 -176.5z" />
<glyph unicode="&#xaf;" horiz-adv-x="666" d="M517 696h-368l-3 58h375z" />
<glyph unicode="&#xb0;" horiz-adv-x="503" d="M57 738q0 -40 15.5 -76t42 -62t61.5 -41.5t75 -15.5t76 15.5t62.5 41.5t41.5 62t15 76t-15 75.5t-41.5 61.5t-62.5 42t-76 16t-75 -16t-61.5 -42t-42 -61.5t-15.5 -75.5zM114 738q0 30 10.5 55.5t29 44.5t44 30.5t53.5 11.5q29 0 54 -11.5t43.5 -30.5t29.5 -45t11 -55 q0 -30 -11 -55.5t-29.5 -45t-43.5 -30.5t-54 -11t-54 11t-43.5 30.5t-29 45t-10.5 55.5z" />
<glyph unicode="&#xb1;" d="M585 306l5 63h-235v188l-63 -5v-183h-229l-5 -63h234v-187l63 5v182h230zM585 10l5 62h-528l-5 -62h528z" />
<glyph unicode="&#xb2;" horiz-adv-x="499" d="M106 749q4 55 35 83q15 15 37 21.5t45 5.5t44 -9t37 -22t23 -34t7 -42q0 -21 -5 -42.5t-14 -38.5q-19 -37 -52.5 -72.5t-73.5 -73.5l-157 -148l7 -20q9 0 27 0.5t39 0.5t41.5 0.5t34.5 0.5q18 0 36 -0.5t45 -0.5q28 0 68.5 -0.5t106.5 -0.5q1 12 3.5 29.5t7 37t9.5 38 t9 34.5l-29 8q-11 -23 -20.5 -36.5t-18.5 -20.5t-18.5 -9.5t-21.5 -2.5l-203 -4l127 114q28 26 55 50.5t49 52t36 59t14 70.5q0 38 -18.5 67.5t-48 49t-65.5 29.5t-70 10q-46 0 -89.5 -14t-77.5 -39q3 -30 3.5 -60.5t0.5 -68.5z" />
<glyph unicode="&#xb3;" horiz-adv-x="499" d="M69 769l34 -2q2 49 35.5 74t81.5 25q20 0 38.5 -5t33 -15.5t23.5 -26.5t9 -37q0 -34 -18 -56t-44 -35t-58 -20t-60 -11l6 -40q32 8 62 8q63 0 99 -29.5t36 -92.5q0 -27 -8.5 -49.5t-23.5 -39t-37 -26t-48 -9.5q-43 0 -77.5 25t-50.5 68h-3q-26 -4 -44 -22t-18 -37 q0 -26 18 -43t44 -26.5t54.5 -13.5t49.5 -4q47 0 93 12t81.5 37t58 62.5t22.5 88.5q0 54 -33.5 95.5t-90.5 57.5v3q38 27 64 57.5t26 73.5q0 31 -18.5 53.5t-46 36.5t-60 20.5t-58.5 6.5q-49 0 -91 -12t-84 -33q2 -28 2.5 -55.5t0.5 -63.5z" />
<glyph unicode="&#xb4;" horiz-adv-x="666" d="M306 617l3 -6l34 -6l147 233l-5 11l-100 8z" />
<glyph unicode="&#xb5;" horiz-adv-x="681" d="M90 409q0 21 -0.5 36.5t-0.5 29.5t-1 29t-2 36q36 6 67 11.5t41 9.5l11 -7q-3 -25 -5 -51.5t-3.5 -52.5t-2 -49t-0.5 -40v-139q0 -43 9.5 -73t26 -49t37 -27.5t44.5 -8.5q38 0 75.5 19t65.5 49v277q0 21 -0.5 36.5t-1 29.5t-1.5 29t-2 36q36 6 66.5 11.5t41.5 9.5l10 -7 q-3 -25 -4.5 -51.5t-3 -52.5t-2 -49t-0.5 -40v-242q0 -76 51 -76q23 0 50 16l17 -29q-22 -21 -52.5 -34t-62.5 -13q-16 0 -33 3.5t-30.5 14t-24 28.5t-14.5 45q-19 -17 -41 -34t-46 -30t-48.5 -21t-49.5 -8q-30 0 -59.5 13.5t-57.5 46.5l-6 -3q2 -62 7 -114.5t16.5 -101 t31 -94t49.5 -92.5v-2q-10 -25 -29 -41.5t-47 -16.5q-14 0 -24 6t-17 15.5t-11 22t-7 24.5q-13 66 -20 155.5t-7 184.5v425z" />
<glyph unicode="&#xb6;" horiz-adv-x="836" d="M413 190q-73 14 -134.5 46t-106.5 79t-70.5 106.5t-25.5 127.5q0 78 27.5 146t87 118t153.5 79t227 29q35 0 71.5 -1.5t76.5 -5.5l3 -33q-30 -2 -49.5 -6t-31.5 -10t-17.5 -12t-8.5 -11q-25 -51 -42.5 -116.5t-28.5 -134t-16.5 -134.5t-5.5 -118q0 -62 5.5 -132.5 t20 -143.5t41.5 -147.5t70 -142.5v-3q-8 -27 -29 -45t-48 -18q-29 0 -42 19.5t-19 44.5q-12 45 -22.5 103.5t-17 124t-10.5 133t-4 129.5q0 81 5 159.5t17.5 155t33 150t53.5 146.5h-56q-55 -124 -82 -270t-27 -325q0 -21 0.5 -43t1.5 -44z" />
<glyph unicode="&#xb8;" horiz-adv-x="666" d="M333 2q-51 -36 -69.5 -62.5t-18.5 -43.5q0 -16 13 -31.5t29 -31.5q15 -15 26.5 -30t11.5 -32q0 -30 -28 -30q-21 0 -37 11.5t-32 32.5q-16 -5 -31 -20t-15 -31q0 -13 6.5 -23.5t16.5 -17t21.5 -10t21.5 -3.5q30 0 57.5 16t48.5 38.5t33.5 47.5t12.5 42q0 16 -13.5 32 t-28.5 33q-14 15 -25.5 28.5t-11.5 26.5t11 26.5t38 27.5v4h-37z" />
<glyph unicode="&#xb9;" horiz-adv-x="499" d="M79 857l8 -38l131 19v-351q0 -30 -3 -49t-15 -29.5t-36 -15t-66 -5.5l2 -31q19 0 59 1t104 1q32 0 56.5 -0.5t42.5 -0.5q19 0 32 -0.5t24 -0.5l1 32q-39 1 -60.5 5.5t-32 12t-13 19.5t-2.5 28v328q0 11 0.5 28.5t1 36.5t2 38.5t3.5 36.5l-7 6q-57 -20 -114 -38t-118 -33z " />
<glyph unicode="&#xba;" horiz-adv-x="567" d="M57 584q0 -46 16 -85t45.5 -68t71 -46.5t93.5 -17.5q48 0 89 18t72 48t48.5 71t17.5 88q0 45 -16 84.5t-45.5 69t-72 46.5t-93.5 17q-48 0 -89 -17.5t-71.5 -48t-48 -71.5t-17.5 -88zM292 409q-34 0 -59 18.5t-40.5 47.5t-23 64t-7.5 67q0 29 6 58t20 51.5t36 37t52 14.5 q35 0 60 -18t40.5 -46.5t22.5 -63.5t7 -68q0 -29 -6.5 -58t-20.5 -51.5t-35.5 -37.5t-51.5 -15z" />
<glyph unicode="&#xbb;" horiz-adv-x="625" d="M321 265v13q-43 40 -92 94.5t-103 121.5l-31 -19l125 -204l-125 -203l31 -19q54 67 103 121.5t92 94.5zM530 265v13q-43 40 -92 94.5t-103 121.5l-31 -19l125 -204l-125 -203l31 -19q54 67 103 121.5t92 94.5z" />
<glyph unicode="&#xbc;" horiz-adv-x="1189" d="M885 63v-29q0 -8 -0.5 -21t-1.5 -31q28 2 50 3.5t45 2.5v116h82l4 58l-8 8l-78 -1v268q0 35 2 64.5t6 59.5l-40 8q-34 -45 -75.5 -99t-85.5 -111.5t-88.5 -115t-84.5 -107.5l13 -32l260 1v-42zM885 168l-189 -3q49 69 93 128.5t92 119.5l4 -1v-244zM879 962l-617 -982 l46 -31l620 983zM79 857l8 -38l131 19v-351q0 -30 -3 -49t-15 -29.5t-36 -15t-66 -5.5l2 -31q19 0 59 1t104 1q32 0 56.5 -0.5t42.5 -0.5q19 0 32 -0.5t24 -0.5l1 32q-39 1 -60.5 5.5t-32 12t-13 19.5t-2.5 28v328q0 11 0.5 28.5t1 36.5t2 38.5t3.5 36.5l-7 6 q-57 -20 -114 -38t-118 -33z" />
<glyph unicode="&#xbd;" horiz-adv-x="1189" d="M796 394q4 55 35 83q15 15 37 21.5t45 5.5t44 -9t37 -22t23 -34t7 -42q0 -21 -5 -42.5t-14 -38.5q-19 -37 -52.5 -72.5t-73.5 -73.5l-157 -148l7 -20q9 0 27 0.5t39 0.5t41.5 0.5t34.5 0.5q18 0 36 -0.5t45 -0.5q28 0 68.5 -0.5t106.5 -0.5q1 12 3.5 29.5t7 37t9.5 38 t9 34.5l-29 8q-11 -23 -20.5 -36.5t-18.5 -20.5t-18.5 -9.5t-21.5 -2.5l-203 -4l127 114q28 26 55 50.5t49 52t36 59t14 70.5q0 38 -18.5 67.5t-48 49t-65.5 29.5t-70 10q-46 0 -89.5 -14t-77.5 -39q3 -30 3.5 -60.5t0.5 -68.5zM879 962l-617 -982l46 -31l620 983zM79 857 l8 -38l131 19v-351q0 -30 -3 -49t-15 -29.5t-36 -15t-66 -5.5l2 -31q19 0 59 1t104 1q32 0 56.5 -0.5t42.5 -0.5q19 0 32 -0.5t24 -0.5l1 32q-39 1 -60.5 5.5t-32 12t-13 19.5t-2.5 28v328q0 11 0.5 28.5t1 36.5t2 38.5t3.5 36.5l-7 6q-57 -20 -114 -38t-118 -33z" />
<glyph unicode="&#xbe;" horiz-adv-x="1189" d="M885 63v-29q0 -8 -0.5 -21t-1.5 -31q28 2 50 3.5t45 2.5v116h82l4 58l-8 8l-78 -1v268q0 35 2 64.5t6 59.5l-40 8q-34 -45 -75.5 -99t-85.5 -111.5t-88.5 -115t-84.5 -107.5l13 -32l260 1v-42zM885 168l-189 -3q49 69 93 128.5t92 119.5l4 -1v-244zM879 962l-617 -982 l46 -31l620 983zM69 769l34 -2q2 49 35.5 74t81.5 25q20 0 38.5 -5t33 -15.5t23.5 -26.5t9 -37q0 -34 -18 -56t-44 -35t-58 -20t-60 -11l6 -40q32 8 62 8q63 0 99 -29.5t36 -92.5q0 -27 -8.5 -49.5t-23.5 -39t-37 -26t-48 -9.5q-43 0 -77.5 25t-50.5 68h-3q-26 -4 -44 -22 t-18 -37q0 -26 18 -43t44 -26.5t54.5 -13.5t49.5 -4q47 0 93 12t81.5 37t58 62.5t22.5 88.5q0 54 -33.5 95.5t-90.5 57.5v3q38 27 64 57.5t26 73.5q0 31 -18.5 53.5t-46 36.5t-60 20.5t-58.5 6.5q-49 0 -91 -12t-84 -33q2 -28 2.5 -55.5t0.5 -63.5z" />
<glyph unicode="&#xbf;" horiz-adv-x="498" d="M227 308q69 -54 103 -94.5t34 -85.5q0 -28 -13 -51t-32 -43.5t-42 -38t-44 -33.5q-20 -16 -38.5 -30t-32 -28.5t-21.5 -34t-8 -47.5q0 -40 26 -63.5t66 -23.5q43 0 70.5 20t51.5 55h6q20 -8 40 -25.5t20 -39.5q0 -24 -16 -42t-39 -30t-48 -18t-44 -6q-38 0 -78 20 t-73.5 52t-55 71.5t-21.5 78.5q0 30 13 53.5t33 44.5t43 38.5t45 34.5q19 15 35.5 28.5t27.5 26.5t17.5 28.5t6.5 34.5q0 34 -16.5 62.5t-43.5 56.5zM339 485q0 31 -21.5 53.5t-51.5 22.5t-52 -22t-22 -54q0 -31 21.5 -53.5t52.5 -22.5q30 0 51.5 22.5t21.5 53.5z" />
<glyph unicode="&#xc0;" horiz-adv-x="915" d="M548 1001l2 -7l-20 -23l-254 110l-2 12l74 62zM656 135q6 -17 9.5 -31t3.5 -24q0 -25 -23 -34t-76 -13l3 -32q40 0 81 1t81 1q49 0 96.5 -1t87.5 -1l3 34q-37 3 -60.5 8t-38.5 17.5t-26.5 36.5t-25.5 66l-214 620q-10 31 -22.5 69.5t-22.5 83.5l-60 -7q-10 -25 -18 -46.5 t-19 -49.5l-273 -645q-21 -49 -37 -77.5t-33.5 -45t-41 -23t-60.5 -9.5l1 -32q35 0 73 1t73 1q43 0 86.5 -1t79.5 -1l3 34q-60 3 -83.5 12.5t-23.5 34.5q0 20 19 68l73 188h317zM443 770h2l125 -377h-277z" />
<glyph unicode="&#xc1;" horiz-adv-x="915" d="M416 1001l-1 -7l20 -23l254 110l2 12l-75 62zM656 135q6 -17 9.5 -31t3.5 -24q0 -25 -23 -34t-76 -13l3 -32q40 0 81 1t81 1q49 0 96.5 -1t87.5 -1l3 34q-37 3 -60.5 8t-38.5 17.5t-26.5 36.5t-25.5 66l-214 620q-10 31 -22.5 69.5t-22.5 83.5l-60 -7q-10 -25 -18 -46.5 t-19 -49.5l-273 -645q-21 -49 -37 -77.5t-33.5 -45t-41 -23t-60.5 -9.5l1 -32q35 0 73 1t73 1q43 0 86.5 -1t79.5 -1l3 34q-60 3 -83.5 12.5t-23.5 34.5q0 20 19 68l73 188h317zM443 770h2l125 -377h-277z" />
<glyph unicode="&#xc2;" horiz-adv-x="915" d="M482 1074l143 -109l36 10l4 5l-141 175l-78 -5l-147 -170l4 -5l36 -10zM656 135q6 -17 9.5 -31t3.5 -24q0 -25 -23 -34t-76 -13l3 -32q40 0 81 1t81 1q49 0 96.5 -1t87.5 -1l3 34q-37 3 -60.5 8t-38.5 17.5t-26.5 36.5t-25.5 66l-214 620q-10 31 -22.5 69.5t-22.5 83.5 l-60 -7q-10 -25 -18 -46.5t-19 -49.5l-273 -645q-21 -49 -37 -77.5t-33.5 -45t-41 -23t-60.5 -9.5l1 -32q35 0 73 1t73 1q43 0 86.5 -1t79.5 -1l3 34q-60 3 -83.5 12.5t-23.5 34.5q0 20 19 68l73 188h317zM443 770h2l125 -377h-277z" />
<glyph unicode="&#xc3;" horiz-adv-x="915" d="M650 1116q-15 -22 -32.5 -37t-44.5 -15q-12 0 -29 6.5t-58 22.5q-19 8 -35.5 14.5t-35.5 6.5q-22 0 -40.5 -8.5t-35 -23.5t-29.5 -34.5t-22 -41.5l35 -16q14 22 32 36.5t43 14.5q12 0 30 -6.5t58 -22.5q19 -8 35.5 -14.5t34.5 -6.5q22 0 41 9t35.5 23.5t29 34.5t23.5 42z M656 135q6 -17 9.5 -31t3.5 -24q0 -25 -23 -34t-76 -13l3 -32q40 0 81 1t81 1q49 0 96.5 -1t87.5 -1l3 34q-37 3 -60.5 8t-38.5 17.5t-26.5 36.5t-25.5 66l-214 620q-10 31 -22.5 69.5t-22.5 83.5l-60 -7q-10 -25 -18 -46.5t-19 -49.5l-273 -645q-21 -49 -37 -77.5 t-33.5 -45t-41 -23t-60.5 -9.5l1 -32q35 0 73 1t73 1q43 0 86.5 -1t79.5 -1l3 34q-60 3 -83.5 12.5t-23.5 34.5q0 20 19 68l73 188h317zM443 770h2l125 -377h-277z" />
<glyph unicode="&#xc4;" horiz-adv-x="915" d="M612 990q-26 0 -43.5 18.5t-17.5 44.5q0 27 18 44.5t43 17.5q27 0 45 -18t18 -44t-18.5 -44.5t-44.5 -18.5zM351 990q-26 0 -44 18.5t-18 44.5t18 44t44 18q27 0 45 -18t18 -44t-18.5 -44.5t-44.5 -18.5zM656 135q6 -17 9.5 -31t3.5 -24q0 -25 -23 -34t-76 -13l3 -32 q40 0 81 1t81 1q49 0 96.5 -1t87.5 -1l3 34q-37 3 -60.5 8t-38.5 17.5t-26.5 36.5t-25.5 66l-214 620q-10 31 -22.5 69.5t-22.5 83.5l-60 -7q-10 -25 -18 -46.5t-19 -49.5l-273 -645q-21 -49 -37 -77.5t-33.5 -45t-41 -23t-60.5 -9.5l1 -32q35 0 73 1t73 1q43 0 86.5 -1 t79.5 -1l3 34q-60 3 -83.5 12.5t-23.5 34.5q0 20 19 68l73 188h317zM443 770h2l125 -377h-277z" />
<glyph unicode="&#xc5;" horiz-adv-x="915" d="M365 1065q0 21 9.5 39.5t26 32t37.5 21t44 7.5q26 0 47.5 -7.5t37 -21t24 -30.5t8.5 -37q0 -21 -9.5 -39t-26 -31t-37.5 -20.5t-44 -7.5q-51 0 -84 27t-33 67zM547 1065q0 28 -16.5 48t-48.5 20t-49 -18.5t-17 -45.5q0 -30 18 -48.5t48 -18.5q32 0 48.5 17.5t16.5 45.5z M656 135q6 -17 9.5 -31t3.5 -24q0 -25 -23 -34t-76 -13l3 -32q40 0 81 1t81 1q49 0 96.5 -1t87.5 -1l3 34q-37 3 -60.5 8t-38.5 17.5t-26.5 36.5t-25.5 66l-214 620q-10 31 -22.5 69.5t-22.5 83.5l-60 -7q-10 -25 -18 -46.5t-19 -49.5l-273 -645q-21 -49 -37 -77.5 t-33.5 -45t-41 -23t-60.5 -9.5l1 -32q35 0 73 1t73 1q43 0 86.5 -1t79.5 -1l3 34q-60 3 -83.5 12.5t-23.5 34.5q0 20 19 68l73 188h317zM443 770h2l125 -377h-277z" />
<glyph unicode="&#xc6;" horiz-adv-x="1271" d="M1238 222l-37 8q-22 -51 -40.5 -86.5t-42.5 -56.5t-58.5 -30t-89.5 -9h-61q-39 0 -62.5 4.5t-36 16.5t-16.5 33t-4 53v243q81 -1 159 -4t159 -10l2 77l-7 6l-313 -10v375q0 24 8 29.5t37 5.5h127q49 0 79.5 -7.5t49.5 -28t29.5 -56.5t18.5 -92l37 1q1 69 4 125t9 105 q-186 0 -299 -1t-151 -1q-23 0 -48 0.5t-51 0.5q-25 0 -48.5 0.5t-41.5 0.5l-3 -35q54 -2 83 -7t29 -17q0 -5 -5 -13l-471 -655q-32 -45 -56.5 -73.5t-48.5 -46.5t-51 -25.5t-65 -9.5l2 -32q35 0 75.5 1t75.5 1q43 0 84 -1t76 -1l3 34q-49 2 -69.5 9t-20.5 24q0 13 12 33 t32 49l172 248q47 1 83.5 1.5t68.5 0.5h61h63v-245q0 -36 -4.5 -58.5t-19 -35t-41 -19t-70.5 -9.5l3 -32q13 0 35.5 0.5t47.5 0.5t49.5 0.5t43.5 0.5q29 0 71 -0.5t101 -0.5q58 0 132.5 -0.5t168.5 -0.5q1 17 5 43.5t9.5 57t12 62t14.5 59.5zM680 794v-341l-241 -8z" />
<glyph unicode="&#xc7;" horiz-adv-x="964" d="M187 474q0 91 25.5 167t74.5 129.5t121.5 83.5t167.5 30q49 0 89.5 -13t71.5 -40t49.5 -68.5t22.5 -97.5l40 4q0 61 1.5 115.5t6.5 115.5q-57 15 -123 24t-124 9q-112 0 -213 -30t-177.5 -91t-121.5 -152t-45 -213q0 -103 35.5 -187t98 -144.5t149.5 -95t190 -38.5 q-35 -28 -48 -49.5t-13 -36.5q0 -16 13.5 -31.5t29.5 -31.5q15 -15 26.5 -30t11.5 -32q0 -30 -28 -30q-21 0 -37.5 11.5t-31.5 32.5q-16 -5 -31 -20t-15 -31q0 -13 6.5 -23.5t16.5 -17t21.5 -10t21.5 -3.5q30 0 57.5 16t48.5 38.5t33 47.5t12 42q0 16 -13 32t-28 33 q-14 15 -25.5 28.5t-11.5 26.5q0 10 4.5 18.5t16.5 18.5q69 2 140.5 14t142.5 33q7 63 16.5 118t25.5 118l-38 9q-25 -60 -50 -104t-60 -75q-36 -32 -83 -46.5t-98 -14.5q-94 0 -164 35t-116 94.5t-69 140t-23 171.5z" />
<glyph unicode="&#xc8;" horiz-adv-x="776" d="M475 1001l2 -7l-20 -23l-254 110l-2 12l74 62zM286 442q71 -2 155.5 -5t170.5 -11l2 79l-7 7l-321 -10v330q0 24 8 29.5t36 5.5h136q49 0 79.5 -8t49.5 -27.5t29.5 -52t18.5 -81.5l38 1q1 60 4 113t9 102q-184 0 -303 -1t-156 -1q-23 0 -48 0.5t-50 0.5q-24 0 -45.5 0.5 t-36.5 0.5l-3 -35q41 -2 65.5 -6.5t37 -14.5t17 -25.5t4.5 -37.5v-641q0 -36 -4.5 -58.5t-19 -35t-41 -19t-70.5 -9.5l3 -32q13 0 35.5 0.5t47.5 0.5t49.5 0.5t43.5 0.5q58 0 176 -1t306 -1q1 17 5 43.5t9.5 57t12.5 62t14 59.5l-37 8q-22 -51 -40.5 -86.5t-42 -56.5 t-58.5 -30t-90 -9h-71q-39 0 -62 4.5t-36 16.5t-16.5 33t-3.5 53v287z" />
<glyph unicode="&#xc9;" horiz-adv-x="776" d="M343 1001l-1 -7l20 -23l254 110l2 12l-75 62zM286 442q71 -2 155.5 -5t170.5 -11l2 79l-7 7l-321 -10v330q0 24 8 29.5t36 5.5h136q49 0 79.5 -8t49.5 -27.5t29.5 -52t18.5 -81.5l38 1q1 60 4 113t9 102q-184 0 -303 -1t-156 -1q-23 0 -48 0.5t-50 0.5q-24 0 -45.5 0.5 t-36.5 0.5l-3 -35q41 -2 65.5 -6.5t37 -14.5t17 -25.5t4.5 -37.5v-641q0 -36 -4.5 -58.5t-19 -35t-41 -19t-70.5 -9.5l3 -32q13 0 35.5 0.5t47.5 0.5t49.5 0.5t43.5 0.5q58 0 176 -1t306 -1q1 17 5 43.5t9.5 57t12.5 62t14 59.5l-37 8q-22 -51 -40.5 -86.5t-42 -56.5 t-58.5 -30t-90 -9h-71q-39 0 -62 4.5t-36 16.5t-16.5 33t-3.5 53v287z" />
<glyph unicode="&#xca;" horiz-adv-x="776" d="M409 1074l143 -109l36 10l4 5l-141 175l-78 -5l-147 -170l4 -5l36 -10zM286 442q71 -2 155.5 -5t170.5 -11l2 79l-7 7l-321 -10v330q0 24 8 29.5t36 5.5h136q49 0 79.5 -8t49.5 -27.5t29.5 -52t18.5 -81.5l38 1q1 60 4 113t9 102q-184 0 -303 -1t-156 -1q-23 0 -48 0.5 t-50 0.5q-24 0 -45.5 0.5t-36.5 0.5l-3 -35q41 -2 65.5 -6.5t37 -14.5t17 -25.5t4.5 -37.5v-641q0 -36 -4.5 -58.5t-19 -35t-41 -19t-70.5 -9.5l3 -32q13 0 35.5 0.5t47.5 0.5t49.5 0.5t43.5 0.5q58 0 176 -1t306 -1q1 17 5 43.5t9.5 57t12.5 62t14 59.5l-37 8 q-22 -51 -40.5 -86.5t-42 -56.5t-58.5 -30t-90 -9h-71q-39 0 -62 4.5t-36 16.5t-16.5 33t-3.5 53v287z" />
<glyph unicode="&#xcb;" horiz-adv-x="776" d="M539 990q-26 0 -43.5 18.5t-17.5 44.5q0 27 18 44.5t43 17.5q27 0 45 -18t18 -44t-18.5 -44.5t-44.5 -18.5zM278 990q-26 0 -44 18.5t-18 44.5t18 44t44 18q27 0 45 -18t18 -44t-18.5 -44.5t-44.5 -18.5zM286 442q71 -2 155.5 -5t170.5 -11l2 79l-7 7l-321 -10v330 q0 24 8 29.5t36 5.5h136q49 0 79.5 -8t49.5 -27.5t29.5 -52t18.5 -81.5l38 1q1 60 4 113t9 102q-184 0 -303 -1t-156 -1q-23 0 -48 0.5t-50 0.5q-24 0 -45.5 0.5t-36.5 0.5l-3 -35q41 -2 65.5 -6.5t37 -14.5t17 -25.5t4.5 -37.5v-641q0 -36 -4.5 -58.5t-19 -35t-41 -19 t-70.5 -9.5l3 -32q13 0 35.5 0.5t47.5 0.5t49.5 0.5t43.5 0.5q58 0 176 -1t306 -1q1 17 5 43.5t9.5 57t12.5 62t14 59.5l-37 8q-22 -51 -40.5 -86.5t-42 -56.5t-58.5 -30t-90 -9h-71q-39 0 -62 4.5t-36 16.5t-16.5 33t-3.5 53v287z" />
<glyph unicode="&#xcc;" horiz-adv-x="461" d="M317 1001l2 -7l-20 -23l-254 110l-2 12l74 62zM61 0q13 0 32.5 0.5t41.5 0.5t44 0.5t41 0.5q23 0 48.5 -0.5t50.5 -0.5q26 0 48 -0.5t37 -0.5l2 34q-40 2 -63.5 7t-36.5 15t-16.5 25t-3.5 38v641q0 35 4.5 57.5t18 35.5t36 19t59.5 9l-2 33q-13 0 -33 -0.5t-42 -0.5 t-44 -0.5t-40 -0.5q-23 0 -49.5 0.5t-51.5 0.5t-47 0.5t-37 0.5l-2 -35q39 -2 63 -6.5t36.5 -14.5t16.5 -25.5t4 -37.5v-641q0 -36 -4.5 -58.5t-17.5 -35t-36 -19t-60 -9.5z" />
<glyph unicode="&#xcd;" horiz-adv-x="461" d="M147 1001l-1 -7l20 -23l254 110l2 12l-75 62zM61 0q13 0 32.5 0.5t41.5 0.5t44 0.5t41 0.5q23 0 48.5 -0.5t50.5 -0.5q26 0 48 -0.5t37 -0.5l2 34q-40 2 -63.5 7t-36.5 15t-16.5 25t-3.5 38v641q0 35 4.5 57.5t18 35.5t36 19t59.5 9l-2 33q-13 0 -33 -0.5t-42 -0.5 t-44 -0.5t-40 -0.5q-23 0 -49.5 0.5t-51.5 0.5t-47 0.5t-37 0.5l-2 -35q39 -2 63 -6.5t36.5 -14.5t16.5 -25.5t4 -37.5v-641q0 -36 -4.5 -58.5t-17.5 -35t-36 -19t-60 -9.5z" />
<glyph unicode="&#xce;" horiz-adv-x="461" d="M232 1074l143 -109l36 10l4 5l-141 175l-78 -5l-147 -170l4 -5l36 -10zM61 0q13 0 32.5 0.5t41.5 0.5t44 0.5t41 0.5q23 0 48.5 -0.5t50.5 -0.5q26 0 48 -0.5t37 -0.5l2 34q-40 2 -63.5 7t-36.5 15t-16.5 25t-3.5 38v641q0 35 4.5 57.5t18 35.5t36 19t59.5 9l-2 33 q-13 0 -33 -0.5t-42 -0.5t-44 -0.5t-40 -0.5q-23 0 -49.5 0.5t-51.5 0.5t-47 0.5t-37 0.5l-2 -35q39 -2 63 -6.5t36.5 -14.5t16.5 -25.5t4 -37.5v-641q0 -36 -4.5 -58.5t-17.5 -35t-36 -19t-60 -9.5z" />
<glyph unicode="&#xcf;" horiz-adv-x="461" d="M362 990q-26 0 -43.5 18.5t-17.5 44.5q0 27 18 44.5t43 17.5q27 0 45 -18t18 -44t-18.5 -44.5t-44.5 -18.5zM101 990q-26 0 -44 18.5t-18 44.5t18 44t44 18q27 0 45 -18t18 -44t-18.5 -44.5t-44.5 -18.5zM61 0q13 0 32.5 0.5t41.5 0.5t44 0.5t41 0.5q23 0 48.5 -0.5 t50.5 -0.5q26 0 48 -0.5t37 -0.5l2 34q-40 2 -63.5 7t-36.5 15t-16.5 25t-3.5 38v641q0 35 4.5 57.5t18 35.5t36 19t59.5 9l-2 33q-13 0 -33 -0.5t-42 -0.5t-44 -0.5t-40 -0.5q-23 0 -49.5 0.5t-51.5 0.5t-47 0.5t-37 0.5l-2 -35q39 -2 63 -6.5t36.5 -14.5t16.5 -25.5 t4 -37.5v-641q0 -36 -4.5 -58.5t-17.5 -35t-36 -19t-60 -9.5z" />
<glyph unicode="&#xd0;" horiz-adv-x="1027" d="M55 453h121v-299q0 -36 -4.5 -58.5t-17.5 -35.5t-38 -19t-65 -9l3 -32q15 0 35 0.5t42 0.5t43.5 0.5t40.5 0.5q49 0 104 -6t104 -6q109 0 207.5 33.5t172.5 98.5t118 159t44 216q0 118 -44.5 199.5t-118 131.5t-168.5 72t-198 22q-49 0 -102.5 -5t-102.5 -5t-97.5 1 t-83.5 1l-1 -35q43 -2 68.5 -6t38 -14t16.5 -26t4 -42v-283h-125zM286 828q0 9 11 16.5t30 14t45 10.5t56 4q87 0 161 -26t128.5 -77t85.5 -126.5t31 -176.5q0 -99 -30 -178t-84.5 -134t-130 -84t-167.5 -29q-51 0 -79 9.5t-40.5 26.5t-14.5 40.5t-2 50.5v284h276l4 55h-280 v320z" />
<glyph unicode="&#xd1;" horiz-adv-x="1049" d="M696 1116q-15 -22 -32.5 -37t-44.5 -15q-12 0 -29 6.5t-58 22.5q-19 8 -35.5 14.5t-35.5 6.5q-22 0 -40.5 -8.5t-35 -23.5t-29.5 -34.5t-22 -41.5l35 -16q14 22 32 36.5t43 14.5q12 0 30 -6.5t58 -22.5q19 -8 35.5 -14.5t34.5 -6.5q22 0 41 9t35.5 23.5t29 34.5t23.5 42z M888 -4v716q0 57 5.5 89.5t19.5 48.5t38 21.5t61 9.5l-1 33q-13 0 -31 -0.5t-37.5 -1t-39.5 -1t-38 -0.5q-46 0 -87.5 1t-72.5 1l-2 -35q39 -3 64 -7t39 -17t19.5 -38t5.5 -70v-551l-3 -2l-609 719q-26 0 -55.5 0.5t-56.5 0.5q-28 0 -50.5 0.5t-33.5 0.5l-2 -35 q27 -2 45 -4.5t30 -8.5t22 -14.5t19 -20.5q10 -11 15.5 -22t9 -26.5t4.5 -40t1 -64.5v-477q0 -57 -6 -89.5t-20.5 -48.5t-39.5 -21.5t-63 -9.5l3 -32q33 0 72.5 1t75.5 1q46 0 87.5 -1t71.5 -1l2 34q-39 3 -63 7.5t-38.5 17t-19.5 38t-5 70.5v556l3 2l510 -604 q28 -33 52.5 -66t48.5 -68z" />
<glyph unicode="&#xd2;" horiz-adv-x="1067" d="M600 1001l2 -7l-20 -23l-254 110l-2 12l74 62zM534 933q-106 0 -192.5 -36.5t-148.5 -101t-96 -153.5t-34 -195q0 -107 34.5 -193t97 -146.5t149 -93.5t190.5 -33q106 0 192.5 36t148 101t96 154t34.5 194q0 107 -35 193t-96.5 147t-148.5 94t-191 33zM528 881 q61 0 122.5 -22t111 -75t81 -139.5t31.5 -214.5q0 -108 -28 -184t-74 -123.5t-106.5 -69t-125.5 -21.5q-61 0 -122.5 22.5t-111 75.5t-81 139.5t-31.5 213.5q0 108 27.5 184t74 123.5t106.5 69t126 21.5z" />
<glyph unicode="&#xd3;" horiz-adv-x="1067" d="M468 1001l-1 -7l20 -23l254 110l2 12l-75 62zM534 933q-106 0 -192.5 -36.5t-148.5 -101t-96 -153.5t-34 -195q0 -107 34.5 -193t97 -146.5t149 -93.5t190.5 -33q106 0 192.5 36t148 101t96 154t34.5 194q0 107 -35 193t-96.5 147t-148.5 94t-191 33zM528 881 q61 0 122.5 -22t111 -75t81 -139.5t31.5 -214.5q0 -108 -28 -184t-74 -123.5t-106.5 -69t-125.5 -21.5q-61 0 -122.5 22.5t-111 75.5t-81 139.5t-31.5 213.5q0 108 27.5 184t74 123.5t106.5 69t126 21.5z" />
<glyph unicode="&#xd4;" horiz-adv-x="1067" d="M534 1074l143 -109l36 10l4 5l-141 175l-78 -5l-147 -170l4 -5l36 -10zM534 933q-106 0 -192.5 -36.5t-148.5 -101t-96 -153.5t-34 -195q0 -107 34.5 -193t97 -146.5t149 -93.5t190.5 -33q106 0 192.5 36t148 101t96 154t34.5 194q0 107 -35 193t-96.5 147t-148.5 94 t-191 33zM528 881q61 0 122.5 -22t111 -75t81 -139.5t31.5 -214.5q0 -108 -28 -184t-74 -123.5t-106.5 -69t-125.5 -21.5q-61 0 -122.5 22.5t-111 75.5t-81 139.5t-31.5 213.5q0 108 27.5 184t74 123.5t106.5 69t126 21.5z" />
<glyph unicode="&#xd5;" horiz-adv-x="1067" d="M702 1116q-15 -22 -32.5 -37t-44.5 -15q-12 0 -29 6.5t-58 22.5q-19 8 -35.5 14.5t-35.5 6.5q-22 0 -40.5 -8.5t-35 -23.5t-29.5 -34.5t-22 -41.5l35 -16q14 22 32 36.5t43 14.5q12 0 30 -6.5t58 -22.5q19 -8 35.5 -14.5t34.5 -6.5q22 0 41 9t35.5 23.5t29 34.5t23.5 42z M534 933q-106 0 -192.5 -36.5t-148.5 -101t-96 -153.5t-34 -195q0 -107 34.5 -193t97 -146.5t149 -93.5t190.5 -33q106 0 192.5 36t148 101t96 154t34.5 194q0 107 -35 193t-96.5 147t-148.5 94t-191 33zM528 881q61 0 122.5 -22t111 -75t81 -139.5t31.5 -214.5 q0 -108 -28 -184t-74 -123.5t-106.5 -69t-125.5 -21.5q-61 0 -122.5 22.5t-111 75.5t-81 139.5t-31.5 213.5q0 108 27.5 184t74 123.5t106.5 69t126 21.5z" />
<glyph unicode="&#xd6;" horiz-adv-x="1067" d="M664 990q-26 0 -43.5 18.5t-17.5 44.5q0 27 18 44.5t43 17.5q27 0 45 -18t18 -44t-18.5 -44.5t-44.5 -18.5zM403 990q-26 0 -44 18.5t-18 44.5t18 44t44 18q27 0 45 -18t18 -44t-18.5 -44.5t-44.5 -18.5zM534 933q-106 0 -192.5 -36.5t-148.5 -101t-96 -153.5t-34 -195 q0 -107 34.5 -193t97 -146.5t149 -93.5t190.5 -33q106 0 192.5 36t148 101t96 154t34.5 194q0 107 -35 193t-96.5 147t-148.5 94t-191 33zM528 881q61 0 122.5 -22t111 -75t81 -139.5t31.5 -214.5q0 -108 -28 -184t-74 -123.5t-106.5 -69t-125.5 -21.5q-61 0 -122.5 22.5 t-111 75.5t-81 139.5t-31.5 213.5q0 108 27.5 184t74 123.5t106.5 69t126 21.5z" />
<glyph unicode="&#xd7;" horiz-adv-x="789" d="M319 1263l-171 -68l-15 -9l-38 -10l-9 -4q-62 -14 -115 -29q-43 -19 -76 -19l-14 -5l-128 -28l-15 -5l-66 -10q-30 -10 -54 -9q-29 -10 -47 -10q29 -19 52 -23h111l33 4l33 5l52 5q14 0 20 5q29 0 47 4l95 19h15l180 53q43 10 77 23q-33 -190 42 -280q-124 -267 -81 -525 q33 -248 263 -215q57 38 86 86q24 87 9 158q-14 -5 -19 -10q-76 -191 -229 -95q-33 29 -48 67q-48 266 57 496q272 33 254 295l-24 23q-171 -38 -225 -195q-24 19 -38 38q-24 90 0 172q439 167 344 405l-38 9q-243 -99 -320 -318zM629 1429q-105 -105 -233 -142 q76 114 181 171q44 2 52 -29zM443 943l-14 10q33 71 100 95q85 -24 -86 -105zM567 -134q-17 -57 -24 -73q-10 -21 -22 -31q-11 -10 -75.5 12.5t-64.5 49.5q0 9 5.5 16.5t32.5 68.5q17 42 38 42q6 0 13 -3q34 -16 69 -34q30 -17 30 -37q0 -3 -2 -11z" />
<glyph unicode="&#xd8;" horiz-adv-x="1067" d="M534 933q-106 0 -192.5 -36.5t-148.5 -101t-96 -153.5t-34 -195q0 -123 43 -215.5t121 -153.5l-69 -99l44 -33l71 101q55 -32 121 -49t140 -17q106 0 192.5 36t148 101t96 154t34.5 194q0 124 -44.5 218t-125.5 155l66 95l-47 27l-65 -91q-54 30 -117.5 46.5t-137.5 16.5 zM874 430q0 -108 -28 -184t-74 -123.5t-106.5 -69t-125.5 -21.5q-57 0 -113.5 18.5t-104.5 64.5l457 647q43 -54 69 -134.5t26 -197.5zM528 881q54 0 109.5 -17.5t103.5 -60.5l-457 -647q-41 54 -65.5 133.5t-24.5 193.5q0 108 27.5 184t74 123.5t106.5 69t126 21.5z" />
<glyph unicode="&#xd9;" horiz-adv-x="996" d="M593 1001l2 -7l-20 -23l-254 110l-2 12l74 62zM270 754q0 35 5.5 58.5t19.5 37.5t40 20.5t67 9.5l-3 33q-16 0 -37.5 -0.5t-45.5 -0.5t-47 -0.5t-43 -0.5q-24 0 -51 0.5t-53 0.5t-49.5 0.5t-40.5 0.5l-2 -35q43 -2 69 -7.5t39.5 -16.5t18 -27t4.5 -39v-508 q0 -76 27.5 -132.5t73.5 -93.5t106 -55t126 -18q67 0 131 18.5t115 60t82.5 106t31.5 158.5v402q0 51 5.5 81t21 45t42 20t68.5 9l-1 33q-30 0 -76 -1.5t-88 -1.5q-51 0 -98.5 1t-80.5 1l-2 -35q47 -3 76.5 -8.5t46 -19.5t23 -40t6.5 -68v-399q0 -77 -21.5 -132t-58 -89.5 t-83 -50.5t-97.5 -16q-50 0 -98 15t-85.5 46t-60.5 80t-23 117v441z" />
<glyph unicode="&#xda;" horiz-adv-x="996" d="M461 1001l-1 -7l20 -23l254 110l2 12l-75 62zM270 754q0 35 5.5 58.5t19.5 37.5t40 20.5t67 9.5l-3 33q-16 0 -37.5 -0.5t-45.5 -0.5t-47 -0.5t-43 -0.5q-24 0 -51 0.5t-53 0.5t-49.5 0.5t-40.5 0.5l-2 -35q43 -2 69 -7.5t39.5 -16.5t18 -27t4.5 -39v-508 q0 -76 27.5 -132.5t73.5 -93.5t106 -55t126 -18q67 0 131 18.5t115 60t82.5 106t31.5 158.5v402q0 51 5.5 81t21 45t42 20t68.5 9l-1 33q-30 0 -76 -1.5t-88 -1.5q-51 0 -98.5 1t-80.5 1l-2 -35q47 -3 76.5 -8.5t46 -19.5t23 -40t6.5 -68v-399q0 -77 -21.5 -132t-58 -89.5 t-83 -50.5t-97.5 -16q-50 0 -98 15t-85.5 46t-60.5 80t-23 117v441z" />
<glyph unicode="&#xdb;" horiz-adv-x="996" d="M527 1074l143 -109l36 10l4 5l-141 175l-78 -5l-147 -170l4 -5l36 -10zM270 754q0 35 5.5 58.5t19.5 37.5t40 20.5t67 9.5l-3 33q-16 0 -37.5 -0.5t-45.5 -0.5t-47 -0.5t-43 -0.5q-24 0 -51 0.5t-53 0.5t-49.5 0.5t-40.5 0.5l-2 -35q43 -2 69 -7.5t39.5 -16.5t18 -27 t4.5 -39v-508q0 -76 27.5 -132.5t73.5 -93.5t106 -55t126 -18q67 0 131 18.5t115 60t82.5 106t31.5 158.5v402q0 51 5.5 81t21 45t42 20t68.5 9l-1 33q-30 0 -76 -1.5t-88 -1.5q-51 0 -98.5 1t-80.5 1l-2 -35q47 -3 76.5 -8.5t46 -19.5t23 -40t6.5 -68v-399 q0 -77 -21.5 -132t-58 -89.5t-83 -50.5t-97.5 -16q-50 0 -98 15t-85.5 46t-60.5 80t-23 117v441z" />
<glyph unicode="&#xdc;" horiz-adv-x="996" d="M657 990q-26 0 -43.5 18.5t-17.5 44.5q0 27 18 44.5t43 17.5q27 0 45 -18t18 -44t-18.5 -44.5t-44.5 -18.5zM396 990q-26 0 -44 18.5t-18 44.5t18 44t44 18q27 0 45 -18t18 -44t-18.5 -44.5t-44.5 -18.5zM270 754q0 35 5.5 58.5t19.5 37.5t40 20.5t67 9.5l-3 33 q-16 0 -37.5 -0.5t-45.5 -0.5t-47 -0.5t-43 -0.5q-24 0 -51 0.5t-53 0.5t-49.5 0.5t-40.5 0.5l-2 -35q43 -2 69 -7.5t39.5 -16.5t18 -27t4.5 -39v-508q0 -76 27.5 -132.5t73.5 -93.5t106 -55t126 -18q67 0 131 18.5t115 60t82.5 106t31.5 158.5v402q0 51 5.5 81t21 45t42 20 t68.5 9l-1 33q-30 0 -76 -1.5t-88 -1.5q-51 0 -98.5 1t-80.5 1l-2 -35q47 -3 76.5 -8.5t46 -19.5t23 -40t6.5 -68v-399q0 -77 -21.5 -132t-58 -89.5t-83 -50.5t-97.5 -16q-50 0 -98 15t-85.5 46t-60.5 80t-23 117v441z" />
<glyph unicode="&#xdd;" horiz-adv-x="827" d="M371 1001l-1 -7l20 -23l254 110l2 12l-75 62zM362 154q0 -36 -4.5 -58.5t-18 -35.5t-40 -19t-70.5 -9l3 -32q18 0 41 0.5t46 0.5t45 0.5t41 0.5q23 0 49.5 -0.5t52.5 -0.5q27 0 52 -0.5t45 -0.5l2 34q-47 2 -74 7t-40 15t-17 25t-4 38v188q0 24 0.5 40.5t5.5 35t15 42 t30 62.5q20 40 55.5 102.5t83.5 143.5q27 45 45.5 72.5t37.5 43.5t43.5 22.5t61.5 9.5l-3 33q-35 0 -72.5 -1t-73.5 -1q-43 0 -81.5 1t-74.5 1l-2 -35q54 -4 76 -12t22 -26q0 -13 -8.5 -31.5t-23.5 -46.5l-167 -302l-174 318q-11 22 -17.5 37.5t-6.5 26.5q0 17 19.5 25.5 t70.5 12.5l-3 33q-40 0 -81.5 -1t-81.5 -1q-49 0 -96.5 1t-87.5 1l-2 -35q37 -3 61 -9t41.5 -19.5t33 -37t37.5 -60.5q56 -93 93 -158t62 -111q19 -34 29.5 -57t16 -42.5t6.5 -39t1 -46.5v-145z" />
<glyph unicode="&#xde;" horiz-adv-x="766" d="M286 760q0 35 4 57.5t18 36t38.5 19t64.5 8.5l-3 33q-13 0 -33.5 -0.5t-44.5 -0.5q-23 0 -46 -0.5t-41 -0.5q-23 0 -49.5 0.5t-50.5 0.5q-25 0 -47 0.5t-37 0.5l-2 -35q40 -2 64 -6.5t35.5 -14.5t15.5 -25.5t4 -37.5v-641q0 -36 -4.5 -58.5t-16.5 -35t-34.5 -19 t-59.5 -9.5l2 -32q13 0 32 0.5t40 0.5q22 0 44 0.5t40 0.5q23 0 50 -0.5t53 -0.5q27 0 49.5 -0.5t37.5 -0.5l2 34q-43 1 -68 6.5t-38 16t-16 26t-3 38.5v95q18 -8 48 -12.5t66 -4.5q60 0 120 17.5t108.5 53t79 90t30.5 127.5t-28 123t-74.5 81t-108 44.5t-128.5 13.5 q-28 0 -57 -2.5t-56 -7.5v21zM286 631q0 20 2.5 33t12.5 21t29 11t53 3q107 0 166 -53.5t59 -163.5q0 -68 -21 -112.5t-53 -71t-71 -37.5t-76 -11q-30 0 -55 3.5t-46 10.5v367z" />
<glyph unicode="&#xdf;" horiz-adv-x="742" d="M41 491h90v-343q0 -35 -3 -57t-13 -34.5t-28.5 -18t-50.5 -8.5l3 -30q27 0 64 1t74 1q46 0 77.5 -1t62.5 -1l3 35q-25 1 -41 4t-26.5 10t-15 21.5t-4.5 37.5v607q0 28 1 57.5t6 57t15 51.5t29 40q36 28 87 28q33 0 64 -10.5t55 -30.5t38 -49t14 -66q0 -54 -19.5 -89 t-46.5 -63q-19 -19 -39 -37.5t-36.5 -40t-26.5 -47.5t-10 -60q0 -31 12 -57t31.5 -47.5t44.5 -40t50 -35.5q23 -16 44.5 -33t38 -35.5t26.5 -39.5t10 -46q0 -43 -23.5 -71t-66.5 -28q-34 0 -58.5 13t-41.5 34.5t-28.5 48.5t-20.5 52l-32 -9q10 -46 15.5 -82.5t8.5 -71.5 q39 -6 71.5 -16.5t71.5 -10.5q40 0 76.5 13t64 36.5t44.5 58.5t17 78q0 30 -10.5 55t-28.5 46.5t-40 39.5t-46 35q-26 18 -50.5 35.5t-44 36t-31.5 40t-12 47.5q0 33 14 56.5t36 45.5q21 21 45.5 41.5t45.5 46.5t34.5 59t13.5 80t-16.5 83t-44.5 60.5t-65 37.5t-77 13 q-57 0 -109.5 -22.5t-92.5 -56.5q-51 -46 -80 -112.5t-29 -155.5v-100q0 -14 -3 -23.5t-13.5 -15t-29 -9.5t-48.5 -8z" />
<glyph unicode="&#xe0;" horiz-adv-x="590" d="M319 617l-3 -6l-33 -6l-148 233l5 11l100 8zM373 307q-77 -8 -132.5 -21.5t-89.5 -26.5q-46 -19 -74 -54t-28 -83q0 -29 10 -54t29 -44.5t44.5 -31t56.5 -11.5q27 0 56.5 10.5t55 24.5t45.5 27t30 20q10 -44 38 -62t61 -18q32 0 64 13.5t54 33.5l-17 26q-27 -16 -50 -16 q-26 0 -40 21t-14 58q0 91 2 166t2 132q0 42 -12.5 70t-35.5 44.5t-55.5 23t-73.5 6.5q-5 0 -33.5 -7.5t-61.5 -21.5q-25 -10 -49 -24t-43.5 -29.5t-31 -31.5t-11.5 -31q0 -20 19.5 -30t40.5 -10q27 0 42 12q0 23 6.5 43.5t19 36t32 25t47.5 9.5q51 0 74.5 -31.5t23.5 -80.5 v-45v-21q0 -10 -1 -17zM371 108q-28 -25 -61 -39t-64 -14q-43 0 -63 27.5t-20 67.5q0 33 24 55q15 14 37 24.5t46.5 17t50.5 11t52 7.5q0 -40 -1 -78.5t-1 -78.5z" />
<glyph unicode="&#xe1;" horiz-adv-x="590" d="M265 617l3 -6l34 -6l147 233l-5 11l-100 8zM373 307q-77 -8 -132.5 -21.5t-89.5 -26.5q-46 -19 -74 -54t-28 -83q0 -29 10 -54t29 -44.5t44.5 -31t56.5 -11.5q27 0 56.5 10.5t55 24.5t45.5 27t30 20q10 -44 38 -62t61 -18q32 0 64 13.5t54 33.5l-17 26q-27 -16 -50 -16 q-26 0 -40 21t-14 58q0 91 2 166t2 132q0 42 -12.5 70t-35.5 44.5t-55.5 23t-73.5 6.5q-5 0 -33.5 -7.5t-61.5 -21.5q-25 -10 -49 -24t-43.5 -29.5t-31 -31.5t-11.5 -31q0 -20 19.5 -30t40.5 -10q27 0 42 12q0 23 6.5 43.5t19 36t32 25t47.5 9.5q51 0 74.5 -31.5t23.5 -80.5 v-45v-21q0 -10 -1 -17zM371 108q-28 -25 -61 -39t-64 -14q-43 0 -63 27.5t-20 67.5q0 33 24 55q15 14 37 24.5t46.5 17t50.5 11t52 7.5q0 -40 -1 -78.5t-1 -78.5z" />
<glyph unicode="&#xe2;" horiz-adv-x="590" d="M292 775l141 -170l38 5l4 6l-141 241l-78 -5l-147 -236l4 -6l38 -5zM373 307q-77 -8 -132.5 -21.5t-89.5 -26.5q-46 -19 -74 -54t-28 -83q0 -29 10 -54t29 -44.5t44.5 -31t56.5 -11.5q27 0 56.5 10.5t55 24.5t45.5 27t30 20q10 -44 38 -62t61 -18q32 0 64 13.5t54 33.5 l-17 26q-27 -16 -50 -16q-26 0 -40 21t-14 58q0 91 2 166t2 132q0 42 -12.5 70t-35.5 44.5t-55.5 23t-73.5 6.5q-5 0 -33.5 -7.5t-61.5 -21.5q-25 -10 -49 -24t-43.5 -29.5t-31 -31.5t-11.5 -31q0 -20 19.5 -30t40.5 -10q27 0 42 12q0 23 6.5 43.5t19 36t32 25t47.5 9.5 q51 0 74.5 -31.5t23.5 -80.5v-45v-21q0 -10 -1 -17zM371 108q-28 -25 -61 -39t-64 -14q-43 0 -63 27.5t-20 67.5q0 33 24 55q15 14 37 24.5t46.5 17t50.5 11t52 7.5q0 -40 -1 -78.5t-1 -78.5z" />
<glyph unicode="&#xe3;" horiz-adv-x="590" d="M471 798q-16 -24 -34.5 -40t-46.5 -16q-7 0 -14 2t-17.5 5.5t-25.5 9.5t-36 15q-21 8 -38.5 15.5t-36.5 7.5q-24 0 -44 -9.5t-37 -25.5t-31 -37.5t-24 -44.5l37 -17q16 24 34.5 40t46.5 16q12 0 31 -7.5t62 -24.5q21 -8 38.5 -15.5t36.5 -7.5q24 0 44 9.5t37 26t31 37.5 t24 44zM373 307q-77 -8 -132.5 -21.5t-89.5 -26.5q-46 -19 -74 -54t-28 -83q0 -29 10 -54t29 -44.5t44.5 -31t56.5 -11.5q27 0 56.5 10.5t55 24.5t45.5 27t30 20q10 -44 38 -62t61 -18q32 0 64 13.5t54 33.5l-17 26q-27 -16 -50 -16q-26 0 -40 21t-14 58q0 91 2 166t2 132 q0 42 -12.5 70t-35.5 44.5t-55.5 23t-73.5 6.5q-5 0 -33.5 -7.5t-61.5 -21.5q-25 -10 -49 -24t-43.5 -29.5t-31 -31.5t-11.5 -31q0 -20 19.5 -30t40.5 -10q27 0 42 12q0 23 6.5 43.5t19 36t32 25t47.5 9.5q51 0 74.5 -31.5t23.5 -80.5v-45v-21q0 -10 -1 -17zM371 108 q-28 -25 -61 -39t-64 -14q-43 0 -63 27.5t-20 67.5q0 33 24 55q15 14 37 24.5t46.5 17t50.5 11t52 7.5q0 -40 -1 -78.5t-1 -78.5z" />
<glyph unicode="&#xe4;" horiz-adv-x="590" d="M413 683q-26 0 -44 18.5t-18 44.5q0 27 18 45t44 18q27 0 45 -18t18 -45q0 -26 -18.5 -44.5t-44.5 -18.5zM170 683q-26 0 -44 18.5t-18 44.5t18.5 44.5t43.5 18.5q27 0 45 -18t18 -45q0 -26 -18.5 -44.5t-44.5 -18.5zM373 307q-77 -8 -132.5 -21.5t-89.5 -26.5 q-46 -19 -74 -54t-28 -83q0 -29 10 -54t29 -44.5t44.5 -31t56.5 -11.5q27 0 56.5 10.5t55 24.5t45.5 27t30 20q10 -44 38 -62t61 -18q32 0 64 13.5t54 33.5l-17 26q-27 -16 -50 -16q-26 0 -40 21t-14 58q0 91 2 166t2 132q0 42 -12.5 70t-35.5 44.5t-55.5 23t-73.5 6.5 q-5 0 -33.5 -7.5t-61.5 -21.5q-25 -10 -49 -24t-43.5 -29.5t-31 -31.5t-11.5 -31q0 -20 19.5 -30t40.5 -10q27 0 42 12q0 23 6.5 43.5t19 36t32 25t47.5 9.5q51 0 74.5 -31.5t23.5 -80.5v-45v-21q0 -10 -1 -17zM371 108q-28 -25 -61 -39t-64 -14q-43 0 -63 27.5t-20 67.5 q0 33 24 55q15 14 37 24.5t46.5 17t50.5 11t52 7.5q0 -40 -1 -78.5t-1 -78.5z" />
<glyph unicode="&#xe5;" horiz-adv-x="590" d="M172 730q0 24 10 45t26.5 36t38 23.5t45.5 8.5q26 0 48.5 -9t38 -23.5t24.5 -34.5t9 -42q0 -24 -10 -44.5t-26.5 -35t-38 -23.5t-45.5 -9q-27 0 -48.5 8.5t-37.5 23t-25 34t-9 42.5zM359 730q0 32 -17 57t-50 25t-50 -22.5t-17 -55.5q0 -35 18.5 -57.5t48.5 -22.5 q33 0 50 21.5t17 54.5zM373 307q-77 -8 -132.5 -21.5t-89.5 -26.5q-46 -19 -74 -54t-28 -83q0 -29 10 -54t29 -44.5t44.5 -31t56.5 -11.5q27 0 56.5 10.5t55 24.5t45.5 27t30 20q10 -44 38 -62t61 -18q32 0 64 13.5t54 33.5l-17 26q-27 -16 -50 -16q-26 0 -40 21t-14 58 q0 91 2 166t2 132q0 42 -12.5 70t-35.5 44.5t-55.5 23t-73.5 6.5q-5 0 -33.5 -7.5t-61.5 -21.5q-25 -10 -49 -24t-43.5 -29.5t-31 -31.5t-11.5 -31q0 -20 19.5 -30t40.5 -10q27 0 42 12q0 23 6.5 43.5t19 36t32 25t47.5 9.5q51 0 74.5 -31.5t23.5 -80.5v-45v-21 q0 -10 -1 -17zM371 108q-28 -25 -61 -39t-64 -14q-43 0 -63 27.5t-20 67.5q0 33 24 55q15 14 37 24.5t46.5 17t50.5 11t52 7.5q0 -40 -1 -78.5t-1 -78.5z" />
<glyph unicode="&#xe6;" horiz-adv-x="878" d="M809 130q-38 -37 -73.5 -49.5t-73.5 -12.5q-31 0 -64 11t-61 36.5t-47.5 65.5t-25.5 97l348 35q10 2 17 7t8 19q1 4 1 13v13q0 51 -21.5 92t-58.5 67q-30 19 -63.5 28t-66.5 9q-40 0 -87 -16.5t-88 -53.5q-20 40 -61 55t-101 15q-3 0 -11.5 -1.5t-21 -5.5t-28 -9.5 t-31.5 -14.5q-25 -12 -49.5 -26t-43.5 -28.5t-31 -30.5t-12 -32q0 -19 19 -29.5t42 -10.5t42 13q0 23 5.5 44t18 37t32 25.5t46.5 9.5q51 0 74.5 -31.5t23.5 -80.5q0 -20 -0.5 -43t-1.5 -37q-78 -9 -129.5 -22.5t-85.5 -26.5q-46 -17 -73 -52t-27 -84q0 -29 10 -55t28 -45.5 t42.5 -31.5t55.5 -12q51 0 107 31.5t114 77.5q34 -51 88 -80t126 -29q15 0 39.5 4.5t54 17.5t61 37t61.5 63zM463 321q2 44 14.5 79t32.5 60t45 38.5t49 13.5q54 0 87.5 -34t33.5 -92q0 -15 -5.5 -25.5t-21.5 -12.5zM388 129q-40 -36 -79.5 -55t-64.5 -19q-43 0 -62.5 27.5 t-19.5 67.5q0 33 23 57q14 14 35 24.5t45 17.5t50 11.5t49 6.5q2 -41 7.5 -75.5t16.5 -61.5v-1z" />
<glyph unicode="&#xe7;" horiz-adv-x="555" d="M505 146q-26 -40 -67.5 -59t-87.5 -19q-49 0 -86.5 19.5t-63 51.5t-39 75t-13.5 90q0 37 10 71.5t30 61t50 43t70 16.5q43 0 75.5 -17t67.5 -54h5q30 15 43.5 34t13.5 36q0 10 -5.5 21t-18.5 18q-30 16 -62 21.5t-63 5.5q-65 0 -123 -23.5t-102.5 -65.5t-70.5 -98 t-26 -122q0 -55 18.5 -104t53 -86t84 -59t111.5 -22q-34 -28 -47.5 -49t-13.5 -36q0 -16 13.5 -31.5t29.5 -31.5q15 -15 26.5 -30t11.5 -32q0 -30 -28 -30q-21 0 -37.5 11.5t-31.5 32.5q-16 -5 -31 -20t-15 -31q0 -13 6.5 -23.5t16.5 -17t21.5 -10t21.5 -3.5q30 0 57.5 16 t48.5 38.5t33.5 47.5t12.5 42q0 16 -13.5 32t-28.5 33q-14 15 -25.5 28.5t-11.5 26.5q0 10 7 21t23 23q55 13 103 47t75 86z" />
<glyph unicode="&#xe8;" horiz-adv-x="574" d="M343 617l-3 -6l-33 -6l-148 233l5 11l100 8zM505 133q-39 -39 -74 -52t-74 -13q-36 0 -73.5 13.5t-67 43t-49 76t-19.5 112.5h359q22 0 27 26q1 4 1 13v13q0 45 -17 81t-46 62t-67.5 39.5t-80.5 13.5q-53 0 -104 -23t-89.5 -64t-61.5 -95.5t-23 -118.5q0 -57 19.5 -108 t55 -89t85 -60t108.5 -22q14 0 39 4.5t54.5 18t62 38t62.5 64.5zM151 356q6 37 21 66t34.5 49t42.5 30.5t46 10.5q30 0 53.5 -9.5t39.5 -26.5t25 -40t9 -49q0 -17 -6 -24t-25 -7h-240z" />
<glyph unicode="&#xe9;" horiz-adv-x="574" d="M289 617l3 -6l34 -6l147 233l-5 11l-100 8zM505 133q-39 -39 -74 -52t-74 -13q-36 0 -73.5 13.5t-67 43t-49 76t-19.5 112.5h359q22 0 27 26q1 4 1 13v13q0 45 -17 81t-46 62t-67.5 39.5t-80.5 13.5q-53 0 -104 -23t-89.5 -64t-61.5 -95.5t-23 -118.5q0 -57 19.5 -108 t55 -89t85 -60t108.5 -22q14 0 39 4.5t54.5 18t62 38t62.5 64.5zM151 356q6 37 21 66t34.5 49t42.5 30.5t46 10.5q30 0 53.5 -9.5t39.5 -26.5t25 -40t9 -49q0 -17 -6 -24t-25 -7h-240z" />
<glyph unicode="&#xea;" horiz-adv-x="574" d="M316 775l141 -170l38 5l4 6l-141 241l-78 -5l-147 -236l4 -6l38 -5zM505 133q-39 -39 -74 -52t-74 -13q-36 0 -73.5 13.5t-67 43t-49 76t-19.5 112.5h359q22 0 27 26q1 4 1 13v13q0 45 -17 81t-46 62t-67.5 39.5t-80.5 13.5q-53 0 -104 -23t-89.5 -64t-61.5 -95.5 t-23 -118.5q0 -57 19.5 -108t55 -89t85 -60t108.5 -22q14 0 39 4.5t54.5 18t62 38t62.5 64.5zM151 356q6 37 21 66t34.5 49t42.5 30.5t46 10.5q30 0 53.5 -9.5t39.5 -26.5t25 -40t9 -49q0 -17 -6 -24t-25 -7h-240z" />
<glyph unicode="&#xeb;" horiz-adv-x="574" d="M437 683q-26 0 -44 18.5t-18 44.5q0 27 18 45t44 18q27 0 45 -18t18 -45q0 -26 -18.5 -44.5t-44.5 -18.5zM194 683q-26 0 -44 18.5t-18 44.5t18.5 44.5t43.5 18.5q27 0 45 -18t18 -45q0 -26 -18.5 -44.5t-44.5 -18.5zM505 133q-39 -39 -74 -52t-74 -13q-36 0 -73.5 13.5 t-67 43t-49 76t-19.5 112.5h359q22 0 27 26q1 4 1 13v13q0 45 -17 81t-46 62t-67.5 39.5t-80.5 13.5q-53 0 -104 -23t-89.5 -64t-61.5 -95.5t-23 -118.5q0 -57 19.5 -108t55 -89t85 -60t108.5 -22q14 0 39 4.5t54.5 18t62 38t62.5 64.5zM151 356q6 37 21 66t34.5 49 t42.5 30.5t46 10.5q30 0 53.5 -9.5t39.5 -26.5t25 -40t9 -49q0 -17 -6 -24t-25 -7h-240z" />
<glyph unicode="&#xec;" horiz-adv-x="356" d="M191 617l-3 -6l-33 -6l-148 233l5 11l100 8zM320 0l2 35q-35 2 -55.5 5t-30.5 10.5t-12.5 21.5t-2.5 36v253q0 17 0.5 40t1.5 49.5t2.5 53t4.5 50.5l-9 7q-10 -5 -31 -10.5t-47 -12t-56 -12.5t-59 -12l2 -28q29 -5 46.5 -9.5t26.5 -13t12 -24t3 -41.5v-250 q0 -35 -3.5 -57t-14 -34.5t-29 -18t-49.5 -8.5l2 -30q27 0 62 1t72 1q46 0 89 -1t73 -1z" />
<glyph unicode="&#xed;" horiz-adv-x="356" d="M137 617l3 -6l34 -6l147 233l-5 11l-100 8zM320 0l2 35q-35 2 -55.5 5t-30.5 10.5t-12.5 21.5t-2.5 36v253q0 17 0.5 40t1.5 49.5t2.5 53t4.5 50.5l-9 7q-10 -5 -31 -10.5t-47 -12t-56 -12.5t-59 -12l2 -28q29 -5 46.5 -9.5t26.5 -13t12 -24t3 -41.5v-250q0 -35 -3.5 -57 t-14 -34.5t-29 -18t-49.5 -8.5l2 -30q27 0 62 1t72 1q46 0 89 -1t73 -1z" />
<glyph unicode="&#xee;" horiz-adv-x="356" d="M164 775l141 -170l38 5l4 6l-141 241l-78 -5l-147 -236l4 -6l38 -5zM320 0l2 35q-35 2 -55.5 5t-30.5 10.5t-12.5 21.5t-2.5 36v253q0 17 0.5 40t1.5 49.5t2.5 53t4.5 50.5l-9 7q-10 -5 -31 -10.5t-47 -12t-56 -12.5t-59 -12l2 -28q29 -5 46.5 -9.5t26.5 -13t12 -24 t3 -41.5v-250q0 -35 -3.5 -57t-14 -34.5t-29 -18t-49.5 -8.5l2 -30q27 0 62 1t72 1q46 0 89 -1t73 -1z" />
<glyph unicode="&#xef;" horiz-adv-x="356" d="M285 683q-26 0 -44 18.5t-18 44.5q0 27 18 45t44 18q27 0 45 -18t18 -45q0 -26 -18.5 -44.5t-44.5 -18.5zM42 683q-26 0 -44 18.5t-18 44.5t18.5 44.5t43.5 18.5q27 0 45 -18t18 -45q0 -26 -18.5 -44.5t-44.5 -18.5zM320 0l2 35q-35 2 -55.5 5t-30.5 10.5t-12.5 21.5 t-2.5 36v253q0 17 0.5 40t1.5 49.5t2.5 53t4.5 50.5l-9 7q-10 -5 -31 -10.5t-47 -12t-56 -12.5t-59 -12l2 -28q29 -5 46.5 -9.5t26.5 -13t12 -24t3 -41.5v-250q0 -35 -3.5 -57t-14 -34.5t-29 -18t-49.5 -8.5l2 -30q27 0 62 1t72 1q46 0 89 -1t73 -1z" />
<glyph unicode="&#xf0;" horiz-adv-x="666" d="M218 639l155 103q40 -49 64 -96t41 -107q-32 10 -67.5 15.5t-68.5 5.5q-60 0 -113.5 -22t-93.5 -61.5t-63.5 -94t-23.5 -119.5q0 -60 21 -111.5t58.5 -89t88 -59.5t109.5 -22q72 0 126.5 30.5t91.5 81.5t55.5 117t18.5 137q0 125 -42 237.5t-129 207.5l126 84l-26 48 l-139 -94q-61 52 -129 85t-158 50l-12 -38q39 -11 71.5 -25t60 -31.5t52.5 -39t49 -48.5l-154 -105zM502 342q0 -44 -7.5 -98.5t-26.5 -102t-51.5 -79.5t-82.5 -32q-43 0 -75.5 25t-53 63.5t-31 84t-10.5 85.5q0 34 8 73t25.5 72t45.5 55t67 22q49 0 96.5 -21.5t90.5 -66.5 q3 -16 4 -40t1 -40z" />
<glyph unicode="&#xf1;" horiz-adv-x="740" d="M537 798q-16 -24 -34.5 -40t-46.5 -16q-7 0 -14 2t-17.5 5.5t-25.5 9.5t-36 15q-21 8 -38.5 15.5t-36.5 7.5q-24 0 -44 -9.5t-37 -25.5t-31 -37.5t-24 -44.5l37 -17q16 24 34.5 40t46.5 16q12 0 31 -7.5t62 -24.5q21 -8 38.5 -15.5t36.5 -7.5q24 0 44 9.5t37 26t31 37.5 t24 44zM329 0l3 35q-31 2 -49.5 5t-28 10.5t-12 21.5t-2.5 36v318q46 32 85 44t64 12q74 0 101.5 -38t27.5 -115v-187q0 -36 -3 -56.5t-12.5 -32t-27.5 -16t-48 -7.5l3 -30q27 0 60.5 1t70.5 1q46 0 82.5 -1t67.5 -1l2 35q-30 2 -48.5 5t-27.5 10.5t-12 21.5t-3 36v258 q0 103 -46 149t-130 46q-11 0 -26.5 -2t-35.5 -10q-29 -10 -63.5 -29t-80.5 -45q0 20 2 39.5t4 39.5l-11 7q-14 -6 -36.5 -12.5t-48 -14t-53 -13.5t-50.5 -11l2 -27q29 -5 46.5 -9.5t26.5 -13.5t12 -24t3 -42v-246q0 -36 -3.5 -57.5t-14.5 -34t-30.5 -18t-51.5 -8.5l3 -30 q27 0 63.5 1t73.5 1q46 0 84 -1t68 -1z" />
<glyph unicode="&#xf2;" horiz-adv-x="676" d="M359 617l-3 -6l-33 -6l-148 233l5 11l100 8zM51 266q0 -59 20.5 -111t58 -90.5t90.5 -61t118 -22.5q60 0 112.5 23.5t91.5 63.5t61 93.5t22 115.5q0 59 -20.5 111t-58 90.5t-90.5 60.5t-118 22q-60 0 -112.5 -23t-91 -63t-61 -94t-22.5 -115zM350 28q-49 0 -83.5 25.5 t-56.5 64.5t-32.5 86.5t-10.5 91.5q0 39 9.5 78t28.5 70.5t49 51t72 19.5q49 0 84 -25t57 -63.5t32 -86t10 -93.5q0 -39 -9 -78t-28.5 -70t-49.5 -51t-72 -20z" />
<glyph unicode="&#xf3;" horiz-adv-x="676" d="M305 617l3 -6l34 -6l147 233l-5 11l-100 8zM51 266q0 -59 20.5 -111t58 -90.5t90.5 -61t118 -22.5q60 0 112.5 23.5t91.5 63.5t61 93.5t22 115.5q0 59 -20.5 111t-58 90.5t-90.5 60.5t-118 22q-60 0 -112.5 -23t-91 -63t-61 -94t-22.5 -115zM350 28q-49 0 -83.5 25.5 t-56.5 64.5t-32.5 86.5t-10.5 91.5q0 39 9.5 78t28.5 70.5t49 51t72 19.5q49 0 84 -25t57 -63.5t32 -86t10 -93.5q0 -39 -9 -78t-28.5 -70t-49.5 -51t-72 -20z" />
<glyph unicode="&#xf4;" horiz-adv-x="676" d="M332 775l141 -170l38 5l4 6l-141 241l-78 -5l-147 -236l4 -6l38 -5zM51 266q0 -59 20.5 -111t58 -90.5t90.5 -61t118 -22.5q60 0 112.5 23.5t91.5 63.5t61 93.5t22 115.5q0 59 -20.5 111t-58 90.5t-90.5 60.5t-118 22q-60 0 -112.5 -23t-91 -63t-61 -94t-22.5 -115z M350 28q-49 0 -83.5 25.5t-56.5 64.5t-32.5 86.5t-10.5 91.5q0 39 9.5 78t28.5 70.5t49 51t72 19.5q49 0 84 -25t57 -63.5t32 -86t10 -93.5q0 -39 -9 -78t-28.5 -70t-49.5 -51t-72 -20z" />
<glyph unicode="&#xf5;" horiz-adv-x="676" d="M511 798q-16 -24 -34.5 -40t-46.5 -16q-7 0 -14 2t-17.5 5.5t-25.5 9.5t-36 15q-21 8 -38.5 15.5t-36.5 7.5q-24 0 -44 -9.5t-37 -25.5t-31 -37.5t-24 -44.5l37 -17q16 24 34.5 40t46.5 16q12 0 31 -7.5t62 -24.5q21 -8 38.5 -15.5t36.5 -7.5q24 0 44 9.5t37 26t31 37.5 t24 44zM51 266q0 -59 20.5 -111t58 -90.5t90.5 -61t118 -22.5q60 0 112.5 23.5t91.5 63.5t61 93.5t22 115.5q0 59 -20.5 111t-58 90.5t-90.5 60.5t-118 22q-60 0 -112.5 -23t-91 -63t-61 -94t-22.5 -115zM350 28q-49 0 -83.5 25.5t-56.5 64.5t-32.5 86.5t-10.5 91.5 q0 39 9.5 78t28.5 70.5t49 51t72 19.5q49 0 84 -25t57 -63.5t32 -86t10 -93.5q0 -39 -9 -78t-28.5 -70t-49.5 -51t-72 -20z" />
<glyph unicode="&#xf6;" horiz-adv-x="676" d="M453 683q-26 0 -44 18.5t-18 44.5q0 27 18 45t44 18q27 0 45 -18t18 -45q0 -26 -18.5 -44.5t-44.5 -18.5zM210 683q-26 0 -44 18.5t-18 44.5t18.5 44.5t43.5 18.5q27 0 45 -18t18 -45q0 -26 -18.5 -44.5t-44.5 -18.5zM51 266q0 -59 20.5 -111t58 -90.5t90.5 -61 t118 -22.5q60 0 112.5 23.5t91.5 63.5t61 93.5t22 115.5q0 59 -20.5 111t-58 90.5t-90.5 60.5t-118 22q-60 0 -112.5 -23t-91 -63t-61 -94t-22.5 -115zM350 28q-49 0 -83.5 25.5t-56.5 64.5t-32.5 86.5t-10.5 91.5q0 39 9.5 78t28.5 70.5t49 51t72 19.5q49 0 84 -25 t57 -63.5t32 -86t10 -93.5q0 -39 -9 -78t-28.5 -70t-49.5 -51t-72 -20z" />
<glyph unicode="&#xf7;" horiz-adv-x="1138" d="M1026 -185q-17 -57 -24 -72q-10 -21 -23 -31q-11 -10 -75 12.5t-64 49.5q0 9 6 16t31 68q17 42 39 42q6 0 13 -3q34 -16 68 -33q30 -17 31 -37q0 -4 -2 -12zM391 1391l-2 -3l-26 -14l-4 -5l-6 -4l-8 -4l-5 -6l-8 -7l-7 -4l-6 -8l-6 -4l-6 -3l-2 -4l-5 -4l-10 -10l-2 -3 l-3 -2q-10 -12 -19 -19l-4 -8l-6 -6q-7 -10 -15 -17q-10 -17 -20 -26l-2 -6l-2 -5l-4 -2q-7 -15 -15 -25l-4 -5q-3 -10 -7 -17l-4 -6l-4 -6l-2 -6l-4 -7l-4 -4l-2 -4l-1 -4l-2 -5l-2 -4l-2 -4q-6 -14 -12 -23q0 -5 -1 -7l-2 -4l-2 -6q-5 -8 -6 -15l-4 -4l-4 -13 q-5 -13 -9 -21q-3 -14 -8 -25l-2 -8l-15 -43l-7 -27l-2 -6l-2 -5l-10 -35l-2 -5v-6l-3 -15q-4 -10 -6 -19l-6 -27l-2 -6l-2 -5v-8l-4 -15l-1 -4v-6l-6 -28l-10 -9l-5 -4l-2 -3q-7 -7 -14 -10q-20 -23 -40 -34q-10 -13 -22 -19l-8 -8l-8 -4l-5 -7l-8 -4l-8 -6l-7 -7l-6 -4 l-7 -4q-3 -4 -8 -6l-6 -5l-7 -6l-6 -4l-4 -4l-6 -4l-3 -3l-18 -10q-2 -3 -3 -4l-4 -4q-20 -13 -33 -24l8 2l6 2l15 3q8 5 15 6q12 8 23 10l8 5l5 2l14 6q10 7 19 9l7 4q13 11 27 15l6 6l9 4q8 7 15 9l6 6l8 2q11 11 23 15q20 17 36 25q-15 -431 242 -249q-43 -179 21 -323 q3 -3 4 -6l4 -5l4 -4l4 -4l2 -6l3 -2l2 -3l17 -19q7 -4 12 -8q25 -19 47 -25q10 -5 16 -5l24 -6q203 -3 300 160q19 -126 105 -65l9 10q2 3 4 3q11 17 23 27q9 18 19 30l8 14q5 10 11 19q0 5 2 7l2 6l4 6q4 11 7 19l2 8l2 6l8 27v6q1 21 -2 34q-49 -71 -118 -104 q-13 0 -23 2q-10 11 -13 23v16v6l2 5v6q6 18 7 31h2h-2h2q-1 10 -4 15l-15 -12q-135 -200 -340 -157q-176 68 -120 294q183 154 219 367v13q1 25 -4 42q-19 22 -41 8l-4 -2l-6 -2q-15 -16 -29 -23l-3 -6l-4 -4l-4 -3l-4 -2q-8 -13 -17 -19q-7 -13 -15 -19l-2 -6l-4 -6l-4 -4 l-3 -5l-8 -10l-2 -6l-4 -1q-8 -21 -19 -34l-2 -7l-4 -6q-5 -10 -9 -17l-2 -6l-2 -8l-4 -3l-2 -10l-9 -17q0 -5 -2 -8l-2 -5l-2 -6l-2 -8q-5 -10 -5 -15l-2 -6q-6 -15 -8 -26q-7 -14 -13 -23q-72 -69 -152 -32q-73 53 -62 169l3 4l4 2q2 2 4 2l2 3l4 2l4 6q15 11 22 21h2h-2 h2l6 7l6 5l5 6l6 6l6 5l4 2l2 4l3 2q10 12 19 19q10 11 18 19l17 15l5 8l6 6l5 5l6 4l1 4q7 6 10 11l6 6l15 15l6 10l5 6l6 7l6 6l5 8l6 5l4 8l6 4l2 5l3 6l4 4l2 4l4 4l27 36l1 5l4 4q10 22 21 34l2 6l4 6l2 4l2 5l17 31q0 5 2 7l2 6q5 10 7 17l2 6l4 6q2 10 6 19l7 23v5 l4 16l2 5l6 26q0 12 2 21v7v6q2 10 2 15v8v6v5v6v8l1 6l-1 41q-2 3 -2 6l-8 25q-21 20 -46 15q-7 -5 -15 -6zM399 1198q-5 -18 -10 -28l-11 -19l-2 -8l-4 -8l-13 -21l-2 -7l-4 -2q-10 -25 -23 -40q-4 -11 -9 -17l-2 -6l-4 -6l-4 -3l-2 -6l-4 -2q-7 -14 -13 -23 q-15 -24 -28 -38l-2 -6l-2 -3l-4 -4q-16 -22 -30 -35l-1 -5l-18 -17l-1 -4l-10 -10q-10 -16 -23 -24l-2 -6l-5 -6l-6 -4q-19 -25 -38 -36q-16 -21 -36 -32q50 304 265 471l27 9q31 -11 21 -54zM517 821q0 -15 -2 -26q-59 -143 -171 -216l1 5q4 11 8 19l2 6q4 13 9 23v6l4 3 q10 31 23 50q2 10 6 15l4 6l2 6l3 5l2 4l10 16q6 10 11 15l2 6l4 6l4 4q9 14 19 23q4 8 9 11l14 17q10 7 17 10q13 -4 19 -14z" />
<glyph unicode="&#xf8;" horiz-adv-x="676" d="M46 266q0 -67 25.5 -123t72.5 -96l-46 -65l36 -30l48 68q64 -39 150 -39q60 0 113 23.5t91.5 63.5t61 93.5t22.5 115.5q0 67 -26.5 124t-74.5 97l48 68l-39 25l-47 -67q-31 18 -68.5 27.5t-80.5 9.5q-60 0 -112.5 -23t-91 -63t-60.5 -94t-22 -115zM345 28q-38 0 -67.5 15 t-51.5 40l240 340q22 -40 31.5 -85t9.5 -91q0 -39 -9 -78t-29 -70t-50.5 -51t-73.5 -20zM158 296q0 39 9 78t28.5 70.5t50.5 51t75 19.5q37 0 66 -14t51 -38l-240 -339q-21 40 -30.5 84.5t-9.5 87.5z" />
<glyph unicode="&#xf9;" horiz-adv-x="718" d="M360 617l-3 -6l-33 -6l-148 233l5 11l100 8zM484 -6l10 -7q12 4 33.5 9t48.5 9.5l57 9.5t59 8l-4 27q-33 5 -52 9.5t-29 13t-13 23.5t-3 43v222q0 17 0.5 40t2 49t3.5 52.5t4 51.5l-10 7q-9 -4 -29 -8t-46.5 -9t-58.5 -10t-64 -9l2 -27q31 -5 49.5 -9.5t28 -13t12.5 -24 t3 -42.5v-287q-15 -11 -33.5 -22t-38.5 -20t-41 -14t-41 -5q-23 0 -44.5 7t-37.5 25t-26 49.5t-10 79.5v139q0 17 0.5 40t1.5 49.5t3 53t5 50.5l-10 7q-10 -4 -29.5 -8t-46 -9t-56.5 -10t-60 -9l2 -27q28 -5 44.5 -9.5t25.5 -13t11.5 -24t2.5 -42.5v-227q0 -56 14 -94.5 t37 -62t53.5 -34t64.5 -10.5q18 0 36 3.5t41.5 13.5t55 28.5t76.5 48.5q0 -17 -1 -40.5t-3 -40.5z" />
<glyph unicode="&#xfa;" horiz-adv-x="718" d="M306 617l3 -6l34 -6l147 233l-5 11l-100 8zM484 -6l10 -7q12 4 33.5 9t48.5 9.5l57 9.5t59 8l-4 27q-33 5 -52 9.5t-29 13t-13 23.5t-3 43v222q0 17 0.5 40t2 49t3.5 52.5t4 51.5l-10 7q-9 -4 -29 -8t-46.5 -9t-58.5 -10t-64 -9l2 -27q31 -5 49.5 -9.5t28 -13t12.5 -24 t3 -42.5v-287q-15 -11 -33.5 -22t-38.5 -20t-41 -14t-41 -5q-23 0 -44.5 7t-37.5 25t-26 49.5t-10 79.5v139q0 17 0.5 40t1.5 49.5t3 53t5 50.5l-10 7q-10 -4 -29.5 -8t-46 -9t-56.5 -10t-60 -9l2 -27q28 -5 44.5 -9.5t25.5 -13t11.5 -24t2.5 -42.5v-227q0 -56 14 -94.5 t37 -62t53.5 -34t64.5 -10.5q18 0 36 3.5t41.5 13.5t55 28.5t76.5 48.5q0 -17 -1 -40.5t-3 -40.5z" />
<glyph unicode="&#xfb;" horiz-adv-x="718" d="M333 775l141 -170l38 5l4 6l-141 241l-78 -5l-147 -236l4 -6l38 -5zM484 -6l10 -7q12 4 33.5 9t48.5 9.5l57 9.5t59 8l-4 27q-33 5 -52 9.5t-29 13t-13 23.5t-3 43v222q0 17 0.5 40t2 49t3.5 52.5t4 51.5l-10 7q-9 -4 -29 -8t-46.5 -9t-58.5 -10t-64 -9l2 -27 q31 -5 49.5 -9.5t28 -13t12.5 -24t3 -42.5v-287q-15 -11 -33.5 -22t-38.5 -20t-41 -14t-41 -5q-23 0 -44.5 7t-37.5 25t-26 49.5t-10 79.5v139q0 17 0.5 40t1.5 49.5t3 53t5 50.5l-10 7q-10 -4 -29.5 -8t-46 -9t-56.5 -10t-60 -9l2 -27q28 -5 44.5 -9.5t25.5 -13t11.5 -24 t2.5 -42.5v-227q0 -56 14 -94.5t37 -62t53.5 -34t64.5 -10.5q18 0 36 3.5t41.5 13.5t55 28.5t76.5 48.5q0 -17 -1 -40.5t-3 -40.5z" />
<glyph unicode="&#xfc;" horiz-adv-x="718" d="M454 683q-26 0 -44 18.5t-18 44.5q0 27 18 45t44 18q27 0 45 -18t18 -45q0 -26 -18.5 -44.5t-44.5 -18.5zM211 683q-26 0 -44 18.5t-18 44.5t18.5 44.5t43.5 18.5q27 0 45 -18t18 -45q0 -26 -18.5 -44.5t-44.5 -18.5zM484 -6l10 -7q12 4 33.5 9t48.5 9.5l57 9.5t59 8 l-4 27q-33 5 -52 9.5t-29 13t-13 23.5t-3 43v222q0 17 0.5 40t2 49t3.5 52.5t4 51.5l-10 7q-9 -4 -29 -8t-46.5 -9t-58.5 -10t-64 -9l2 -27q31 -5 49.5 -9.5t28 -13t12.5 -24t3 -42.5v-287q-15 -11 -33.5 -22t-38.5 -20t-41 -14t-41 -5q-23 0 -44.5 7t-37.5 25t-26 49.5 t-10 79.5v139q0 17 0.5 40t1.5 49.5t3 53t5 50.5l-10 7q-10 -4 -29.5 -8t-46 -9t-56.5 -10t-60 -9l2 -27q28 -5 44.5 -9.5t25.5 -13t11.5 -24t2.5 -42.5v-227q0 -56 14 -94.5t37 -62t53.5 -34t64.5 -10.5q18 0 36 3.5t41.5 13.5t55 28.5t76.5 48.5q0 -17 -1 -40.5t-3 -40.5z " />
<glyph unicode="&#xfd;" horiz-adv-x="629" d="M313 617l3 -6l34 -6l147 233l-5 11l-100 8zM652 543q-24 0 -49.5 -0.5t-59.5 -0.5q-44 0 -72 0.5t-58 0.5l-2 -32q43 -2 59 -10t16 -26q0 -11 -10 -38l-139 -331l-127 329q-5 13 -8 24t-3 19q0 16 15 22.5t53 11.5l-1 31q-28 0 -59 -0.5t-68 -0.5q-43 0 -82 0.5t-70 0.5 l-2 -35q28 -2 45.5 -5.5t30 -13t22.5 -27t23 -45.5q20 -47 42 -101t44.5 -111t44.5 -114.5t41 -108.5q1 -3 2 -6.5t1 -6.5l-2 -8q-33 -87 -66 -152.5t-67 -101.5q-15 -15 -35 -21.5t-42 -6.5q-8 0 -16 1.5t-19 3.5q-19 -10 -31 -26t-12 -37q0 -27 19 -42t43 -15q49 0 96 40 q23 18 45.5 53t45 78.5t43 92.5t39.5 96q26 67 53.5 135.5t54.5 133.5t52.5 122.5t47.5 101.5q14 29 24.5 46t23.5 27t30 14.5t46 8.5z" />
<glyph unicode="&#xfe;" horiz-adv-x="687" d="M205 806q0 17 1 43.5t2 56.5t3.5 60.5t5.5 54.5l-10 8q-20 -9 -46 -17.5t-53 -16.5t-53.5 -14t-48.5 -10l4 -28q31 -5 49 -9.5t28 -14t13 -26.5t3 -44v-1124q0 -35 -3.5 -57t-14 -34.5t-29.5 -17.5t-51 -8l2 -31q28 0 64 1t72 1q23 0 49.5 -0.5t52.5 -0.5q27 0 49.5 -0.5 t37.5 -0.5l3 36q-47 2 -73 5.5t-39 11.5t-15.5 22.5t-2.5 37.5v302q47 -11 95 -11q69 0 130 22t106.5 62.5t73 98t27.5 128.5q0 55 -20 104t-55 86t-83 58t-104 21q-11 0 -29.5 -4t-40.5 -12t-48 -19t-52 -24v304zM205 453q30 13 53.5 20.5t55.5 7.5q49 0 87.5 -16.5 t65 -45.5t40.5 -69.5t14 -88.5q0 -44 -11 -85.5t-33.5 -74t-57.5 -52t-81 -19.5q-27 0 -51 7.5t-42.5 19.5t-29 27.5t-10.5 32.5v336z" />
<glyph unicode="&#xff;" horiz-adv-x="629" d="M461 683q-26 0 -44 18.5t-18 44.5q0 27 18 45t44 18q27 0 45 -18t18 -45q0 -26 -18.5 -44.5t-44.5 -18.5zM218 683q-26 0 -44 18.5t-18 44.5t18.5 44.5t43.5 18.5q27 0 45 -18t18 -45q0 -26 -18.5 -44.5t-44.5 -18.5zM652 543q-24 0 -49.5 -0.5t-59.5 -0.5q-44 0 -72 0.5 t-58 0.5l-2 -32q43 -2 59 -10t16 -26q0 -11 -10 -38l-139 -331l-127 329q-5 13 -8 24t-3 19q0 16 15 22.5t53 11.5l-1 31q-28 0 -59 -0.5t-68 -0.5q-43 0 -82 0.5t-70 0.5l-2 -35q28 -2 45.5 -5.5t30 -13t22.5 -27t23 -45.5q20 -47 42 -101t44.5 -111t44.5 -114.5t41 -108.5 q1 -3 2 -6.5t1 -6.5l-2 -8q-33 -87 -66 -152.5t-67 -101.5q-15 -15 -35 -21.5t-42 -6.5q-8 0 -16 1.5t-19 3.5q-19 -10 -31 -26t-12 -37q0 -27 19 -42t43 -15q49 0 96 40q23 18 45.5 53t45 78.5t43 92.5t39.5 96q26 67 53.5 135.5t54.5 133.5t52.5 122.5t47.5 101.5 q14 29 24.5 46t23.5 27t30 14.5t46 8.5z" />
<glyph unicode="&#x152;" horiz-adv-x="1266" d="M1189 914q-184 0 -303 -1t-156 -1q-31 0 -53.5 2t-44 4.5t-44.5 4.5t-54 2q-106 0 -192.5 -35.5t-148.5 -99t-96 -151.5t-34 -192q0 -106 34.5 -190t97 -143.5t149 -91.5t190.5 -32q51 0 96.5 6t93.5 6q29 0 71 -0.5t99 -0.5t130.5 -0.5t167.5 -0.5q1 17 5 43.5t9.5 57 t12.5 62t14 59.5l-37 8q-22 -51 -40.5 -86.5t-42 -56.5t-58.5 -30t-90 -9h-56q-39 0 -62.5 4.5t-36 16.5t-16.5 33t-4 53v287q71 -2 150 -4.5t165 -10.5l2 78l-7 7l-310 -10v330q0 24 8 29.5t37 5.5h126q49 0 79.5 -8t49.5 -27.5t29.5 -52t18.5 -81.5l38 1q1 60 4 113t9 102 zM194 483q0 107 27.5 181.5t74 121t107 67.5t125.5 21q32 0 60.5 -6t49 -14t31.5 -17.5t11 -17.5v-661q0 -29 -2 -50t-16 -36t-42.5 -22.5t-79.5 -7.5q-41 0 -82 9t-79.5 30t-72.5 54.5t-58.5 82.5t-39 114.5t-14.5 150.5z" />
<glyph unicode="&#x153;" horiz-adv-x="1020" d="M331 561q-45 0 -94 -18t-90 -55t-68.5 -94t-27.5 -135q0 -52 19 -102t55 -89t88 -63t116 -24q60 0 118.5 27.5t101.5 84.5q33 -51 86.5 -81.5t127.5 -30.5q15 0 39.5 4.5t53.5 18t61 38t61 63.5l-27 27q-38 -39 -73 -51.5t-73 -12.5q-34 0 -69.5 12.5t-64 42t-47 76.5 t-19.5 114h350q22 0 24 26q1 4 1 13v13q0 51 -21.5 92t-59.5 67q-30 19 -63 28t-65 9q-25 0 -53.5 -6.5t-57 -20t-55.5 -35.5t-48 -53q-36 52 -94 83.5t-132 31.5zM315 519q44 0 77 -21t55 -57.5t33.5 -84.5t11.5 -102q0 -65 -11 -109t-31 -70.5t-46.5 -38t-58.5 -11.5 q-42 0 -74.5 20.5t-56.5 57.5t-36 88t-12 113q0 103 41.5 159t107.5 56zM608 356q6 37 20 66t33 49t41 30.5t44 10.5q29 0 51.5 -9.5t38.5 -26.5t24 -40t8 -49q0 -17 -5.5 -24t-25.5 -7h-229z" />
<glyph unicode="&#x178;" horiz-adv-x="827" d="M567 990q-26 0 -43.5 18.5t-17.5 44.5q0 27 18 44.5t43 17.5q27 0 45 -18t18 -44t-18.5 -44.5t-44.5 -18.5zM306 990q-26 0 -44 18.5t-18 44.5t18 44t44 18q27 0 45 -18t18 -44t-18.5 -44.5t-44.5 -18.5zM362 154q0 -36 -4.5 -58.5t-18 -35.5t-40 -19t-70.5 -9l3 -32 q18 0 41 0.5t46 0.5t45 0.5t41 0.5q23 0 49.5 -0.5t52.5 -0.5q27 0 52 -0.5t45 -0.5l2 34q-47 2 -74 7t-40 15t-17 25t-4 38v188q0 24 0.5 40.5t5.5 35t15 42t30 62.5q20 40 55.5 102.5t83.5 143.5q27 45 45.5 72.5t37.5 43.5t43.5 22.5t61.5 9.5l-3 33q-35 0 -72.5 -1 t-73.5 -1q-43 0 -81.5 1t-74.5 1l-2 -35q54 -4 76 -12t22 -26q0 -13 -8.5 -31.5t-23.5 -46.5l-167 -302l-174 318q-11 22 -17.5 37.5t-6.5 26.5q0 17 19.5 25.5t70.5 12.5l-3 33q-40 0 -81.5 -1t-81.5 -1q-49 0 -96.5 1t-87.5 1l-2 -35q37 -3 61 -9t41.5 -19.5t33 -37 t37.5 -60.5q56 -93 93 -158t62 -111q19 -34 29.5 -57t16 -42.5t6.5 -39t1 -46.5v-145z" />
<glyph unicode="&#x2c6;" horiz-adv-x="666" d="M333 775l141 -170l38 5l4 6l-141 241l-78 -5l-147 -236l4 -6l38 -5z" />
<glyph unicode="&#x2dc;" horiz-adv-x="666" d="M512 798q-16 -24 -34.5 -40t-46.5 -16q-7 0 -14 2t-17.5 5.5t-25.5 9.5t-36 15q-21 8 -38.5 15.5t-36.5 7.5q-24 0 -44 -9.5t-37 -25.5t-31 -37.5t-24 -44.5l37 -17q16 24 34.5 40t46.5 16q12 0 31 -7.5t62 -24.5q21 -8 38.5 -15.5t36.5 -7.5q24 0 44 9.5t37 26t31 37.5 t24 44z" />
<glyph unicode="&#x2000;" horiz-adv-x="790" />
<glyph unicode="&#x2001;" horiz-adv-x="1581" />
<glyph unicode="&#x2002;" horiz-adv-x="790" />
<glyph unicode="&#x2003;" horiz-adv-x="1581" />
<glyph unicode="&#x2004;" horiz-adv-x="527" />
<glyph unicode="&#x2005;" horiz-adv-x="395" />
<glyph unicode="&#x2006;" horiz-adv-x="263" />
<glyph unicode="&#x2007;" horiz-adv-x="263" />
<glyph unicode="&#x2008;" horiz-adv-x="197" />
<glyph unicode="&#x2009;" horiz-adv-x="316" />
<glyph unicode="&#x200a;" horiz-adv-x="87" />
<glyph unicode="&#x2010;" horiz-adv-x="1072" d="M146 157h890v-2q-5 -4 -7 -10q-4 -4 -9 -10q-3 -5 -7 -10q-3 -5 -8 -11q-3 -5 -8 -10q-3 -5 -7 -11q-4 -4 -8 -10q-4 -4 -7 -12l-9 -9q-3 -5 -8 -11q-3 -5 -7 -10q-3 -5 -8 -11q-3 -5 -8 -10l-7 -10q-3 -6 -9 -10h-890v2q4 4 8 9q3 5 8 11q3 5 7 10q4 4 8 11l7 8l2 2 q3 5 7 11q3 4 8 9l7 12q4 4 8 10q4 4 8 11q4 4 8 9q3 5 8 11q3 5 7 10q4 4 8 11q4 3 8 10z" />
<glyph unicode="&#x2011;" horiz-adv-x="1072" d="M146 157h890v-2q-5 -4 -7 -10q-4 -4 -9 -10q-3 -5 -7 -10q-3 -5 -8 -11q-3 -5 -8 -10q-3 -5 -7 -11q-4 -4 -8 -10q-4 -4 -7 -12l-9 -9q-3 -5 -8 -11q-3 -5 -7 -10q-3 -5 -8 -11q-3 -5 -8 -10l-7 -10q-3 -6 -9 -10h-890v2q4 4 8 9q3 5 8 11q3 5 7 10q4 4 8 11l7 8l2 2 q3 5 7 11q3 4 8 9l7 12q4 4 8 10q4 4 8 11q4 4 8 9q3 5 8 11q3 5 7 10q4 4 8 11q4 3 8 10z" />
<glyph unicode="&#x2012;" horiz-adv-x="1072" d="M146 157h890v-2q-5 -4 -7 -10q-4 -4 -9 -10q-3 -5 -7 -10q-3 -5 -8 -11q-3 -5 -8 -10q-3 -5 -7 -11q-4 -4 -8 -10q-4 -4 -7 -12l-9 -9q-3 -5 -8 -11q-3 -5 -7 -10q-3 -5 -8 -11q-3 -5 -8 -10l-7 -10q-3 -6 -9 -10h-890v2q4 4 8 9q3 5 8 11q3 5 7 10q4 4 8 11l7 8l2 2 q3 5 7 11q3 4 8 9l7 12q4 4 8 10q4 4 8 11q4 4 8 9q3 5 8 11q3 5 7 10q4 4 8 11q4 3 8 10z" />
<glyph unicode="&#x2013;" horiz-adv-x="880" d="M829 270h-781l4 61h781z" />
<glyph unicode="&#x2014;" horiz-adv-x="1403" d="M1352 270h-1304l4 61h1304z" />
<glyph unicode="&#x2018;" horiz-adv-x="325" d="M250 939l-13 36q-32 -12 -61 -32t-51.5 -44.5t-35.5 -55t-13 -65.5q0 -23 7.5 -45.5t22 -41t35 -30t45.5 -11.5t44 15t19 41q0 10 -4 20t-15 15q-41 4 -61 26t-20 50q0 17 7.5 35t20 34.5t31.5 30t42 22.5z" />
<glyph unicode="&#x2019;" horiz-adv-x="325" d="M75 681l14 -35q32 12 61 31.5t51 44.5t35 55.5t13 64.5q0 23 -7.5 46t-21.5 41.5t-34.5 30t-45.5 11.5t-44.5 -15.5t-19.5 -40.5q0 -10 4.5 -20t14.5 -16q41 -4 61 -25.5t20 -49.5q0 -17 -7 -35t-20 -34.5t-32 -30.5t-42 -23z" />
<glyph unicode="&#x201a;" horiz-adv-x="325" d="M75 -126l14 -35q32 12 61 31.5t51 44.5t35 55.5t13 64.5q0 23 -7.5 46t-21.5 41.5t-34.5 30t-45.5 11.5t-44.5 -15.5t-19.5 -40.5q0 -10 4.5 -20t14.5 -16q41 -4 61 -25.5t20 -49.5q0 -17 -7 -35t-20 -34.5t-32 -30.5t-42 -23z" />
<glyph unicode="&#x201c;" horiz-adv-x="558" d="M250 939l-13 36q-32 -12 -61 -32t-51.5 -44.5t-35.5 -55t-13 -65.5q0 -23 7.5 -45.5t22 -41t35 -30t45.5 -11.5t44 15t19 41q0 10 -4 20t-15 15q-41 4 -61 26t-20 50q0 17 7.5 35t20 34.5t31.5 30t42 22.5zM484 939l-13 36q-32 -12 -61 -32t-51.5 -44.5t-35.5 -55 t-13 -65.5q0 -23 7.5 -45.5t22 -41t35 -30t45.5 -11.5t44 15t19 41q0 10 -4 20t-15 15q-41 4 -61 26t-20 50q0 17 7.5 35t20 34.5t31.5 30t42 22.5z" />
<glyph unicode="&#x201d;" horiz-adv-x="558" d="M75 681l14 -35q32 12 61 31.5t51 44.5t35 55.5t13 64.5q0 23 -7.5 46t-21.5 41.5t-34.5 30t-45.5 11.5t-44.5 -15.5t-19.5 -40.5q0 -10 4.5 -20t14.5 -16q41 -4 61 -25.5t20 -49.5q0 -17 -7 -35t-20 -34.5t-32 -30.5t-42 -23zM310 681l14 -35q32 12 61 31.5t51 44.5 t35 55.5t13 64.5q0 23 -7.5 46t-21.5 41.5t-34.5 30t-45.5 11.5t-44.5 -15.5t-19.5 -40.5q0 -10 4.5 -20t14.5 -16q41 -4 61 -25.5t20 -49.5q0 -17 -7 -35t-20 -34.5t-32 -30.5t-42 -23z" />
<glyph unicode="&#x201e;" horiz-adv-x="558" d="M310 -126l14 -35q32 12 61 31.5t51 44.5t35 55.5t13 64.5q0 23 -7.5 46t-21.5 41.5t-34.5 30t-45.5 11.5t-44.5 -15.5t-19.5 -40.5q0 -10 4.5 -20t14.5 -16q41 -4 61 -25.5t20 -49.5q0 -17 -7 -35t-20 -34.5t-32 -30.5t-42 -23zM75 -126l14 -35q32 12 61 31.5t51 44.5 t35 55.5t13 64.5q0 23 -7.5 46t-21.5 41.5t-34.5 30t-45.5 11.5t-44.5 -15.5t-19.5 -40.5q0 -10 4.5 -20t14.5 -16q41 -4 61 -25.5t20 -49.5q0 -17 -7 -35t-20 -34.5t-32 -30.5t-42 -23z" />
<glyph unicode="&#x2022;" horiz-adv-x="700" d="M133 457q0 -46 17 -85.5t46.5 -69t69 -46.5t85.5 -17q45 0 84.5 17t68.5 46.5t46 69t17 85.5q0 45 -17 84.5t-46 69t-68.5 46.5t-84.5 17q-46 0 -85.5 -17t-69 -46.5t-46.5 -69t-17 -84.5z" />
<glyph unicode="&#x2026;" horiz-adv-x="1128" d="M124 64q0 -16 6 -31t16.5 -26t24.5 -17t30 -6q15 0 29.5 6t25 17t16.5 26t6 31t-6 30.5t-16.5 25.5t-25 17.5t-29.5 6.5q-16 0 -30 -6.5t-24.5 -17.5t-16.5 -25.5t-6 -30.5zM487 64q0 -16 6.5 -31t17 -26t24 -17t29.5 -6q15 0 29.5 6t25 17t16.5 26t6 31t-6 30.5 t-16.5 25.5t-24.5 17.5t-30 6.5t-29.5 -6.5t-24 -17.5t-17 -25.5t-6.5 -30.5zM851 64q0 -16 6 -31t16.5 -26t24.5 -17t30 -6q15 0 29.5 6t25 17t16.5 26t6 31t-6 30.5t-16.5 25.5t-25 17.5t-29.5 6.5q-16 0 -30 -6.5t-24.5 -17.5t-16.5 -25.5t-6 -30.5z" />
<glyph unicode="&#x202f;" horiz-adv-x="316" />
<glyph unicode="&#x2039;" horiz-adv-x="415" d="M95 278v-13q43 -40 92 -95t103 -121l31 19l-125 203l125 204l-31 19q-54 -67 -103 -121.5t-92 -94.5z" />
<glyph unicode="&#x203a;" horiz-adv-x="415" d="M321 265v13q-43 40 -92 94.5t-103 121.5l-31 -19l125 -204l-125 -203l31 -19q54 67 103 121.5t92 94.5z" />
<glyph unicode="&#x205f;" horiz-adv-x="395" />
<glyph unicode="&#x20ac;" d="M534 490h-324q7 61 24 110.5t44 84.5t64.5 54t84.5 19q51 0 84.5 -34t43.5 -108l43 5q0 40 1.5 79t5.5 80q-36 13 -79 21t-81 8q-63 0 -120.5 -20t-104 -60t-79.5 -99.5t-46 -139.5h-89l4 -49h80q-1 -13 -1 -26.5v-27.5v-17v-7v-8h-73l4 -50h72q10 -75 37 -135t68 -102 t94 -64.5t114 -22.5q47 0 94.5 12.5t96.5 32.5q5 40 10.5 78t13.5 75l-39 9q-10 -30 -22.5 -57.5t-26.5 -46.5q-21 -28 -49 -40.5t-58 -12.5q-46 0 -82 20.5t-62.5 57.5t-43 87t-24.5 109h307l3 50h-316q-1 10 -1 22v27v16v9q0 5 1 12h323z" />
<glyph unicode="&#x2122;" horiz-adv-x="960" d="M433 914l-1 -23q21 -1 34 -4.5t23 -13.5q10 -11 11 -28q0 -10 -1.5 -24.5t-4.5 -39.5l-8 -78q-3 -33 -6.5 -51.5t-11 -27.5t-21 -12t-35.5 -6l2 -21q19 0 35.5 0.5t42.5 0.5q27 0 45.5 -0.5t34.5 -0.5l1 23q-22 2 -34.5 4.5t-18 9.5t-6 22t2.5 40l13 134l2 1 q28 -60 54.5 -119.5t52.5 -122.5l27 4q25 63 51.5 123.5t53.5 121.5h2l10 -150q1 -21 0.5 -33.5t-5.5 -19.5t-16 -10.5t-31 -5.5l1 -21h83q26 0 53.5 -0.5t47.5 -0.5v23q-25 1 -39 3.5t-21 7.5t-9 13.5t-3 22.5l-10 165q-2 21 -1 34t7.5 20.5t20.5 11t37 5.5v23 q-8 0 -23.5 -0.5t-34.5 -0.5q-18 0 -36.5 -0.5t-32.5 -0.5q-9 -22 -17.5 -44t-18.5 -44l-67 -153h-2l-66 148q-10 24 -20.5 47t-18.5 47h-37q-19 0 -37.5 0.5t-33.5 0.5h-20zM207 912q-16 0 -37.5 0.5t-43.5 0.5q-23 0 -45 0.5t-38 0.5q2 -25 2.5 -48.5t0.5 -46.5h23 q3 18 7 30.5t10.5 20.5t18 11.5t30.5 3.5h42v-235q0 -12 -2 -20.5t-7.5 -13t-17.5 -7t-32 -3.5l1 -21h18q12 0 24.5 0.5t24.5 0.5h19h21q12 0 25.5 -0.5t25.5 -0.5h20v23q-21 1 -33 3t-17.5 5.5t-7 8.5t-1.5 14v246h42q19 0 31 -3.5t19 -11.5t11 -20.5t6 -30.5h21 q0 23 1.5 46.5t3.5 48.5q-16 0 -38 -0.5t-46 -0.5q-23 0 -45 -0.5t-37 -0.5z" />
<glyph unicode="&#x25fc;" horiz-adv-x="542" d="M0 542h542v-542h-542v542z" />
<glyph unicode="&#xfb01;" horiz-adv-x="713" d="M695 0l2 35q-35 2 -55.5 5t-30.5 10.5t-12.5 21.5t-2.5 36v253q0 17 0.5 40t1.5 49.5t2.5 53t4.5 50.5l-9 7q-12 -5 -38.5 -12t-62.5 -15l-260 -3v193q0 27 1 55t6.5 53.5t16.5 47.5t31 36q16 13 38 19.5t47 6.5q23 0 44.5 -6.5t41 -17.5t37 -24.5t33.5 -27.5h4 q14 6 26.5 12.5t21.5 15.5t14.5 21t5.5 29q0 23 -15.5 37t-37.5 23t-46 12t-41 3q-30 0 -61 -5t-60 -14.5t-53.5 -23.5t-42.5 -31q-52 -49 -82.5 -116t-30.5 -156v-144l-93 -7l-4 -37l7 -6h90v-331q0 -35 -3 -57t-13 -34.5t-29 -18t-50 -8.5l3 -30q27 0 64 1t74 1 q23 0 48.5 -0.5t48.5 -0.5q24 0 44 -0.5t31 -0.5l3 35q-37 1 -60.5 4t-36 10t-17.5 21.5t-5 37.5v371h172q27 0 44 -3t26 -11.5t12.5 -24.5t3.5 -42v-250q0 -35 -3 -57t-12 -34.5t-27 -18t-49 -8.5l2 -30q27 0 59.5 1t69.5 1q46 0 89 -1t73 -1z" />
<glyph unicode="&#xfb02;" horiz-adv-x="714" d="M597 1029q-14 -6 -37.5 -12t-51.5 -14q-18 12 -41.5 16.5t-40.5 4.5q-57 0 -106.5 -19t-89.5 -59q-46 -46 -71.5 -112.5t-25.5 -155.5v-149l-93 -7l-4 -37l7 -6h90v-331q0 -35 -3 -57t-13 -34.5t-29 -18t-50 -8.5l3 -30q27 0 64 1t74 1q23 0 47 -0.5t47 -0.5t43 -0.5 t35 -0.5l3 35q-37 1 -60.5 4t-36 10t-17.5 21.5t-5 37.5v371h162l3 48l-8 7l-157 -3v184q0 28 0.5 57.5t5 57t13 51.5t24.5 40q13 13 30.5 19.5t36.5 6.5q34 0 71 -13t77 -53v-733q0 -36 -3.5 -57.5t-13.5 -34t-28 -18t-47 -8.5l3 -30q27 0 59.5 1t69.5 1q46 0 88 -1t73 -1 l2 35q-35 2 -55.5 5t-30.5 10.5t-13 21.5t-3 36v686q0 17 0.5 45.5t2 61t4 64.5t6.5 56z" />
<glyph unicode="&#xfb03;" horiz-adv-x="1073" d="M1054 -10l2 45q-35 2 -55 5t-30 10.5t-13 21.5t-3 36v253q0 17 0.5 40t1.5 49.5t3 53t5 50.5l-10 7q-12 -5 -38 -12t-62 -15l-260 -3v193q0 27 1 55t6.5 53.5t16.5 47.5t31 36q16 13 38 19.5t47 6.5q23 0 44 -6.5t40.5 -17.5t37.5 -24.5t34 -27.5h4q14 6 26.5 12.5 t21.5 15.5t14.5 21t5.5 29q0 23 -15.5 37t-37.5 23t-46.5 12t-41.5 3q-30 0 -60.5 -5t-59.5 -14.5t-54 -23.5t-43 -31q-2 -2 -3 -2.5t-1 -2.5q-8 19 -24.5 32t-36.5 21t-41 11.5t-37 3.5q-30 0 -61 -5.5t-59.5 -14.5t-53 -22t-42.5 -31q-52 -49 -82.5 -115.5t-30.5 -156.5 v-139l-93 -4l-4 -35l7 -6h90v-331q0 -35 -3 -57t-13 -34.5t-29 -18t-50 -8.5l3 -30q27 0 64 1t74 1q23 0 47.5 -0.5t47.5 -0.5q24 0 44 -0.5t33 -0.5l3 35q-38 1 -61.5 4t-36 10t-17 21.5t-4.5 37.5v371h258v-331q0 -35 -3.5 -57t-13.5 -34.5t-28.5 -18t-49.5 -8.5l3 -30 q27 0 64 1t74 1q23 0 48.5 -0.5t48.5 -0.5q24 0 43.5 -0.5t31.5 -0.5l3 35q-37 1 -60.5 4t-36.5 10t-17.5 21.5t-4.5 37.5v371h172q27 0 44 -3t26 -11.5t12.5 -24.5t3.5 -42v-250q0 -35 -3 -57t-12 -34.5t-27 -18t-50 -8.5l2 -30q27 0 60 1t70 1q46 0 88.5 -1t72.5 -1v-10z M493 530l-258 -4v189q0 27 1 55t6.5 53.5t16.5 47.5t31 36q16 13 39 20.5t48 7.5q44 0 87 -18t77 -51q-22 -40 -35 -88t-13 -105v-143z" />
<glyph unicode="&#xfb04;" horiz-adv-x="1074" d="M956 1029q-14 -6 -37 -12t-51 -14q-18 12 -41.5 16.5t-40.5 4.5q-54 0 -102 -18t-88 -54q-10 15 -26.5 26t-36 17.5t-38.5 9.5t-33 3q-30 0 -61 -5.5t-59.5 -14.5t-53 -22t-42.5 -31q-52 -49 -82.5 -115.5t-30.5 -156.5v-139l-93 -4l-4 -35l7 -6h90v-331q0 -35 -3 -57 t-13 -34.5t-29 -18t-50 -8.5l3 -30q27 0 64 1t74 1q23 0 47.5 -0.5t47.5 -0.5q24 0 44 -0.5t33 -0.5l3 35q-38 1 -61.5 4t-36 10t-17 21.5t-4.5 37.5v371h258v-331q0 -35 -3.5 -57t-13.5 -34.5t-28.5 -18t-49.5 -8.5l3 -30q27 0 64 1t74 1q23 0 47 -0.5t47 -0.5t43 -0.5 t35 -0.5l3 35q-37 1 -60.5 4t-36.5 10t-17.5 21.5t-4.5 37.5v371h162l2 48l-7 7l-157 -2v183q0 28 0.5 57.5t4.5 57t12.5 51.5t25.5 40q13 13 30.5 19.5t36.5 6.5q34 0 71 -13t77 -53v-733q0 -36 -3.5 -57.5t-13.5 -34t-28 -18t-48 -8.5l3 -30q27 0 60 1t70 1q46 0 88 -1 t73 -1l1 35q-35 2 -55 5t-30.5 10.5t-13 21.5t-2.5 36v686q0 17 0.5 45.5t1.5 61t4 64.5t7 56zM493 530l-258 -4v189q0 27 1 55t6.5 53.5t16.5 47.5t31 36q16 13 39 20.5t48 7.5q43 0 83.5 -17t75.5 -47q-20 -40 -31.5 -88t-11.5 -105v-148z" />
</font>
</defs>
</svg>
